<?xml version="1.0" encoding="utf-8" standalone="no"?>
<!DOCTYPE svg PUBLIC "-//W3C//DTD SVG 1.1//EN"
  "http://www.w3.org/Graphics/SVG/1.1/DTD/svg11.dtd">
<svg xmlns:xlink="http://www.w3.org/1999/xlink" width="460.8pt" height="345.6pt" viewBox="0 0 460.8 345.6" xmlns="http://www.w3.org/2000/svg" version="1.1">
 <metadata>
  <rdf:RDF xmlns:dc="http://purl.org/dc/elements/1.1/" xmlns:cc="http://creativecommons.org/ns#" xmlns:rdf="http://www.w3.org/1999/02/22-rdf-syntax-ns#">
   <cc:Work>
    <dc:type rdf:resource="http://purl.org/dc/dcmitype/StillImage"/>
    <dc:date>2025-04-14T14:29:56.009093</dc:date>
    <dc:format>image/svg+xml</dc:format>
    <dc:creator>
     <cc:Agent>
      <dc:title>Matplotlib v3.9.2, https://matplotlib.org/</dc:title>
     </cc:Agent>
    </dc:creator>
   </cc:Work>
  </rdf:RDF>
 </metadata>
 <defs>
  <style type="text/css">*{stroke-linejoin: round; stroke-linecap: butt}</style>
 </defs>
 <g id="figure_1">
  <g id="patch_1">
   <path d="M 0 345.6 
L 460.8 345.6 
L 460.8 0 
L 0 0 
z
" style="fill: #ffffff"/>
  </g>
  <g id="axes_1">
   <g id="patch_2">
    <path d="M 47.765 303.64 
L 450 303.64 
L 450 26.16 
L 47.765 26.16 
z
" style="fill: #ffffff"/>
   </g>
   <g id="PolyCollection_1">
    <path d="M 66.048409 135.264384 
L 66.048409 291.027273 
L 69.742027 288.918963 
L 73.435645 286.467299 
L 77.129263 284.014572 
L 80.822881 281.558421 
L 84.516499 279.10227 
L 88.210117 277.238105 
L 91.903735 275.387422 
L 95.597353 273.081434 
L 99.290971 270.40939 
L 102.984589 268.013782 
L 106.678207 266.048215 
L 110.371825 264.082648 
L 114.065443 262.117081 
L 117.759061 260.151514 
L 121.452679 257.828803 
L 125.146297 255.50053 
L 128.839915 253.192923 
L 132.533533 251.224664 
L 136.227151 248.675589 
L 139.920769 247.324891 
L 143.614387 245.395023 
L 147.308005 243.436014 
L 151.001623 241.565182 
L 154.695241 239.854527 
L 158.388859 237.797803 
L 162.082477 236.012371 
L 165.776095 234.356555 
L 169.469713 232.487115 
L 173.163331 230.340491 
L 176.856949 228.831491 
L 180.550567 227.230378 
L 184.244185 225.622167 
L 187.937803 224.305296 
L 191.631421 222.799953 
L 195.325039 220.678118 
L 199.018657 218.5485 
L 202.712275 217.213203 
L 206.405893 215.351357 
L 210.099511 213.331396 
L 213.793129 211.815983 
L 217.486747 210.503612 
L 221.180365 209.300924 
L 224.873983 208.201818 
L 228.567601 207.314472 
L 232.261219 206.368495 
L 235.954837 205.224015 
L 239.648455 203.538614 
L 243.342073 202.857821 
L 247.035691 201.668851 
L 250.729309 199.942297 
L 254.422927 198.898047 
L 258.116545 198.134116 
L 261.810163 196.781155 
L 265.503781 195.781071 
L 269.197399 195.159298 
L 272.891017 194.356257 
L 276.584635 194.384957 
L 280.278253 193.867885 
L 283.971871 193.489572 
L 287.665489 193.129491 
L 291.359107 192.596304 
L 295.052725 191.957205 
L 298.746343 191.254357 
L 302.439961 190.465602 
L 306.133579 190.053562 
L 309.827197 189.576556 
L 313.520815 189.250365 
L 317.214433 188.73627 
L 320.908051 188.672362 
L 324.601669 188.243603 
L 328.295287 187.82449 
L 331.988905 187.382931 
L 335.682523 186.949036 
L 339.376141 186.518255 
L 343.069759 186.197444 
L 346.763377 186.033432 
L 350.456995 185.947386 
L 354.150613 185.84182 
L 357.844231 185.298994 
L 361.537849 185.342428 
L 365.231467 185.40668 
L 368.925085 185.470932 
L 372.618703 185.388274 
L 376.312321 185.465963 
L 380.005939 185.679547 
L 383.699557 185.597645 
L 387.393175 185.568716 
L 391.086793 185.883616 
L 394.780411 185.964358 
L 398.474029 186.027573 
L 402.167647 185.986092 
L 405.861265 185.886511 
L 409.554883 185.94748 
L 413.248501 185.972107 
L 416.942119 185.829036 
L 420.635737 185.793527 
L 424.329355 185.589092 
L 428.022973 185.406943 
L 431.716591 185.495714 
L 431.716591 38.772727 
L 431.716591 38.772727 
L 428.022973 41.252401 
L 424.329355 43.732075 
L 420.635737 45.630107 
L 416.942119 47.300476 
L 413.248501 48.970846 
L 409.554883 50.644083 
L 405.861265 52.280113 
L 402.167647 53.653943 
L 398.474029 55.684111 
L 394.780411 57.730647 
L 391.086793 60.201527 
L 387.393175 61.973241 
L 383.699557 63.622835 
L 380.005939 65.338561 
L 376.312321 67.277279 
L 372.618703 69.556402 
L 368.925085 71.125292 
L 365.231467 72.696206 
L 361.537849 74.226168 
L 357.844231 75.832208 
L 354.150613 78.078689 
L 350.456995 80.05403 
L 346.763377 81.246223 
L 343.069759 82.460464 
L 339.376141 83.830944 
L 335.682523 85.634141 
L 331.988905 87.186635 
L 328.295287 89.298639 
L 324.601669 91.242904 
L 320.908051 92.829516 
L 317.214433 94.943665 
L 313.520815 96.408093 
L 309.827197 97.683935 
L 306.133579 99.504635 
L 302.439961 100.941759 
L 298.746343 102.322827 
L 295.052725 103.995926 
L 291.359107 105.050682 
L 287.665489 106.43472 
L 283.971871 107.814742 
L 280.278253 109.198149 
L 276.584635 110.574971 
L 272.891017 111.952574 
L 269.197399 113.424398 
L 265.503781 114.693443 
L 261.810163 115.648749 
L 258.116545 115.795903 
L 254.422927 117.153398 
L 250.729309 118.813178 
L 247.035691 119.869162 
L 243.342073 120.897918 
L 239.648455 122.143787 
L 235.954837 122.85205 
L 232.261219 123.565195 
L 228.567601 124.609243 
L 224.873983 124.99019 
L 221.180365 125.642646 
L 217.486747 126.410022 
L 213.793129 127.454903 
L 210.099511 127.996065 
L 206.405893 128.531871 
L 202.712275 129.234655 
L 199.018657 129.937438 
L 195.325039 130.64744 
L 191.631421 131.413798 
L 187.937803 132.599026 
L 184.244185 133.09109 
L 180.550567 133.258308 
L 176.856949 133.964914 
L 173.163331 134.248753 
L 169.469713 134.846417 
L 165.776095 135.418138 
L 162.082477 136.061505 
L 158.388859 136.609787 
L 154.695241 136.592156 
L 151.001623 136.857473 
L 147.308005 136.865561 
L 143.614387 136.700113 
L 139.920769 136.729061 
L 136.227151 137.332043 
L 132.533533 137.470048 
L 128.839915 137.831372 
L 125.146297 137.703354 
L 121.452679 137.211486 
L 117.759061 136.2859 
L 114.065443 136.20397 
L 110.371825 135.887362 
L 106.678207 135.933932 
L 102.984589 135.981458 
L 99.290971 135.912831 
L 95.597353 135.843731 
L 91.903735 135.912792 
L 88.210117 135.730496 
L 84.516499 135.618483 
L 80.822881 135.545851 
L 77.129263 135.47322 
L 73.435645 135.325244 
L 69.742027 135.292713 
L 66.048409 135.264384 
z
" clip-path="url(#p5dba7ad610)" style="fill: #1f77b4; fill-opacity: 0.15"/>
   </g>
   <g id="matplotlib.axis_1">
    <g id="xtick_1">
     <g id="line2d_1">
      <defs>
       <path id="mbf47516922" d="M 0 0 
L 0 3.5 
" style="stroke: #000000; stroke-width: 0.8"/>
      </defs>
      <g>
       <use xlink:href="#mbf47516922" x="92.167565" y="303.64" style="stroke: #000000; stroke-width: 0.8"/>
      </g>
     </g>
     <g id="text_1">
      <!-- −6 -->
      <g transform="translate(84.796471 318.238437) scale(0.1 -0.1)">
       <defs>
        <path id="DejaVuSans-2212" d="M 678 2272 
L 4684 2272 
L 4684 1741 
L 678 1741 
L 678 2272 
z
" transform="scale(0.015625)"/>
        <path id="DejaVuSans-36" d="M 2113 2584 
Q 1688 2584 1439 2293 
Q 1191 2003 1191 1497 
Q 1191 994 1439 701 
Q 1688 409 2113 409 
Q 2538 409 2786 701 
Q 3034 994 3034 1497 
Q 3034 2003 2786 2293 
Q 2538 2584 2113 2584 
z
M 3366 4563 
L 3366 3988 
Q 3128 4100 2886 4159 
Q 2644 4219 2406 4219 
Q 1781 4219 1451 3797 
Q 1122 3375 1075 2522 
Q 1259 2794 1537 2939 
Q 1816 3084 2150 3084 
Q 2853 3084 3261 2657 
Q 3669 2231 3669 1497 
Q 3669 778 3244 343 
Q 2819 -91 2113 -91 
Q 1303 -91 875 529 
Q 447 1150 447 2328 
Q 447 3434 972 4092 
Q 1497 4750 2381 4750 
Q 2619 4750 2861 4703 
Q 3103 4656 3366 4563 
z
" transform="scale(0.015625)"/>
       </defs>
       <use xlink:href="#DejaVuSans-2212"/>
       <use xlink:href="#DejaVuSans-36" x="83.789062"/>
      </g>
     </g>
    </g>
    <g id="xtick_2">
     <g id="line2d_2">
      <g>
       <use xlink:href="#mbf47516922" x="144.405877" y="303.64" style="stroke: #000000; stroke-width: 0.8"/>
      </g>
     </g>
     <g id="text_2">
      <!-- −4 -->
      <g transform="translate(137.034783 318.238437) scale(0.1 -0.1)">
       <defs>
        <path id="DejaVuSans-34" d="M 2419 4116 
L 825 1625 
L 2419 1625 
L 2419 4116 
z
M 2253 4666 
L 3047 4666 
L 3047 1625 
L 3713 1625 
L 3713 1100 
L 3047 1100 
L 3047 0 
L 2419 0 
L 2419 1100 
L 313 1100 
L 313 1709 
L 2253 4666 
z
" transform="scale(0.015625)"/>
       </defs>
       <use xlink:href="#DejaVuSans-2212"/>
       <use xlink:href="#DejaVuSans-34" x="83.789062"/>
      </g>
     </g>
    </g>
    <g id="xtick_3">
     <g id="line2d_3">
      <g>
       <use xlink:href="#mbf47516922" x="196.644188" y="303.64" style="stroke: #000000; stroke-width: 0.8"/>
      </g>
     </g>
     <g id="text_3">
      <!-- −2 -->
      <g transform="translate(189.273095 318.238437) scale(0.1 -0.1)">
       <defs>
        <path id="DejaVuSans-32" d="M 1228 531 
L 3431 531 
L 3431 0 
L 469 0 
L 469 531 
Q 828 903 1448 1529 
Q 2069 2156 2228 2338 
Q 2531 2678 2651 2914 
Q 2772 3150 2772 3378 
Q 2772 3750 2511 3984 
Q 2250 4219 1831 4219 
Q 1534 4219 1204 4116 
Q 875 4013 500 3803 
L 500 4441 
Q 881 4594 1212 4672 
Q 1544 4750 1819 4750 
Q 2544 4750 2975 4387 
Q 3406 4025 3406 3419 
Q 3406 3131 3298 2873 
Q 3191 2616 2906 2266 
Q 2828 2175 2409 1742 
Q 1991 1309 1228 531 
z
" transform="scale(0.015625)"/>
       </defs>
       <use xlink:href="#DejaVuSans-2212"/>
       <use xlink:href="#DejaVuSans-32" x="83.789062"/>
      </g>
     </g>
    </g>
    <g id="xtick_4">
     <g id="line2d_4">
      <g>
       <use xlink:href="#mbf47516922" x="248.8825" y="303.64" style="stroke: #000000; stroke-width: 0.8"/>
      </g>
     </g>
     <g id="text_4">
      <!-- 0 -->
      <g transform="translate(245.70125 318.238437) scale(0.1 -0.1)">
       <defs>
        <path id="DejaVuSans-30" d="M 2034 4250 
Q 1547 4250 1301 3770 
Q 1056 3291 1056 2328 
Q 1056 1369 1301 889 
Q 1547 409 2034 409 
Q 2525 409 2770 889 
Q 3016 1369 3016 2328 
Q 3016 3291 2770 3770 
Q 2525 4250 2034 4250 
z
M 2034 4750 
Q 2819 4750 3233 4129 
Q 3647 3509 3647 2328 
Q 3647 1150 3233 529 
Q 2819 -91 2034 -91 
Q 1250 -91 836 529 
Q 422 1150 422 2328 
Q 422 3509 836 4129 
Q 1250 4750 2034 4750 
z
" transform="scale(0.015625)"/>
       </defs>
       <use xlink:href="#DejaVuSans-30"/>
      </g>
     </g>
    </g>
    <g id="xtick_5">
     <g id="line2d_5">
      <g>
       <use xlink:href="#mbf47516922" x="301.120812" y="303.64" style="stroke: #000000; stroke-width: 0.8"/>
      </g>
     </g>
     <g id="text_5">
      <!-- 2 -->
      <g transform="translate(297.939562 318.238437) scale(0.1 -0.1)">
       <use xlink:href="#DejaVuSans-32"/>
      </g>
     </g>
    </g>
    <g id="xtick_6">
     <g id="line2d_6">
      <g>
       <use xlink:href="#mbf47516922" x="353.359123" y="303.64" style="stroke: #000000; stroke-width: 0.8"/>
      </g>
     </g>
     <g id="text_6">
      <!-- 4 -->
      <g transform="translate(350.177873 318.238437) scale(0.1 -0.1)">
       <use xlink:href="#DejaVuSans-34"/>
      </g>
     </g>
    </g>
    <g id="xtick_7">
     <g id="line2d_7">
      <g>
       <use xlink:href="#mbf47516922" x="405.597435" y="303.64" style="stroke: #000000; stroke-width: 0.8"/>
      </g>
     </g>
     <g id="text_7">
      <!-- 6 -->
      <g transform="translate(402.416185 318.238437) scale(0.1 -0.1)">
       <use xlink:href="#DejaVuSans-36"/>
      </g>
     </g>
    </g>
    <g id="text_8">
     <!-- Interval -->
     <g transform="translate(229.734063 331.916562) scale(0.1 -0.1)">
      <defs>
       <path id="DejaVuSans-49" d="M 628 4666 
L 1259 4666 
L 1259 0 
L 628 0 
L 628 4666 
z
" transform="scale(0.015625)"/>
       <path id="DejaVuSans-6e" d="M 3513 2113 
L 3513 0 
L 2938 0 
L 2938 2094 
Q 2938 2591 2744 2837 
Q 2550 3084 2163 3084 
Q 1697 3084 1428 2787 
Q 1159 2491 1159 1978 
L 1159 0 
L 581 0 
L 581 3500 
L 1159 3500 
L 1159 2956 
Q 1366 3272 1645 3428 
Q 1925 3584 2291 3584 
Q 2894 3584 3203 3211 
Q 3513 2838 3513 2113 
z
" transform="scale(0.015625)"/>
       <path id="DejaVuSans-74" d="M 1172 4494 
L 1172 3500 
L 2356 3500 
L 2356 3053 
L 1172 3053 
L 1172 1153 
Q 1172 725 1289 603 
Q 1406 481 1766 481 
L 2356 481 
L 2356 0 
L 1766 0 
Q 1100 0 847 248 
Q 594 497 594 1153 
L 594 3053 
L 172 3053 
L 172 3500 
L 594 3500 
L 594 4494 
L 1172 4494 
z
" transform="scale(0.015625)"/>
       <path id="DejaVuSans-65" d="M 3597 1894 
L 3597 1613 
L 953 1613 
Q 991 1019 1311 708 
Q 1631 397 2203 397 
Q 2534 397 2845 478 
Q 3156 559 3463 722 
L 3463 178 
Q 3153 47 2828 -22 
Q 2503 -91 2169 -91 
Q 1331 -91 842 396 
Q 353 884 353 1716 
Q 353 2575 817 3079 
Q 1281 3584 2069 3584 
Q 2775 3584 3186 3129 
Q 3597 2675 3597 1894 
z
M 3022 2063 
Q 3016 2534 2758 2815 
Q 2500 3097 2075 3097 
Q 1594 3097 1305 2825 
Q 1016 2553 972 2059 
L 3022 2063 
z
" transform="scale(0.015625)"/>
       <path id="DejaVuSans-72" d="M 2631 2963 
Q 2534 3019 2420 3045 
Q 2306 3072 2169 3072 
Q 1681 3072 1420 2755 
Q 1159 2438 1159 1844 
L 1159 0 
L 581 0 
L 581 3500 
L 1159 3500 
L 1159 2956 
Q 1341 3275 1631 3429 
Q 1922 3584 2338 3584 
Q 2397 3584 2469 3576 
Q 2541 3569 2628 3553 
L 2631 2963 
z
" transform="scale(0.015625)"/>
       <path id="DejaVuSans-76" d="M 191 3500 
L 800 3500 
L 1894 563 
L 2988 3500 
L 3597 3500 
L 2284 0 
L 1503 0 
L 191 3500 
z
" transform="scale(0.015625)"/>
       <path id="DejaVuSans-61" d="M 2194 1759 
Q 1497 1759 1228 1600 
Q 959 1441 959 1056 
Q 959 750 1161 570 
Q 1363 391 1709 391 
Q 2188 391 2477 730 
Q 2766 1069 2766 1631 
L 2766 1759 
L 2194 1759 
z
M 3341 1997 
L 3341 0 
L 2766 0 
L 2766 531 
Q 2569 213 2275 61 
Q 1981 -91 1556 -91 
Q 1019 -91 701 211 
Q 384 513 384 1019 
Q 384 1609 779 1909 
Q 1175 2209 1959 2209 
L 2766 2209 
L 2766 2266 
Q 2766 2663 2505 2880 
Q 2244 3097 1772 3097 
Q 1472 3097 1187 3025 
Q 903 2953 641 2809 
L 641 3341 
Q 956 3463 1253 3523 
Q 1550 3584 1831 3584 
Q 2591 3584 2966 3190 
Q 3341 2797 3341 1997 
z
" transform="scale(0.015625)"/>
       <path id="DejaVuSans-6c" d="M 603 4863 
L 1178 4863 
L 1178 0 
L 603 0 
L 603 4863 
z
" transform="scale(0.015625)"/>
      </defs>
      <use xlink:href="#DejaVuSans-49"/>
      <use xlink:href="#DejaVuSans-6e" x="29.492188"/>
      <use xlink:href="#DejaVuSans-74" x="92.871094"/>
      <use xlink:href="#DejaVuSans-65" x="132.080078"/>
      <use xlink:href="#DejaVuSans-72" x="193.603516"/>
      <use xlink:href="#DejaVuSans-76" x="234.716797"/>
      <use xlink:href="#DejaVuSans-61" x="293.896484"/>
      <use xlink:href="#DejaVuSans-6c" x="355.175781"/>
     </g>
    </g>
   </g>
   <g id="matplotlib.axis_2">
    <g id="ytick_1">
     <g id="line2d_8">
      <defs>
       <path id="m5be0bf4107" d="M 0 0 
L -3.5 0 
" style="stroke: #000000; stroke-width: 0.8"/>
      </defs>
      <g>
       <use xlink:href="#m5be0bf4107" x="47.765" y="267.335252" style="stroke: #000000; stroke-width: 0.8"/>
      </g>
     </g>
     <g id="text_9">
      <!-- 2.0 -->
      <g transform="translate(24.861875 271.134471) scale(0.1 -0.1)">
       <defs>
        <path id="DejaVuSans-2e" d="M 684 794 
L 1344 794 
L 1344 0 
L 684 0 
L 684 794 
z
" transform="scale(0.015625)"/>
       </defs>
       <use xlink:href="#DejaVuSans-32"/>
       <use xlink:href="#DejaVuSans-2e" x="63.623047"/>
       <use xlink:href="#DejaVuSans-30" x="95.410156"/>
      </g>
     </g>
    </g>
    <g id="ytick_2">
     <g id="line2d_9">
      <g>
       <use xlink:href="#m5be0bf4107" x="47.765" y="216.681169" style="stroke: #000000; stroke-width: 0.8"/>
      </g>
     </g>
     <g id="text_10">
      <!-- 2.5 -->
      <g transform="translate(24.861875 220.480388) scale(0.1 -0.1)">
       <defs>
        <path id="DejaVuSans-35" d="M 691 4666 
L 3169 4666 
L 3169 4134 
L 1269 4134 
L 1269 2991 
Q 1406 3038 1543 3061 
Q 1681 3084 1819 3084 
Q 2600 3084 3056 2656 
Q 3513 2228 3513 1497 
Q 3513 744 3044 326 
Q 2575 -91 1722 -91 
Q 1428 -91 1123 -41 
Q 819 9 494 109 
L 494 744 
Q 775 591 1075 516 
Q 1375 441 1709 441 
Q 2250 441 2565 725 
Q 2881 1009 2881 1497 
Q 2881 1984 2565 2268 
Q 2250 2553 1709 2553 
Q 1456 2553 1204 2497 
Q 953 2441 691 2322 
L 691 4666 
z
" transform="scale(0.015625)"/>
       </defs>
       <use xlink:href="#DejaVuSans-32"/>
       <use xlink:href="#DejaVuSans-2e" x="63.623047"/>
       <use xlink:href="#DejaVuSans-35" x="95.410156"/>
      </g>
     </g>
    </g>
    <g id="ytick_3">
     <g id="line2d_10">
      <g>
       <use xlink:href="#m5be0bf4107" x="47.765" y="166.027086" style="stroke: #000000; stroke-width: 0.8"/>
      </g>
     </g>
     <g id="text_11">
      <!-- 3.0 -->
      <g transform="translate(24.861875 169.826305) scale(0.1 -0.1)">
       <defs>
        <path id="DejaVuSans-33" d="M 2597 2516 
Q 3050 2419 3304 2112 
Q 3559 1806 3559 1356 
Q 3559 666 3084 287 
Q 2609 -91 1734 -91 
Q 1441 -91 1130 -33 
Q 819 25 488 141 
L 488 750 
Q 750 597 1062 519 
Q 1375 441 1716 441 
Q 2309 441 2620 675 
Q 2931 909 2931 1356 
Q 2931 1769 2642 2001 
Q 2353 2234 1838 2234 
L 1294 2234 
L 1294 2753 
L 1863 2753 
Q 2328 2753 2575 2939 
Q 2822 3125 2822 3475 
Q 2822 3834 2567 4026 
Q 2313 4219 1838 4219 
Q 1578 4219 1281 4162 
Q 984 4106 628 3988 
L 628 4550 
Q 988 4650 1302 4700 
Q 1616 4750 1894 4750 
Q 2613 4750 3031 4423 
Q 3450 4097 3450 3541 
Q 3450 3153 3228 2886 
Q 3006 2619 2597 2516 
z
" transform="scale(0.015625)"/>
       </defs>
       <use xlink:href="#DejaVuSans-33"/>
       <use xlink:href="#DejaVuSans-2e" x="63.623047"/>
       <use xlink:href="#DejaVuSans-30" x="95.410156"/>
      </g>
     </g>
    </g>
    <g id="ytick_4">
     <g id="line2d_11">
      <g>
       <use xlink:href="#m5be0bf4107" x="47.765" y="115.373003" style="stroke: #000000; stroke-width: 0.8"/>
      </g>
     </g>
     <g id="text_12">
      <!-- 3.5 -->
      <g transform="translate(24.861875 119.172222) scale(0.1 -0.1)">
       <use xlink:href="#DejaVuSans-33"/>
       <use xlink:href="#DejaVuSans-2e" x="63.623047"/>
       <use xlink:href="#DejaVuSans-35" x="95.410156"/>
      </g>
     </g>
    </g>
    <g id="ytick_5">
     <g id="line2d_12">
      <g>
       <use xlink:href="#m5be0bf4107" x="47.765" y="64.71892" style="stroke: #000000; stroke-width: 0.8"/>
      </g>
     </g>
     <g id="text_13">
      <!-- 4.0 -->
      <g transform="translate(24.861875 68.518139) scale(0.1 -0.1)">
       <use xlink:href="#DejaVuSans-34"/>
       <use xlink:href="#DejaVuSans-2e" x="63.623047"/>
       <use xlink:href="#DejaVuSans-30" x="95.410156"/>
      </g>
     </g>
    </g>
    <g id="text_14">
     <!-- Elevation Difference -->
     <g transform="translate(18.782187 215.564844) rotate(-90) scale(0.1 -0.1)">
      <defs>
       <path id="DejaVuSans-45" d="M 628 4666 
L 3578 4666 
L 3578 4134 
L 1259 4134 
L 1259 2753 
L 3481 2753 
L 3481 2222 
L 1259 2222 
L 1259 531 
L 3634 531 
L 3634 0 
L 628 0 
L 628 4666 
z
" transform="scale(0.015625)"/>
       <path id="DejaVuSans-69" d="M 603 3500 
L 1178 3500 
L 1178 0 
L 603 0 
L 603 3500 
z
M 603 4863 
L 1178 4863 
L 1178 4134 
L 603 4134 
L 603 4863 
z
" transform="scale(0.015625)"/>
       <path id="DejaVuSans-6f" d="M 1959 3097 
Q 1497 3097 1228 2736 
Q 959 2375 959 1747 
Q 959 1119 1226 758 
Q 1494 397 1959 397 
Q 2419 397 2687 759 
Q 2956 1122 2956 1747 
Q 2956 2369 2687 2733 
Q 2419 3097 1959 3097 
z
M 1959 3584 
Q 2709 3584 3137 3096 
Q 3566 2609 3566 1747 
Q 3566 888 3137 398 
Q 2709 -91 1959 -91 
Q 1206 -91 779 398 
Q 353 888 353 1747 
Q 353 2609 779 3096 
Q 1206 3584 1959 3584 
z
" transform="scale(0.015625)"/>
       <path id="DejaVuSans-20" transform="scale(0.015625)"/>
       <path id="DejaVuSans-44" d="M 1259 4147 
L 1259 519 
L 2022 519 
Q 2988 519 3436 956 
Q 3884 1394 3884 2338 
Q 3884 3275 3436 3711 
Q 2988 4147 2022 4147 
L 1259 4147 
z
M 628 4666 
L 1925 4666 
Q 3281 4666 3915 4102 
Q 4550 3538 4550 2338 
Q 4550 1131 3912 565 
Q 3275 0 1925 0 
L 628 0 
L 628 4666 
z
" transform="scale(0.015625)"/>
       <path id="DejaVuSans-66" d="M 2375 4863 
L 2375 4384 
L 1825 4384 
Q 1516 4384 1395 4259 
Q 1275 4134 1275 3809 
L 1275 3500 
L 2222 3500 
L 2222 3053 
L 1275 3053 
L 1275 0 
L 697 0 
L 697 3053 
L 147 3053 
L 147 3500 
L 697 3500 
L 697 3744 
Q 697 4328 969 4595 
Q 1241 4863 1831 4863 
L 2375 4863 
z
" transform="scale(0.015625)"/>
       <path id="DejaVuSans-63" d="M 3122 3366 
L 3122 2828 
Q 2878 2963 2633 3030 
Q 2388 3097 2138 3097 
Q 1578 3097 1268 2742 
Q 959 2388 959 1747 
Q 959 1106 1268 751 
Q 1578 397 2138 397 
Q 2388 397 2633 464 
Q 2878 531 3122 666 
L 3122 134 
Q 2881 22 2623 -34 
Q 2366 -91 2075 -91 
Q 1284 -91 818 406 
Q 353 903 353 1747 
Q 353 2603 823 3093 
Q 1294 3584 2113 3584 
Q 2378 3584 2631 3529 
Q 2884 3475 3122 3366 
z
" transform="scale(0.015625)"/>
      </defs>
      <use xlink:href="#DejaVuSans-45"/>
      <use xlink:href="#DejaVuSans-6c" x="63.183594"/>
      <use xlink:href="#DejaVuSans-65" x="90.966797"/>
      <use xlink:href="#DejaVuSans-76" x="152.490234"/>
      <use xlink:href="#DejaVuSans-61" x="211.669922"/>
      <use xlink:href="#DejaVuSans-74" x="272.949219"/>
      <use xlink:href="#DejaVuSans-69" x="312.158203"/>
      <use xlink:href="#DejaVuSans-6f" x="339.941406"/>
      <use xlink:href="#DejaVuSans-6e" x="401.123047"/>
      <use xlink:href="#DejaVuSans-20" x="464.501953"/>
      <use xlink:href="#DejaVuSans-44" x="496.289062"/>
      <use xlink:href="#DejaVuSans-69" x="573.291016"/>
      <use xlink:href="#DejaVuSans-66" x="601.074219"/>
      <use xlink:href="#DejaVuSans-66" x="636.279297"/>
      <use xlink:href="#DejaVuSans-65" x="671.484375"/>
      <use xlink:href="#DejaVuSans-72" x="733.007812"/>
      <use xlink:href="#DejaVuSans-65" x="771.871094"/>
      <use xlink:href="#DejaVuSans-6e" x="833.394531"/>
      <use xlink:href="#DejaVuSans-63" x="896.773438"/>
      <use xlink:href="#DejaVuSans-65" x="951.753906"/>
     </g>
    </g>
   </g>
   <g id="line2d_13">
    <path d="M 66.048409 210.819141 
L 69.742027 209.81348 
L 73.435645 208.80782 
L 77.129263 207.802159 
L 80.822881 206.796499 
L 84.516499 205.790839 
L 88.210117 204.785178 
L 91.903735 203.779518 
L 95.597353 202.773857 
L 99.290971 201.768197 
L 102.984589 200.762537 
L 106.678207 199.756876 
L 110.371825 198.751216 
L 114.065443 197.745555 
L 117.759061 196.739895 
L 121.452679 195.734235 
L 125.146297 194.728574 
L 128.839915 193.722914 
L 132.533533 192.717253 
L 136.227151 191.711593 
L 139.920769 190.705933 
L 143.614387 189.700272 
L 147.308005 188.694612 
L 151.001623 187.688951 
L 154.695241 186.683291 
L 158.388859 185.677631 
L 162.082477 184.67197 
L 165.776095 183.66631 
L 169.469713 182.660649 
L 173.163331 181.654989 
L 176.856949 180.649329 
L 180.550567 179.643668 
L 184.244185 178.638008 
L 187.937803 177.632347 
L 191.631421 176.626687 
L 195.325039 175.621027 
L 199.018657 174.615366 
L 202.712275 173.609706 
L 206.405893 172.604045 
L 210.099511 171.598385 
L 213.793129 170.592725 
L 217.486747 169.587064 
L 221.180365 168.581404 
L 224.873983 167.575743 
L 228.567601 166.570083 
L 232.261219 165.564423 
L 235.954837 164.558762 
L 239.648455 163.553102 
L 243.342073 162.547441 
L 247.035691 161.541781 
L 250.729309 160.536121 
L 254.422927 159.53046 
L 258.116545 158.5248 
L 261.810163 157.519139 
L 265.503781 156.513479 
L 269.197399 155.507819 
L 272.891017 154.502158 
L 276.584635 153.496498 
L 280.278253 152.490837 
L 283.971871 151.485177 
L 287.665489 150.479517 
L 291.359107 149.473856 
L 295.052725 148.468196 
L 298.746343 147.462535 
L 302.439961 146.456875 
L 306.133579 145.451215 
L 309.827197 144.445554 
L 313.520815 143.439894 
L 317.214433 142.434233 
L 320.908051 141.428573 
L 324.601669 140.422913 
L 328.295287 139.417252 
L 331.988905 138.411592 
L 335.682523 137.405931 
L 339.376141 136.400271 
L 343.069759 135.394611 
L 346.763377 134.38895 
L 350.456995 133.38329 
L 354.150613 132.377629 
L 357.844231 131.371969 
L 361.537849 130.366309 
L 365.231467 129.360648 
L 368.925085 128.354988 
L 372.618703 127.349327 
L 376.312321 126.343667 
L 380.005939 125.338007 
L 383.699557 124.332346 
L 387.393175 123.326686 
L 391.086793 122.321025 
L 394.780411 121.315365 
L 398.474029 120.309705 
L 402.167647 119.304044 
L 405.861265 118.298384 
L 409.554883 117.292723 
L 413.248501 116.287063 
L 416.942119 115.281403 
L 420.635737 114.275742 
L 424.329355 113.270082 
L 428.022973 112.264421 
L 431.716591 111.258761 
" clip-path="url(#p5dba7ad610)" style="fill: none; stroke: #1f77b4; stroke-width: 2.25; stroke-linecap: square"/>
   </g>
   <g id="patch_3">
    <path d="M 47.765 303.64 
L 47.765 26.16 
" style="fill: none; stroke: #000000; stroke-width: 0.8; stroke-linejoin: miter; stroke-linecap: square"/>
   </g>
   <g id="patch_4">
    <path d="M 450 303.64 
L 450 26.16 
" style="fill: none; stroke: #000000; stroke-width: 0.8; stroke-linejoin: miter; stroke-linecap: square"/>
   </g>
   <g id="patch_5">
    <path d="M 47.765 303.64 
L 450 303.64 
" style="fill: none; stroke: #000000; stroke-width: 0.8; stroke-linejoin: miter; stroke-linecap: square"/>
   </g>
   <g id="patch_6">
    <path d="M 47.765 26.16 
L 450 26.16 
" style="fill: none; stroke: #000000; stroke-width: 0.8; stroke-linejoin: miter; stroke-linecap: square"/>
   </g>
   <g id="text_15">
    <!-- Elevation Difference by Condition -->
    <g transform="translate(148.278438 20.16) scale(0.12 -0.12)">
     <defs>
      <path id="DejaVuSans-62" d="M 3116 1747 
Q 3116 2381 2855 2742 
Q 2594 3103 2138 3103 
Q 1681 3103 1420 2742 
Q 1159 2381 1159 1747 
Q 1159 1113 1420 752 
Q 1681 391 2138 391 
Q 2594 391 2855 752 
Q 3116 1113 3116 1747 
z
M 1159 2969 
Q 1341 3281 1617 3432 
Q 1894 3584 2278 3584 
Q 2916 3584 3314 3078 
Q 3713 2572 3713 1747 
Q 3713 922 3314 415 
Q 2916 -91 2278 -91 
Q 1894 -91 1617 61 
Q 1341 213 1159 525 
L 1159 0 
L 581 0 
L 581 4863 
L 1159 4863 
L 1159 2969 
z
" transform="scale(0.015625)"/>
      <path id="DejaVuSans-79" d="M 2059 -325 
Q 1816 -950 1584 -1140 
Q 1353 -1331 966 -1331 
L 506 -1331 
L 506 -850 
L 844 -850 
Q 1081 -850 1212 -737 
Q 1344 -625 1503 -206 
L 1606 56 
L 191 3500 
L 800 3500 
L 1894 763 
L 2988 3500 
L 3597 3500 
L 2059 -325 
z
" transform="scale(0.015625)"/>
      <path id="DejaVuSans-43" d="M 4122 4306 
L 4122 3641 
Q 3803 3938 3442 4084 
Q 3081 4231 2675 4231 
Q 1875 4231 1450 3742 
Q 1025 3253 1025 2328 
Q 1025 1406 1450 917 
Q 1875 428 2675 428 
Q 3081 428 3442 575 
Q 3803 722 4122 1019 
L 4122 359 
Q 3791 134 3420 21 
Q 3050 -91 2638 -91 
Q 1578 -91 968 557 
Q 359 1206 359 2328 
Q 359 3453 968 4101 
Q 1578 4750 2638 4750 
Q 3056 4750 3426 4639 
Q 3797 4528 4122 4306 
z
" transform="scale(0.015625)"/>
      <path id="DejaVuSans-64" d="M 2906 2969 
L 2906 4863 
L 3481 4863 
L 3481 0 
L 2906 0 
L 2906 525 
Q 2725 213 2448 61 
Q 2172 -91 1784 -91 
Q 1150 -91 751 415 
Q 353 922 353 1747 
Q 353 2572 751 3078 
Q 1150 3584 1784 3584 
Q 2172 3584 2448 3432 
Q 2725 3281 2906 2969 
z
M 947 1747 
Q 947 1113 1208 752 
Q 1469 391 1925 391 
Q 2381 391 2643 752 
Q 2906 1113 2906 1747 
Q 2906 2381 2643 2742 
Q 2381 3103 1925 3103 
Q 1469 3103 1208 2742 
Q 947 2381 947 1747 
z
" transform="scale(0.015625)"/>
     </defs>
     <use xlink:href="#DejaVuSans-45"/>
     <use xlink:href="#DejaVuSans-6c" x="63.183594"/>
     <use xlink:href="#DejaVuSans-65" x="90.966797"/>
     <use xlink:href="#DejaVuSans-76" x="152.490234"/>
     <use xlink:href="#DejaVuSans-61" x="211.669922"/>
     <use xlink:href="#DejaVuSans-74" x="272.949219"/>
     <use xlink:href="#DejaVuSans-69" x="312.158203"/>
     <use xlink:href="#DejaVuSans-6f" x="339.941406"/>
     <use xlink:href="#DejaVuSans-6e" x="401.123047"/>
     <use xlink:href="#DejaVuSans-20" x="464.501953"/>
     <use xlink:href="#DejaVuSans-44" x="496.289062"/>
     <use xlink:href="#DejaVuSans-69" x="573.291016"/>
     <use xlink:href="#DejaVuSans-66" x="601.074219"/>
     <use xlink:href="#DejaVuSans-66" x="636.279297"/>
     <use xlink:href="#DejaVuSans-65" x="671.484375"/>
     <use xlink:href="#DejaVuSans-72" x="733.007812"/>
     <use xlink:href="#DejaVuSans-65" x="771.871094"/>
     <use xlink:href="#DejaVuSans-6e" x="833.394531"/>
     <use xlink:href="#DejaVuSans-63" x="896.773438"/>
     <use xlink:href="#DejaVuSans-65" x="951.753906"/>
     <use xlink:href="#DejaVuSans-20" x="1013.277344"/>
     <use xlink:href="#DejaVuSans-62" x="1045.064453"/>
     <use xlink:href="#DejaVuSans-79" x="1108.541016"/>
     <use xlink:href="#DejaVuSans-20" x="1167.720703"/>
     <use xlink:href="#DejaVuSans-43" x="1199.507812"/>
     <use xlink:href="#DejaVuSans-6f" x="1269.332031"/>
     <use xlink:href="#DejaVuSans-6e" x="1330.513672"/>
     <use xlink:href="#DejaVuSans-64" x="1393.892578"/>
     <use xlink:href="#DejaVuSans-69" x="1457.369141"/>
     <use xlink:href="#DejaVuSans-74" x="1485.152344"/>
     <use xlink:href="#DejaVuSans-69" x="1524.361328"/>
     <use xlink:href="#DejaVuSans-6f" x="1552.144531"/>
     <use xlink:href="#DejaVuSans-6e" x="1613.326172"/>
    </g>
   </g>
   <g id="legend_1">
    <g id="patch_7">
     <path d="M 54.765 53.838125 
L 106.485313 53.838125 
Q 108.485313 53.838125 108.485313 51.838125 
L 108.485313 33.16 
Q 108.485313 31.16 106.485313 31.16 
L 54.765 31.16 
Q 52.765 31.16 52.765 33.16 
L 52.765 51.838125 
Q 52.765 53.838125 54.765 53.838125 
z
" style="fill: #ffffff; opacity: 0.8; stroke: #cccccc; stroke-linejoin: miter"/>
    </g>
    <g id="text_16">
     <!-- Condition -->
     <g transform="translate(56.765 42.758437) scale(0.1 -0.1)">
      <use xlink:href="#DejaVuSans-43"/>
      <use xlink:href="#DejaVuSans-6f" x="69.824219"/>
      <use xlink:href="#DejaVuSans-6e" x="131.005859"/>
      <use xlink:href="#DejaVuSans-64" x="194.384766"/>
      <use xlink:href="#DejaVuSans-69" x="257.861328"/>
      <use xlink:href="#DejaVuSans-74" x="285.644531"/>
      <use xlink:href="#DejaVuSans-69" x="324.853516"/>
      <use xlink:href="#DejaVuSans-6f" x="352.636719"/>
      <use xlink:href="#DejaVuSans-6e" x="413.818359"/>
     </g>
    </g>
   </g>
  </g>
 </g>
 <defs>
  <clipPath id="p5dba7ad610">
   <rect x="47.765" y="26.16" width="402.235" height="277.48"/>
  </clipPath>
 </defs>
</svg>
