<?xml version="1.0" encoding="utf-8" standalone="no"?>
<!DOCTYPE svg PUBLIC "-//W3C//DTD SVG 1.1//EN"
  "http://www.w3.org/Graphics/SVG/1.1/DTD/svg11.dtd">
<svg xmlns:xlink="http://www.w3.org/1999/xlink" width="424.533437pt" height="423.89pt" viewBox="0 0 424.533437 423.89" xmlns="http://www.w3.org/2000/svg" version="1.1">
 <metadata>
  <rdf:RDF xmlns:dc="http://purl.org/dc/elements/1.1/" xmlns:cc="http://creativecommons.org/ns#" xmlns:rdf="http://www.w3.org/1999/02/22-rdf-syntax-ns#">
   <cc:Work>
    <dc:type rdf:resource="http://purl.org/dc/dcmitype/StillImage"/>
    <dc:date>2026-07-16T10:44:36.121896</dc:date>
    <dc:format>image/svg+xml</dc:format>
    <dc:creator>
     <cc:Agent>
      <dc:title>Matplotlib v3.9.4, https://matplotlib.org/</dc:title>
     </cc:Agent>
    </dc:creator>
   </cc:Work>
  </rdf:RDF>
 </metadata>
 <defs>
  <style type="text/css">*{stroke-linejoin: round; stroke-linecap: butt}</style>
 </defs>
 <g id="figure_1">
  <g id="patch_1">
   <path d="M -0 423.89 
L 424.533437 423.89 
L 424.533437 0 
L -0 0 
z
" style="fill: #ffffff"/>
  </g>
  <g id="axes_1">
   <g id="patch_2">
    <path d="M 50.918438 384.398125 
L 417.333437 384.398125 
L 417.333437 22.318125 
L 50.918438 22.318125 
z
" style="fill: #ffffff"/>
   </g>
   <g id="PolyCollection_1">
    <path d="M 67.573665 38.776307 
L 67.573665 133.480526 
L 70.938357 133.969724 
L 74.30305 134.455216 
L 77.667742 134.253403 
L 81.032434 133.877091 
L 84.397127 133.623515 
L 87.761819 133.741412 
L 91.126511 134.658089 
L 94.491204 135.009458 
L 97.855896 135.170289 
L 101.220589 135.264129 
L 104.585281 135.76786 
L 107.949973 136.323365 
L 111.314666 136.966527 
L 114.679358 137.258785 
L 118.04405 137.793666 
L 121.408743 138.606754 
L 124.773435 139.216547 
L 128.138128 139.495479 
L 131.50282 140.50343 
L 134.867512 140.722718 
L 138.232205 140.97568 
L 141.596897 141.509469 
L 144.961589 142.054627 
L 148.326282 142.588508 
L 151.690974 143.107366 
L 155.055667 143.640909 
L 158.420359 143.939664 
L 161.785051 144.717615 
L 165.149744 145.46868 
L 168.514436 146.494454 
L 171.879129 147.40312 
L 175.243821 147.937076 
L 178.608513 148.90576 
L 181.973206 149.912251 
L 185.337898 151.133818 
L 188.70259 152.359469 
L 192.067283 153.5916 
L 195.431975 154.900199 
L 198.796668 156.044499 
L 202.16136 157.257144 
L 205.526052 158.382941 
L 208.890745 159.289872 
L 212.255437 160.97967 
L 215.620129 162.540384 
L 218.984822 164.252745 
L 222.349514 166.069632 
L 225.714207 167.843096 
L 229.078899 169.358585 
L 232.443591 171.379331 
L 235.808284 173.163356 
L 239.172976 174.936954 
L 242.537668 176.704507 
L 245.902361 178.459262 
L 249.267053 179.586453 
L 252.631746 181.349072 
L 255.996438 183.467147 
L 259.36113 185.110572 
L 262.725823 187.032536 
L 266.090515 188.926602 
L 269.455207 190.509725 
L 272.8199 191.856194 
L 276.184592 193.683259 
L 279.549285 195.76305 
L 282.913977 197.928582 
L 286.278669 199.829909 
L 289.643362 201.472486 
L 293.008054 203.24912 
L 296.372746 205.022354 
L 299.737439 207.558511 
L 303.102131 209.720043 
L 306.466824 211.629903 
L 309.831516 213.432324 
L 313.196208 215.022791 
L 316.560901 216.613258 
L 319.925593 218.203726 
L 323.290286 220.171305 
L 326.654978 222.342586 
L 330.01967 224.513867 
L 333.384363 226.685147 
L 336.749055 228.711901 
L 340.113747 230.390049 
L 343.47844 232.068196 
L 346.843132 233.746344 
L 350.207825 235.757081 
L 353.572517 238.031988 
L 356.937209 240.306895 
L 360.301902 242.260341 
L 363.666594 244.298295 
L 367.031286 246.542267 
L 370.395979 248.78624 
L 373.760671 251.030212 
L 377.125364 253.274184 
L 380.490056 255.518156 
L 383.854748 257.75297 
L 387.219441 259.987402 
L 390.584133 262.023393 
L 393.948825 264.157299 
L 397.313518 266.139071 
L 400.67821 268.070491 
L 400.67821 85.574157 
L 400.67821 85.574157 
L 397.313518 86.077054 
L 393.948825 86.579952 
L 390.584133 87.082849 
L 387.219441 87.585747 
L 383.854748 88.088644 
L 380.490056 88.591542 
L 377.125364 88.847603 
L 373.760671 88.772867 
L 370.395979 88.701423 
L 367.031286 88.757361 
L 363.666594 89.523892 
L 360.301902 89.793707 
L 356.937209 89.412893 
L 353.572517 89.770959 
L 350.207825 90.214446 
L 346.843132 90.657933 
L 343.47844 91.10142 
L 340.113747 91.416674 
L 336.749055 91.526941 
L 333.384363 91.639669 
L 330.01967 91.753765 
L 326.654978 92.056995 
L 323.290286 92.503036 
L 319.925593 92.950714 
L 316.560901 93.244669 
L 313.196208 93.187841 
L 309.831516 93.237857 
L 306.466824 93.415343 
L 303.102131 93.696026 
L 299.737439 93.388858 
L 296.372746 93.407262 
L 293.008054 93.303209 
L 289.643362 93.040571 
L 286.278669 93.120655 
L 282.913977 93.225868 
L 279.549285 93.097516 
L 276.184592 93.322487 
L 272.8199 93.537727 
L 269.455207 93.647664 
L 266.090515 93.757601 
L 262.725823 93.852815 
L 259.36113 93.971386 
L 255.996438 93.348828 
L 252.631746 92.724142 
L 249.267053 92.099455 
L 245.902361 91.60059 
L 242.537668 92.186208 
L 239.172976 91.66924 
L 235.808284 91.74353 
L 232.443591 91.345995 
L 229.078899 91.223201 
L 225.714207 91.125685 
L 222.349514 90.4979 
L 218.984822 91.140081 
L 215.620129 90.507331 
L 212.255437 89.836843 
L 208.890745 88.762875 
L 205.526052 88.061574 
L 202.16136 87.654971 
L 198.796668 86.951654 
L 195.431975 86.674875 
L 192.067283 86.123672 
L 188.70259 85.488632 
L 185.337898 84.789445 
L 181.973206 84.329222 
L 178.608513 83.481375 
L 175.243821 82.829257 
L 171.879129 81.45125 
L 168.514436 80.750589 
L 165.149744 80.067571 
L 161.785051 79.033143 
L 158.420359 77.990247 
L 155.055667 77.170243 
L 151.690974 76.047535 
L 148.326282 74.88684 
L 144.961589 73.850115 
L 141.596897 72.776895 
L 138.232205 71.389545 
L 134.867512 69.827232 
L 131.50282 68.463653 
L 128.138128 67.459301 
L 124.773435 66.141596 
L 121.408743 65.370964 
L 118.04405 64.449561 
L 114.679358 62.980312 
L 111.314666 61.840695 
L 107.949973 60.740761 
L 104.585281 59.253671 
L 101.220589 57.170437 
L 97.855896 56.348032 
L 94.491204 54.415307 
L 91.126511 52.744891 
L 87.761819 50.465256 
L 84.397127 48.508409 
L 81.032434 46.208859 
L 77.667742 44.557026 
L 74.30305 42.420302 
L 70.938357 40.288678 
L 67.573665 38.776307 
z
" clip-path="url(#p3593a0acfc)" style="fill: #e22c1f; fill-opacity: 0.15"/>
   </g>
   <g id="PolyCollection_2">
    <path d="M 67.573665 54.949309 
L 67.573665 139.257547 
L 70.938357 140.198883 
L 74.30305 141.008887 
L 77.667742 141.886323 
L 81.032434 143.218719 
L 84.397127 144.322299 
L 87.761819 145.254532 
L 91.126511 146.55412 
L 94.491204 147.856668 
L 97.855896 149.069317 
L 101.220589 150.272731 
L 104.585281 151.364212 
L 107.949973 152.69306 
L 111.314666 153.150783 
L 114.679358 154.509257 
L 118.04405 155.98543 
L 121.408743 157.80701 
L 124.773435 159.346855 
L 128.138128 161.168263 
L 131.50282 162.721648 
L 134.867512 164.42764 
L 138.232205 166.1384 
L 141.596897 167.603557 
L 144.961589 169.50084 
L 148.326282 171.168735 
L 151.690974 172.836631 
L 155.055667 174.502868 
L 158.420359 176.10604 
L 161.785051 177.662956 
L 165.149744 179.670498 
L 168.514436 181.347833 
L 171.879129 183.418585 
L 175.243821 185.773198 
L 178.608513 188.002853 
L 181.973206 190.054312 
L 185.337898 192.256917 
L 188.70259 194.58992 
L 192.067283 196.707024 
L 195.431975 199.014033 
L 198.796668 201.378569 
L 202.16136 204.145952 
L 205.526052 206.911653 
L 208.890745 209.688382 
L 212.255437 211.994758 
L 215.620129 214.773376 
L 218.984822 217.367557 
L 222.349514 219.913267 
L 225.714207 222.4562 
L 229.078899 224.817827 
L 232.443591 227.542544 
L 235.808284 230.346393 
L 239.172976 233.141475 
L 242.537668 236.321915 
L 245.902361 238.693663 
L 249.267053 241.324981 
L 252.631746 244.159452 
L 255.996438 246.153599 
L 259.36113 248.198559 
L 262.725823 251.229079 
L 266.090515 253.98132 
L 269.455207 256.94703 
L 272.8199 259.395349 
L 276.184592 261.562069 
L 279.549285 264.429983 
L 282.913977 267.319684 
L 286.278669 270.429396 
L 289.643362 273.589714 
L 293.008054 276.750033 
L 296.372746 279.903271 
L 299.737439 283.051208 
L 303.102131 286.094699 
L 306.466824 289.043569 
L 309.831516 292.281538 
L 313.196208 295.515917 
L 316.560901 298.319493 
L 319.925593 301.104017 
L 323.290286 303.888469 
L 326.654978 306.526394 
L 330.01967 308.994505 
L 333.384363 311.462617 
L 336.749055 314.000258 
L 340.113747 316.78838 
L 343.47844 319.57249 
L 346.843132 322.354698 
L 350.207825 325.136906 
L 353.572517 328.054877 
L 356.937209 330.736131 
L 360.301902 333.620453 
L 363.666594 336.504776 
L 367.031286 339.389099 
L 370.395979 342.267947 
L 373.760671 345.079419 
L 377.125364 348.025972 
L 380.490056 350.912845 
L 383.854748 353.795995 
L 387.219441 356.676204 
L 390.584133 359.556412 
L 393.948825 362.365554 
L 397.313518 365.152749 
L 400.67821 367.939943 
L 400.67821 182.935523 
L 400.67821 182.935523 
L 397.313518 182.024401 
L 393.948825 181.049719 
L 390.584133 180.59239 
L 387.219441 179.925632 
L 383.854748 179.165674 
L 380.490056 178.405715 
L 377.125364 177.647614 
L 373.760671 176.894261 
L 370.395979 176.140909 
L 367.031286 175.387556 
L 363.666594 174.554799 
L 360.301902 173.398888 
L 356.937209 172.247388 
L 353.572517 171.095889 
L 350.207825 169.94439 
L 346.843132 169.078308 
L 343.47844 168.485333 
L 340.113747 167.892358 
L 336.749055 167.299382 
L 333.384363 166.706407 
L 330.01967 166.113432 
L 326.654978 165.520456 
L 323.290286 164.839159 
L 319.925593 164.24605 
L 316.560901 163.413352 
L 313.196208 162.514786 
L 309.831516 161.846912 
L 306.466824 161.413659 
L 303.102131 160.418451 
L 299.737439 159.257565 
L 296.372746 158.096679 
L 293.008054 157.05251 
L 289.643362 156.135187 
L 286.278669 155.227861 
L 282.913977 154.837951 
L 279.549285 154.498263 
L 276.184592 153.639638 
L 272.8199 152.781014 
L 269.455207 151.925194 
L 266.090515 151.067918 
L 262.725823 150.20678 
L 259.36113 149.340634 
L 255.996438 148.435177 
L 252.631746 147.381277 
L 249.267053 146.401017 
L 245.902361 145.387291 
L 242.537668 144.367858 
L 239.172976 143.340872 
L 235.808284 142.313886 
L 232.443591 141.232252 
L 229.078899 140.110795 
L 225.714207 138.99377 
L 222.349514 137.925118 
L 218.984822 137.00892 
L 215.620129 135.958599 
L 212.255437 134.864838 
L 208.890745 134.042156 
L 205.526052 132.976256 
L 202.16136 132.069261 
L 198.796668 131.057709 
L 195.431975 129.682299 
L 192.067283 128.698089 
L 188.70259 127.912309 
L 185.337898 126.490361 
L 181.973206 124.690996 
L 178.608513 123.554435 
L 175.243821 122.083044 
L 171.879129 120.769678 
L 168.514436 119.192967 
L 165.149744 117.904067 
L 161.785051 116.480725 
L 158.420359 115.07054 
L 155.055667 113.616142 
L 151.690974 111.558304 
L 148.326282 109.631983 
L 144.961589 108.037906 
L 141.596897 106.604371 
L 138.232205 104.970265 
L 134.867512 103.221871 
L 131.50282 100.895235 
L 128.138128 99.062883 
L 124.773435 96.817291 
L 121.408743 94.526004 
L 118.04405 91.904023 
L 114.679358 89.419711 
L 111.314666 87.172808 
L 107.949973 85.544345 
L 104.585281 83.291846 
L 101.220589 81.01842 
L 97.855896 78.691385 
L 94.491204 75.697861 
L 91.126511 72.880929 
L 87.761819 70.991196 
L 84.397127 68.374642 
L 81.032434 65.74924 
L 77.667742 63.506958 
L 74.30305 60.462146 
L 70.938357 57.602314 
L 67.573665 54.949309 
z
" clip-path="url(#p3593a0acfc)" style="fill: #2e33a6; fill-opacity: 0.15"/>
   </g>
   <g id="PolyCollection_3">
    <path d="M 67.573665 70.399894 
L 67.573665 170.771107 
L 70.938357 170.382219 
L 74.30305 170.314377 
L 77.667742 169.733518 
L 81.032434 169.712926 
L 84.397127 169.459285 
L 87.761819 169.19 
L 91.126511 168.965349 
L 94.491204 169.524587 
L 97.855896 169.982818 
L 101.220589 169.694042 
L 104.585281 169.542441 
L 107.949973 168.711396 
L 111.314666 168.682612 
L 114.679358 168.849041 
L 118.04405 169.030757 
L 121.408743 169.029895 
L 124.773435 169.151379 
L 128.138128 169.560894 
L 131.50282 170.439916 
L 134.867512 170.540957 
L 138.232205 170.93535 
L 141.596897 171.40252 
L 144.961589 172.334241 
L 148.326282 173.079513 
L 151.690974 173.824786 
L 155.055667 174.565905 
L 158.420359 175.315332 
L 161.785051 176.060604 
L 165.149744 176.506354 
L 168.514436 177.419023 
L 171.879129 177.727175 
L 175.243821 177.968845 
L 178.608513 178.938348 
L 181.973206 180.225878 
L 185.337898 180.998842 
L 188.70259 181.669931 
L 192.067283 182.323936 
L 195.431975 182.943353 
L 198.796668 183.550731 
L 202.16136 184.997569 
L 205.526052 186.103432 
L 208.890745 187.572445 
L 212.255437 189.405176 
L 215.620129 191.290845 
L 218.984822 192.368413 
L 222.349514 193.875444 
L 225.714207 195.294911 
L 229.078899 196.531171 
L 232.443591 197.671908 
L 235.808284 198.865975 
L 239.172976 200.261847 
L 242.537668 201.687475 
L 245.902361 203.748374 
L 249.267053 205.809274 
L 252.631746 207.497232 
L 255.996438 209.166956 
L 259.36113 210.797192 
L 262.725823 212.074879 
L 266.090515 213.323267 
L 269.455207 214.950667 
L 272.8199 217.039338 
L 276.184592 219.009242 
L 279.549285 220.218272 
L 282.913977 221.661907 
L 286.278669 223.912425 
L 289.643362 225.160848 
L 293.008054 226.71358 
L 296.372746 229.174727 
L 299.737439 230.796356 
L 303.102131 232.417986 
L 306.466824 234.049658 
L 309.831516 235.800307 
L 313.196208 237.737728 
L 316.560901 239.671126 
L 319.925593 241.782803 
L 323.290286 243.682123 
L 326.654978 245.481462 
L 330.01967 247.305102 
L 333.384363 248.835267 
L 336.749055 250.525774 
L 340.113747 252.301402 
L 343.47844 254.664221 
L 346.843132 257.027039 
L 350.207825 258.69946 
L 353.572517 260.240045 
L 356.937209 261.778576 
L 360.301902 263.545179 
L 363.666594 265.768293 
L 367.031286 267.991407 
L 370.395979 269.800215 
L 373.760671 271.58825 
L 377.125364 273.372939 
L 380.490056 275.317195 
L 383.854748 277.359636 
L 387.219441 279.397594 
L 390.584133 281.434726 
L 393.948825 283.471858 
L 397.313518 285.379105 
L 400.67821 286.779123 
L 400.67821 106.809143 
L 400.67821 106.809143 
L 397.313518 107.652952 
L 393.948825 107.802745 
L 390.584133 108.126928 
L 387.219441 108.678073 
L 383.854748 109.235031 
L 380.490056 109.79199 
L 377.125364 110.079519 
L 373.760671 109.945975 
L 370.395979 110.215699 
L 367.031286 110.620035 
L 363.666594 111.024372 
L 360.301902 111.434266 
L 356.937209 111.860195 
L 353.572517 112.286125 
L 350.207825 112.712055 
L 346.843132 113.137984 
L 343.47844 113.563914 
L 340.113747 113.989843 
L 336.749055 114.405126 
L 333.384363 114.81443 
L 330.01967 115.129025 
L 326.654978 115.389205 
L 323.290286 115.695922 
L 319.925593 116.489015 
L 316.560901 116.912634 
L 313.196208 117.339088 
L 309.831516 118.003455 
L 306.466824 118.167979 
L 303.102131 118.592116 
L 299.737439 119.001379 
L 296.372746 119.428814 
L 293.008054 120.032581 
L 289.643362 120.502032 
L 286.278669 120.701122 
L 282.913977 121.364348 
L 279.549285 121.524446 
L 276.184592 121.522488 
L 272.8199 121.035985 
L 269.455207 120.620747 
L 266.090515 120.826283 
L 262.725823 120.609452 
L 259.36113 120.388673 
L 255.996438 120.416204 
L 252.631746 120.996875 
L 249.267053 121.24012 
L 245.902361 121.297144 
L 242.537668 121.089544 
L 239.172976 120.887009 
L 235.808284 120.610087 
L 232.443591 119.882929 
L 229.078899 119.222997 
L 225.714207 119.547452 
L 222.349514 119.572104 
L 218.984822 118.675519 
L 215.620129 118.037222 
L 212.255437 118.062237 
L 208.890745 117.685399 
L 205.526052 117.05138 
L 202.16136 116.492184 
L 198.796668 116.254646 
L 195.431975 116.039335 
L 192.067283 115.585308 
L 188.70259 114.355214 
L 185.337898 114.144567 
L 181.973206 113.288515 
L 178.608513 112.800326 
L 175.243821 111.757353 
L 171.879129 110.709976 
L 168.514436 110.130203 
L 165.149744 109.110594 
L 161.785051 108.131269 
L 158.420359 107.267444 
L 155.055667 106.405813 
L 151.690974 105.382487 
L 148.326282 104.145098 
L 144.961589 103.118539 
L 141.596897 101.847027 
L 138.232205 100.266775 
L 134.867512 99.442126 
L 131.50282 97.921842 
L 128.138128 96.453133 
L 124.773435 95.183967 
L 121.408743 94.096136 
L 118.04405 92.752974 
L 114.679358 91.111079 
L 111.314666 89.480928 
L 107.949973 87.850777 
L 104.585281 86.334914 
L 101.220589 85.30371 
L 97.855896 83.448037 
L 94.491204 82.165898 
L 91.126511 81.065468 
L 87.761819 79.986521 
L 84.397127 78.793272 
L 81.032434 76.822088 
L 77.667742 75.724316 
L 74.30305 74.089316 
L 70.938357 72.091515 
L 67.573665 70.399894 
z
" clip-path="url(#p3593a0acfc)" style="fill: #e5a09c; fill-opacity: 0.15"/>
   </g>
   <g id="matplotlib.axis_1">
    <g id="xtick_1">
     <g id="line2d_1">
      <defs>
       <path id="m86c81d61c9" d="M 0 0 
L 0 3.5 
" style="stroke: #000000; stroke-width: 0.8"/>
      </defs>
      <g>
       <use xlink:href="#m86c81d61c9" x="51.210871" y="384.398125" style="stroke: #000000; stroke-width: 0.8"/>
      </g>
     </g>
     <g id="text_1">
      <text style="font: 10px 'DejaVu Sans', 'Bitstream Vera Sans', 'Computer Modern Sans Serif', 'Lucida Grande', 'Verdana', 'Geneva', 'Lucid', 'Arial', 'Helvetica', 'Avant Garde', sans-serif; text-anchor: middle" x="51.210871" y="398.996562" transform="rotate(-0 51.210871 398.996562)">0</text>
     </g>
    </g>
    <g id="xtick_2">
     <g id="line2d_2">
      <g>
       <use xlink:href="#m86c81d61c9" x="92.953177" y="384.398125" style="stroke: #000000; stroke-width: 0.8"/>
      </g>
     </g>
     <g id="text_2">
      <text style="font: 10px 'DejaVu Sans', 'Bitstream Vera Sans', 'Computer Modern Sans Serif', 'Lucida Grande', 'Verdana', 'Geneva', 'Lucid', 'Arial', 'Helvetica', 'Avant Garde', sans-serif; text-anchor: middle" x="92.953177" y="398.996562" transform="rotate(-0 92.953177 398.996562)">500</text>
     </g>
    </g>
    <g id="xtick_3">
     <g id="line2d_3">
      <g>
       <use xlink:href="#m86c81d61c9" x="134.695483" y="384.398125" style="stroke: #000000; stroke-width: 0.8"/>
      </g>
     </g>
     <g id="text_3">
      <text style="font: 10px 'DejaVu Sans', 'Bitstream Vera Sans', 'Computer Modern Sans Serif', 'Lucida Grande', 'Verdana', 'Geneva', 'Lucid', 'Arial', 'Helvetica', 'Avant Garde', sans-serif; text-anchor: middle" x="134.695483" y="398.996562" transform="rotate(-0 134.695483 398.996562)">1000</text>
     </g>
    </g>
    <g id="xtick_4">
     <g id="line2d_4">
      <g>
       <use xlink:href="#m86c81d61c9" x="176.437789" y="384.398125" style="stroke: #000000; stroke-width: 0.8"/>
      </g>
     </g>
     <g id="text_4">
      <text style="font: 10px 'DejaVu Sans', 'Bitstream Vera Sans', 'Computer Modern Sans Serif', 'Lucida Grande', 'Verdana', 'Geneva', 'Lucid', 'Arial', 'Helvetica', 'Avant Garde', sans-serif; text-anchor: middle" x="176.437789" y="398.996562" transform="rotate(-0 176.437789 398.996562)">1500</text>
     </g>
    </g>
    <g id="xtick_5">
     <g id="line2d_5">
      <g>
       <use xlink:href="#m86c81d61c9" x="218.180094" y="384.398125" style="stroke: #000000; stroke-width: 0.8"/>
      </g>
     </g>
     <g id="text_5">
      <text style="font: 10px 'DejaVu Sans', 'Bitstream Vera Sans', 'Computer Modern Sans Serif', 'Lucida Grande', 'Verdana', 'Geneva', 'Lucid', 'Arial', 'Helvetica', 'Avant Garde', sans-serif; text-anchor: middle" x="218.180094" y="398.996562" transform="rotate(-0 218.180094 398.996562)">2000</text>
     </g>
    </g>
    <g id="xtick_6">
     <g id="line2d_6">
      <g>
       <use xlink:href="#m86c81d61c9" x="259.9224" y="384.398125" style="stroke: #000000; stroke-width: 0.8"/>
      </g>
     </g>
     <g id="text_6">
      <text style="font: 10px 'DejaVu Sans', 'Bitstream Vera Sans', 'Computer Modern Sans Serif', 'Lucida Grande', 'Verdana', 'Geneva', 'Lucid', 'Arial', 'Helvetica', 'Avant Garde', sans-serif; text-anchor: middle" x="259.9224" y="398.996562" transform="rotate(-0 259.9224 398.996562)">2500</text>
     </g>
    </g>
    <g id="xtick_7">
     <g id="line2d_7">
      <g>
       <use xlink:href="#m86c81d61c9" x="301.664706" y="384.398125" style="stroke: #000000; stroke-width: 0.8"/>
      </g>
     </g>
     <g id="text_7">
      <text style="font: 10px 'DejaVu Sans', 'Bitstream Vera Sans', 'Computer Modern Sans Serif', 'Lucida Grande', 'Verdana', 'Geneva', 'Lucid', 'Arial', 'Helvetica', 'Avant Garde', sans-serif; text-anchor: middle" x="301.664706" y="398.996562" transform="rotate(-0 301.664706 398.996562)">3000</text>
     </g>
    </g>
    <g id="xtick_8">
     <g id="line2d_8">
      <g>
       <use xlink:href="#m86c81d61c9" x="343.407012" y="384.398125" style="stroke: #000000; stroke-width: 0.8"/>
      </g>
     </g>
     <g id="text_8">
      <text style="font: 10px 'DejaVu Sans', 'Bitstream Vera Sans', 'Computer Modern Sans Serif', 'Lucida Grande', 'Verdana', 'Geneva', 'Lucid', 'Arial', 'Helvetica', 'Avant Garde', sans-serif; text-anchor: middle" x="343.407012" y="398.996562" transform="rotate(-0 343.407012 398.996562)">3500</text>
     </g>
    </g>
    <g id="xtick_9">
     <g id="line2d_9">
      <g>
       <use xlink:href="#m86c81d61c9" x="385.149317" y="384.398125" style="stroke: #000000; stroke-width: 0.8"/>
      </g>
     </g>
     <g id="text_9">
      <text style="font: 10px 'DejaVu Sans', 'Bitstream Vera Sans', 'Computer Modern Sans Serif', 'Lucida Grande', 'Verdana', 'Geneva', 'Lucid', 'Arial', 'Helvetica', 'Avant Garde', sans-serif; text-anchor: middle" x="385.149317" y="398.996562" transform="rotate(-0 385.149317 398.996562)">4000</text>
     </g>
    </g>
    <g id="text_10">
     <text style="font: 12px 'DejaVu Sans', 'Bitstream Vera Sans', 'Computer Modern Sans Serif', 'Lucida Grande', 'Verdana', 'Geneva', 'Lucid', 'Arial', 'Helvetica', 'Avant Garde', sans-serif; text-anchor: middle" x="234.125937" y="414.194375" transform="rotate(-0 234.125937 414.194375)">Frequency (Hz)</text>
    </g>
   </g>
   <g id="matplotlib.axis_2">
    <g id="ytick_1">
     <g id="line2d_10">
      <defs>
       <path id="m3827fcdd8b" d="M 0 0 
L -3.5 0 
" style="stroke: #000000; stroke-width: 0.8"/>
      </defs>
      <g>
       <use xlink:href="#m3827fcdd8b" x="50.918438" y="346.979448" style="stroke: #000000; stroke-width: 0.8"/>
      </g>
     </g>
     <g id="text_11">
      <text style="font: 10px 'DejaVu Sans', 'Bitstream Vera Sans', 'Computer Modern Sans Serif', 'Lucida Grande', 'Verdana', 'Geneva', 'Lucid', 'Arial', 'Helvetica', 'Avant Garde', sans-serif; text-anchor: end" x="43.918438" y="350.778667" transform="rotate(-0 43.918438 350.778667)">−15</text>
     </g>
    </g>
    <g id="ytick_2">
     <g id="line2d_11">
      <g>
       <use xlink:href="#m3827fcdd8b" x="50.918438" y="266.546526" style="stroke: #000000; stroke-width: 0.8"/>
      </g>
     </g>
     <g id="text_12">
      <text style="font: 10px 'DejaVu Sans', 'Bitstream Vera Sans', 'Computer Modern Sans Serif', 'Lucida Grande', 'Verdana', 'Geneva', 'Lucid', 'Arial', 'Helvetica', 'Avant Garde', sans-serif; text-anchor: end" x="43.918438" y="270.345745" transform="rotate(-0 43.918438 270.345745)">−10</text>
     </g>
    </g>
    <g id="ytick_3">
     <g id="line2d_12">
      <g>
       <use xlink:href="#m3827fcdd8b" x="50.918438" y="186.113604" style="stroke: #000000; stroke-width: 0.8"/>
      </g>
     </g>
     <g id="text_13">
      <text style="font: 10px 'DejaVu Sans', 'Bitstream Vera Sans', 'Computer Modern Sans Serif', 'Lucida Grande', 'Verdana', 'Geneva', 'Lucid', 'Arial', 'Helvetica', 'Avant Garde', sans-serif; text-anchor: end" x="43.918438" y="189.912822" transform="rotate(-0 43.918438 189.912822)">−5</text>
     </g>
    </g>
    <g id="ytick_4">
     <g id="line2d_13">
      <g>
       <use xlink:href="#m3827fcdd8b" x="50.918438" y="105.680682" style="stroke: #000000; stroke-width: 0.8"/>
      </g>
     </g>
     <g id="text_14">
      <text style="font: 10px 'DejaVu Sans', 'Bitstream Vera Sans', 'Computer Modern Sans Serif', 'Lucida Grande', 'Verdana', 'Geneva', 'Lucid', 'Arial', 'Helvetica', 'Avant Garde', sans-serif; text-anchor: end" x="43.918438" y="109.4799" transform="rotate(-0 43.918438 109.4799)">0</text>
     </g>
    </g>
    <g id="ytick_5">
     <g id="line2d_14">
      <g>
       <use xlink:href="#m3827fcdd8b" x="50.918438" y="25.24776" style="stroke: #000000; stroke-width: 0.8"/>
      </g>
     </g>
     <g id="text_15">
      <text style="font: 10px 'DejaVu Sans', 'Bitstream Vera Sans', 'Computer Modern Sans Serif', 'Lucida Grande', 'Verdana', 'Geneva', 'Lucid', 'Arial', 'Helvetica', 'Avant Garde', sans-serif; text-anchor: end" x="43.918438" y="29.046978" transform="rotate(-0 43.918438 29.046978)">5</text>
     </g>
    </g>
    <g id="text_16">
     <text style="font: 12px 'DejaVu Sans', 'Bitstream Vera Sans', 'Computer Modern Sans Serif', 'Lucida Grande', 'Verdana', 'Geneva', 'Lucid', 'Arial', 'Helvetica', 'Avant Garde', sans-serif; text-anchor: middle" x="16.318125" y="203.358125" transform="rotate(-90 16.318125 203.358125)">Predicted elevation − true elevation</text>
    </g>
   </g>
   <g id="line2d_15">
    <path d="M 67.573665 84.066254 
L 70.938357 85.021191 
L 74.30305 85.976129 
L 77.667742 86.931067 
L 81.032434 87.886004 
L 84.397127 88.840942 
L 87.761819 89.795879 
L 91.126511 90.750817 
L 94.491204 91.705754 
L 97.855896 92.660692 
L 101.220589 93.615629 
L 104.585281 94.570567 
L 107.949973 95.525504 
L 111.314666 96.480442 
L 114.679358 97.435379 
L 118.04405 98.390317 
L 121.408743 99.345254 
L 124.773435 100.300192 
L 128.138128 101.25513 
L 131.50282 102.210067 
L 134.867512 103.165005 
L 138.232205 104.119942 
L 141.596897 105.07488 
L 144.961589 106.029817 
L 148.326282 106.984755 
L 151.690974 107.939692 
L 155.055667 108.89463 
L 158.420359 109.849567 
L 161.785051 110.804505 
L 165.149744 111.759442 
L 168.514436 112.71438 
L 171.879129 113.669317 
L 175.243821 114.624255 
L 178.608513 115.579193 
L 181.973206 116.53413 
L 185.337898 117.489068 
L 188.70259 118.444005 
L 192.067283 119.398943 
L 195.431975 120.35388 
L 198.796668 121.308818 
L 202.16136 122.263755 
L 205.526052 123.218693 
L 208.890745 124.17363 
L 212.255437 125.128568 
L 215.620129 126.083505 
L 218.984822 127.038443 
L 222.349514 127.99338 
L 225.714207 128.948318 
L 229.078899 129.903256 
L 232.443591 130.858193 
L 235.808284 131.813131 
L 239.172976 132.768068 
L 242.537668 133.723006 
L 245.902361 134.677943 
L 249.267053 135.632881 
L 252.631746 136.587818 
L 255.996438 137.542756 
L 259.36113 138.497693 
L 262.725823 139.452631 
L 266.090515 140.407568 
L 269.455207 141.362506 
L 272.8199 142.317443 
L 276.184592 143.272381 
L 279.549285 144.227319 
L 282.913977 145.182256 
L 286.278669 146.137194 
L 289.643362 147.092131 
L 293.008054 148.047069 
L 296.372746 149.002006 
L 299.737439 149.956944 
L 303.102131 150.911881 
L 306.466824 151.866819 
L 309.831516 152.821756 
L 313.196208 153.776694 
L 316.560901 154.731631 
L 319.925593 155.686569 
L 323.290286 156.641506 
L 326.654978 157.596444 
L 330.01967 158.551381 
L 333.384363 159.506319 
L 336.749055 160.461257 
L 340.113747 161.416194 
L 343.47844 162.371132 
L 346.843132 163.326069 
L 350.207825 164.281007 
L 353.572517 165.235944 
L 356.937209 166.190882 
L 360.301902 167.145819 
L 363.666594 168.100757 
L 367.031286 169.055694 
L 370.395979 170.010632 
L 373.760671 170.965569 
L 377.125364 171.920507 
L 380.490056 172.875444 
L 383.854748 173.830382 
L 387.219441 174.78532 
L 390.584133 175.740257 
L 393.948825 176.695195 
L 397.313518 177.650132 
L 400.67821 178.60507 
" clip-path="url(#p3593a0acfc)" style="fill: none; stroke: #e22c1f; stroke-width: 2.25; stroke-linecap: square"/>
   </g>
   <g id="line2d_16">
    <path d="M 67.573665 100.296875 
L 70.938357 101.998208 
L 74.30305 103.699541 
L 77.667742 105.400873 
L 81.032434 107.102206 
L 84.397127 108.803538 
L 87.761819 110.504871 
L 91.126511 112.206203 
L 94.491204 113.907536 
L 97.855896 115.608868 
L 101.220589 117.310201 
L 104.585281 119.011533 
L 107.949973 120.712866 
L 111.314666 122.414198 
L 114.679358 124.115531 
L 118.04405 125.816864 
L 121.408743 127.518196 
L 124.773435 129.219529 
L 128.138128 130.920861 
L 131.50282 132.622194 
L 134.867512 134.323526 
L 138.232205 136.024859 
L 141.596897 137.726191 
L 144.961589 139.427524 
L 148.326282 141.128856 
L 151.690974 142.830189 
L 155.055667 144.531521 
L 158.420359 146.232854 
L 161.785051 147.934187 
L 165.149744 149.635519 
L 168.514436 151.336852 
L 171.879129 153.038184 
L 175.243821 154.739517 
L 178.608513 156.440849 
L 181.973206 158.142182 
L 185.337898 159.843514 
L 188.70259 161.544847 
L 192.067283 163.246179 
L 195.431975 164.947512 
L 198.796668 166.648844 
L 202.16136 168.350177 
L 205.526052 170.051509 
L 208.890745 171.752842 
L 212.255437 173.454175 
L 215.620129 175.155507 
L 218.984822 176.85684 
L 222.349514 178.558172 
L 225.714207 180.259505 
L 229.078899 181.960837 
L 232.443591 183.66217 
L 235.808284 185.363502 
L 239.172976 187.064835 
L 242.537668 188.766167 
L 245.902361 190.4675 
L 249.267053 192.168832 
L 252.631746 193.870165 
L 255.996438 195.571498 
L 259.36113 197.27283 
L 262.725823 198.974163 
L 266.090515 200.675495 
L 269.455207 202.376828 
L 272.8199 204.07816 
L 276.184592 205.779493 
L 279.549285 207.480825 
L 282.913977 209.182158 
L 286.278669 210.88349 
L 289.643362 212.584823 
L 293.008054 214.286155 
L 296.372746 215.987488 
L 299.737439 217.68882 
L 303.102131 219.390153 
L 306.466824 221.091486 
L 309.831516 222.792818 
L 313.196208 224.494151 
L 316.560901 226.195483 
L 319.925593 227.896816 
L 323.290286 229.598148 
L 326.654978 231.299481 
L 330.01967 233.000813 
L 333.384363 234.702146 
L 336.749055 236.403478 
L 340.113747 238.104811 
L 343.47844 239.806143 
L 346.843132 241.507476 
L 350.207825 243.208809 
L 353.572517 244.910141 
L 356.937209 246.611474 
L 360.301902 248.312806 
L 363.666594 250.014139 
L 367.031286 251.715471 
L 370.395979 253.416804 
L 373.760671 255.118136 
L 377.125364 256.819469 
L 380.490056 258.520801 
L 383.854748 260.222134 
L 387.219441 261.923466 
L 390.584133 263.624799 
L 393.948825 265.326131 
L 397.313518 267.027464 
L 400.67821 268.728797 
" clip-path="url(#p3593a0acfc)" style="fill: none; stroke: #2e33a6; stroke-width: 2.25; stroke-linecap: square"/>
   </g>
   <g id="line2d_17">
    <path d="M 67.573665 120.406843 
L 70.938357 121.158776 
L 74.30305 121.910709 
L 77.667742 122.662641 
L 81.032434 123.414574 
L 84.397127 124.166507 
L 87.761819 124.91844 
L 91.126511 125.670372 
L 94.491204 126.422305 
L 97.855896 127.174238 
L 101.220589 127.92617 
L 104.585281 128.678103 
L 107.949973 129.430036 
L 111.314666 130.181969 
L 114.679358 130.933901 
L 118.04405 131.685834 
L 121.408743 132.437767 
L 124.773435 133.1897 
L 128.138128 133.941632 
L 131.50282 134.693565 
L 134.867512 135.445498 
L 138.232205 136.197431 
L 141.596897 136.949363 
L 144.961589 137.701296 
L 148.326282 138.453229 
L 151.690974 139.205161 
L 155.055667 139.957094 
L 158.420359 140.709027 
L 161.785051 141.46096 
L 165.149744 142.212892 
L 168.514436 142.964825 
L 171.879129 143.716758 
L 175.243821 144.468691 
L 178.608513 145.220623 
L 181.973206 145.972556 
L 185.337898 146.724489 
L 188.70259 147.476422 
L 192.067283 148.228354 
L 195.431975 148.980287 
L 198.796668 149.73222 
L 202.16136 150.484152 
L 205.526052 151.236085 
L 208.890745 151.988018 
L 212.255437 152.739951 
L 215.620129 153.491883 
L 218.984822 154.243816 
L 222.349514 154.995749 
L 225.714207 155.747682 
L 229.078899 156.499614 
L 232.443591 157.251547 
L 235.808284 158.00348 
L 239.172976 158.755413 
L 242.537668 159.507345 
L 245.902361 160.259278 
L 249.267053 161.011211 
L 252.631746 161.763143 
L 255.996438 162.515076 
L 259.36113 163.267009 
L 262.725823 164.018942 
L 266.090515 164.770874 
L 269.455207 165.522807 
L 272.8199 166.27474 
L 276.184592 167.026673 
L 279.549285 167.778605 
L 282.913977 168.530538 
L 286.278669 169.282471 
L 289.643362 170.034403 
L 293.008054 170.786336 
L 296.372746 171.538269 
L 299.737439 172.290202 
L 303.102131 173.042134 
L 306.466824 173.794067 
L 309.831516 174.546 
L 313.196208 175.297933 
L 316.560901 176.049865 
L 319.925593 176.801798 
L 323.290286 177.553731 
L 326.654978 178.305664 
L 330.01967 179.057596 
L 333.384363 179.809529 
L 336.749055 180.561462 
L 340.113747 181.313394 
L 343.47844 182.065327 
L 346.843132 182.81726 
L 350.207825 183.569193 
L 353.572517 184.321125 
L 356.937209 185.073058 
L 360.301902 185.824991 
L 363.666594 186.576924 
L 367.031286 187.328856 
L 370.395979 188.080789 
L 373.760671 188.832722 
L 377.125364 189.584655 
L 380.490056 190.336587 
L 383.854748 191.08852 
L 387.219441 191.840453 
L 390.584133 192.592385 
L 393.948825 193.344318 
L 397.313518 194.096251 
L 400.67821 194.848184 
" clip-path="url(#p3593a0acfc)" style="fill: none; stroke: #e5a09c; stroke-width: 2.25; stroke-linecap: square"/>
   </g>
   <g id="line2d_18">
    <path d="M 50.918438 105.680682 
L 417.333437 105.680682 
" clip-path="url(#p3593a0acfc)" style="fill: none; stroke-dasharray: 2.96,1.28; stroke-dashoffset: 0; stroke: #000000; stroke-opacity: 0.6; stroke-width: 0.8"/>
   </g>
   <g id="patch_3">
    <path d="M 50.918438 384.398125 
L 50.918438 22.318125 
" style="fill: none; stroke: #000000; stroke-width: 0.8; stroke-linejoin: miter; stroke-linecap: square"/>
   </g>
   <g id="patch_4">
    <path d="M 417.333437 384.398125 
L 417.333437 22.318125 
" style="fill: none; stroke: #000000; stroke-width: 0.8; stroke-linejoin: miter; stroke-linecap: square"/>
   </g>
   <g id="patch_5">
    <path d="M 50.918438 384.398125 
L 417.333437 384.398125 
" style="fill: none; stroke: #000000; stroke-width: 0.8; stroke-linejoin: miter; stroke-linecap: square"/>
   </g>
   <g id="patch_6">
    <path d="M 50.918438 22.318125 
L 417.333437 22.318125 
" style="fill: none; stroke: #000000; stroke-width: 0.8; stroke-linejoin: miter; stroke-linecap: square"/>
   </g>
   <g id="text_17">
    <text style="font: 12px 'DejaVu Sans', 'Bitstream Vera Sans', 'Computer Modern Sans Serif', 'Lucida Grande', 'Verdana', 'Geneva', 'Lucid', 'Arial', 'Helvetica', 'Avant Garde', sans-serif; text-anchor: middle" x="234.125937" y="16.318125" transform="rotate(-0 234.125937 16.318125)">DNN elevation error vs. frequen (linear fit per condition)</text>
   </g>
   <g id="legend_1">
    <g id="patch_7">
     <path d="M 57.918438 379.398125 
L 117.629375 379.398125 
Q 119.629375 379.398125 119.629375 377.398125 
L 119.629375 319.685625 
Q 119.629375 317.685625 117.629375 317.685625 
L 57.918438 317.685625 
Q 55.918438 317.685625 55.918438 319.685625 
L 55.918438 377.398125 
Q 55.918438 379.398125 57.918438 379.398125 
z
" style="fill: #ffffff; opacity: 0.8; stroke: #cccccc; stroke-linejoin: miter"/>
    </g>
    <g id="text_18">
     <text style="font: 10px 'DejaVu Sans', 'Bitstream Vera Sans', 'Computer Modern Sans Serif', 'Lucida Grande', 'Verdana', 'Geneva', 'Lucid', 'Arial', 'Helvetica', 'Avant Garde', sans-serif; text-anchor: start" x="63.91375" y="329.284063" transform="rotate(-0 63.91375 329.284063)">Condition</text>
    </g>
    <g id="line2d_19">
     <path d="M 59.918438 340.462187 
L 69.918438 340.462187 
L 79.918438 340.462187 
" style="fill: none; stroke: #e22c1f; stroke-width: 2.25; stroke-linecap: square"/>
    </g>
    <g id="text_19">
     <text style="font: 10px 'DejaVu Sans', 'Bitstream Vera Sans', 'Computer Modern Sans Serif', 'Lucida Grande', 'Verdana', 'Geneva', 'Lucid', 'Arial', 'Helvetica', 'Avant Garde', sans-serif; text-anchor: start" x="87.918438" y="343.962187" transform="rotate(-0 87.918438 343.962187)">flute</text>
    </g>
    <g id="line2d_20">
     <path d="M 59.918438 355.140312 
L 69.918438 355.140312 
L 79.918438 355.140312 
" style="fill: none; stroke: #2e33a6; stroke-width: 2.25; stroke-linecap: square"/>
    </g>
    <g id="text_20">
     <text style="font: 10px 'DejaVu Sans', 'Bitstream Vera Sans', 'Computer Modern Sans Serif', 'Lucida Grande', 'Verdana', 'Geneva', 'Lucid', 'Arial', 'Helvetica', 'Avant Garde', sans-serif; text-anchor: start" x="87.918438" y="358.640312" transform="rotate(-0 87.918438 358.640312)">viola</text>
    </g>
    <g id="line2d_21">
     <path d="M 59.918438 369.818437 
L 69.918438 369.818437 
L 79.918438 369.818437 
" style="fill: none; stroke: #e5a09c; stroke-width: 2.25; stroke-linecap: square"/>
    </g>
    <g id="text_21">
     <text style="font: 10px 'DejaVu Sans', 'Bitstream Vera Sans', 'Computer Modern Sans Serif', 'Lucida Grande', 'Verdana', 'Geneva', 'Lucid', 'Arial', 'Helvetica', 'Avant Garde', sans-serif; text-anchor: start" x="87.918438" y="373.318437" transform="rotate(-0 87.918438 373.318437)">piano</text>
    </g>
   </g>
  </g>
 </g>
 <defs>
  <clipPath id="p3593a0acfc">
   <rect x="50.918438" y="22.318125" width="366.415" height="362.08"/>
  </clipPath>
 </defs>
</svg>
