<?xml version="1.0" encoding="utf-8" standalone="no"?>
<!DOCTYPE svg PUBLIC "-//W3C//DTD SVG 1.1//EN"
  "http://www.w3.org/Graphics/SVG/1.1/DTD/svg11.dtd">
<svg xmlns:xlink="http://www.w3.org/1999/xlink" width="424.533437pt" height="423.89pt" viewBox="0 0 424.533437 423.89" xmlns="http://www.w3.org/2000/svg" version="1.1">
 <metadata>
  <rdf:RDF xmlns:dc="http://purl.org/dc/elements/1.1/" xmlns:cc="http://creativecommons.org/ns#" xmlns:rdf="http://www.w3.org/1999/02/22-rdf-syntax-ns#">
   <cc:Work>
    <dc:type rdf:resource="http://purl.org/dc/dcmitype/StillImage"/>
    <dc:date>2026-04-27T13:58:32.824831</dc:date>
    <dc:format>image/svg+xml</dc:format>
    <dc:creator>
     <cc:Agent>
      <dc:title>Matplotlib v3.8.0, https://matplotlib.org/</dc:title>
     </cc:Agent>
    </dc:creator>
   </cc:Work>
  </rdf:RDF>
 </metadata>
 <defs>
  <style type="text/css">*{stroke-linejoin: round; stroke-linecap: butt}</style>
 </defs>
 <g id="figure_1">
  <g id="patch_1">
   <path d="M -0 423.89 
L 424.533437 423.89 
L 424.533437 0 
L -0 0 
z
" style="fill: #ffffff"/>
  </g>
  <g id="axes_1">
   <g id="patch_2">
    <path d="M 50.918438 384.398125 
L 417.333437 384.398125 
L 417.333437 22.318125 
L 50.918438 22.318125 
z
" style="fill: #ffffff"/>
   </g>
   <g id="PolyCollection_1">
    <path d="M 67.573665 39.582769 
L 67.573665 56.650204 
L 70.938357 58.790855 
L 74.30305 61.011456 
L 77.667742 63.143801 
L 81.032434 65.332446 
L 84.397127 67.585317 
L 87.761819 69.813815 
L 91.126511 72.091524 
L 94.491204 74.332715 
L 97.855896 76.522448 
L 101.220589 78.683666 
L 104.585281 80.84398 
L 107.949973 83.004021 
L 111.314666 85.16363 
L 114.679358 87.323803 
L 118.04405 89.484144 
L 121.408743 91.653996 
L 124.773435 93.8143 
L 128.138128 96.184099 
L 131.50282 98.507974 
L 134.867512 100.598946 
L 138.232205 102.812655 
L 141.596897 105.124096 
L 144.961589 107.351268 
L 148.326282 109.703383 
L 151.690974 112.007004 
L 155.055667 114.301678 
L 158.420359 116.602828 
L 161.785051 118.999963 
L 165.149744 121.344678 
L 168.514436 123.683819 
L 171.879129 126.192433 
L 175.243821 128.612535 
L 178.608513 130.951373 
L 181.973206 133.32532 
L 185.337898 135.747383 
L 188.70259 138.223935 
L 192.067283 140.547951 
L 195.431975 142.89978 
L 198.796668 145.431544 
L 202.16136 147.86572 
L 205.526052 150.327391 
L 208.890745 152.771625 
L 212.255437 155.219598 
L 215.620129 157.663602 
L 218.984822 160.107141 
L 222.349514 162.55068 
L 225.714207 165.010631 
L 229.078899 167.442469 
L 232.443591 169.939723 
L 235.808284 172.441953 
L 239.172976 174.94595 
L 242.537668 177.358708 
L 245.902361 179.765172 
L 249.267053 182.169744 
L 252.631746 184.593614 
L 255.996438 187.121316 
L 259.36113 189.562771 
L 262.725823 192.080152 
L 266.090515 194.597533 
L 269.455207 197.112249 
L 272.8199 199.626859 
L 276.184592 202.144374 
L 279.549285 204.675357 
L 282.913977 207.206121 
L 286.278669 209.735332 
L 289.643362 212.264542 
L 293.008054 214.790398 
L 296.372746 217.325634 
L 299.737439 219.859572 
L 303.102131 222.39068 
L 306.466824 224.890301 
L 309.831516 227.320542 
L 313.196208 229.802836 
L 316.560901 232.31258 
L 319.925593 234.828857 
L 323.290286 237.343191 
L 326.654978 239.863614 
L 330.01967 242.371079 
L 333.384363 244.886288 
L 336.749055 247.401498 
L 340.113747 249.916707 
L 343.47844 252.431917 
L 346.843132 254.947126 
L 350.207825 257.469949 
L 353.572517 260.035363 
L 356.937209 262.590547 
L 360.301902 265.095652 
L 363.666594 267.600378 
L 367.031286 270.105105 
L 370.395979 272.609832 
L 373.760671 275.114558 
L 377.125364 277.619285 
L 380.490056 280.124012 
L 383.854748 282.721061 
L 387.219441 285.3465 
L 390.584133 287.8984 
L 393.948825 290.428068 
L 397.313518 292.954895 
L 400.67821 295.481723 
L 400.67821 261.486184 
L 400.67821 261.486184 
L 397.313518 259.316358 
L 393.948825 257.146532 
L 390.584133 254.976706 
L 387.219441 252.807695 
L 383.854748 250.638972 
L 380.490056 248.525883 
L 377.125364 246.418135 
L 373.760671 244.310467 
L 370.395979 242.202799 
L 367.031286 240.095131 
L 363.666594 237.97645 
L 360.301902 235.797403 
L 356.937209 233.683271 
L 353.572517 231.572705 
L 350.207825 229.46245 
L 346.843132 227.352195 
L 343.47844 225.241993 
L 340.113747 223.192955 
L 336.749055 221.052201 
L 333.384363 218.975675 
L 330.01967 216.847517 
L 326.654978 214.68601 
L 323.290286 212.535374 
L 319.925593 210.442951 
L 316.560901 208.283388 
L 313.196208 206.13808 
L 309.831516 204.070171 
L 306.466824 201.940097 
L 303.102131 199.812013 
L 299.737439 197.684223 
L 296.372746 195.593684 
L 293.008054 193.525404 
L 289.643362 191.457552 
L 286.278669 189.348729 
L 282.913977 187.15347 
L 279.549285 184.908517 
L 276.184592 182.802779 
L 272.8199 180.648523 
L 269.455207 178.516427 
L 266.090515 176.384332 
L 262.725823 174.252041 
L 259.36113 172.038947 
L 255.996438 169.825853 
L 252.631746 167.734303 
L 249.267053 165.522118 
L 245.902361 163.42011 
L 242.537668 161.317797 
L 239.172976 159.213967 
L 235.808284 157.077564 
L 232.443591 154.785707 
L 229.078899 152.621751 
L 225.714207 150.349713 
L 222.349514 148.054215 
L 218.984822 145.810231 
L 215.620129 143.69889 
L 212.255437 141.357349 
L 208.890745 139.193238 
L 205.526052 136.915141 
L 202.16136 134.596074 
L 198.796668 132.324172 
L 195.431975 130.10664 
L 192.067283 127.889815 
L 188.70259 125.757512 
L 185.337898 123.507343 
L 181.973206 121.202113 
L 178.608513 118.8603 
L 175.243821 116.568918 
L 171.879129 114.263902 
L 168.514436 111.946559 
L 165.149744 109.5696 
L 161.785051 107.138319 
L 158.420359 104.774406 
L 155.055667 102.32324 
L 151.690974 100.102062 
L 148.326282 98.001267 
L 144.961589 95.63465 
L 141.596897 93.331399 
L 138.232205 90.881605 
L 134.867512 88.435763 
L 131.50282 86.050491 
L 128.138128 83.507501 
L 124.773435 81.043371 
L 121.408743 78.664573 
L 118.04405 76.353311 
L 114.679358 74.043223 
L 111.314666 71.639312 
L 107.949973 69.14306 
L 104.585281 66.646808 
L 101.220589 64.174129 
L 97.855896 61.797883 
L 94.491204 59.329035 
L 91.126511 57.005149 
L 87.761819 54.523658 
L 84.397127 52.046125 
L 81.032434 49.515614 
L 77.667742 47.045204 
L 74.30305 44.554979 
L 70.938357 42.054501 
L 67.573665 39.582769 
z
" clip-path="url(#pba7cae8772)" style="fill: #e22c1f; fill-opacity: 0.15"/>
   </g>
   <g id="PolyCollection_2">
    <path d="M 67.573665 102.659979 
L 67.573665 119.951772 
L 70.938357 121.43556 
L 74.30305 122.914538 
L 77.667742 124.393517 
L 81.032434 125.875963 
L 84.397127 127.524746 
L 87.761819 129.183462 
L 91.126511 130.825716 
L 94.491204 132.448046 
L 97.855896 134.051659 
L 101.220589 135.735445 
L 104.585281 137.378726 
L 107.949973 138.899368 
L 111.314666 140.522947 
L 114.679358 142.162601 
L 118.04405 143.802545 
L 121.408743 145.438764 
L 124.773435 147.085309 
L 128.138128 148.725629 
L 131.50282 150.33339 
L 134.867512 151.991957 
L 138.232205 153.734119 
L 141.596897 155.539721 
L 144.961589 157.141414 
L 148.326282 158.833113 
L 151.690974 160.542696 
L 155.055667 162.252062 
L 158.420359 163.985571 
L 161.785051 165.842506 
L 165.149744 167.541723 
L 168.514436 169.273419 
L 171.879129 171.112138 
L 175.243821 172.909697 
L 178.608513 174.681883 
L 181.973206 176.470578 
L 185.337898 178.290837 
L 188.70259 180.072551 
L 192.067283 181.816671 
L 195.431975 183.701623 
L 198.796668 185.507891 
L 202.16136 187.292823 
L 205.526052 189.085083 
L 208.890745 190.917097 
L 212.255437 192.72475 
L 215.620129 194.575695 
L 218.984822 196.570385 
L 222.349514 198.386496 
L 225.714207 200.190634 
L 229.078899 202.019564 
L 232.443591 203.850372 
L 235.808284 205.794314 
L 239.172976 207.666826 
L 242.537668 209.536407 
L 245.902361 211.435797 
L 249.267053 213.301718 
L 252.631746 215.197027 
L 255.996438 217.049882 
L 259.36113 218.891819 
L 262.725823 220.734918 
L 266.090515 222.627673 
L 269.455207 224.513132 
L 272.8199 226.469083 
L 276.184592 228.425033 
L 279.549285 230.380984 
L 282.913977 232.336935 
L 286.278669 234.292886 
L 289.643362 236.246495 
L 293.008054 238.150886 
L 296.372746 240.007022 
L 299.737439 241.882876 
L 303.102131 243.808285 
L 306.466824 245.75853 
L 309.831516 247.697892 
L 313.196208 249.637254 
L 316.560901 251.576595 
L 319.925593 253.513737 
L 323.290286 255.448544 
L 326.654978 257.38335 
L 330.01967 259.318156 
L 333.384363 261.181073 
L 336.749055 263.036323 
L 340.113747 265.03273 
L 343.47844 266.935666 
L 346.843132 268.809959 
L 350.207825 270.719446 
L 353.572517 272.702306 
L 356.937209 274.6835 
L 360.301902 276.571294 
L 363.666594 278.541901 
L 367.031286 280.511034 
L 370.395979 282.420967 
L 373.760671 284.32099 
L 377.125364 286.306471 
L 380.490056 288.301504 
L 383.854748 290.296143 
L 387.219441 292.251996 
L 390.584133 294.180806 
L 393.948825 296.112763 
L 397.313518 298.063619 
L 400.67821 300.001915 
L 400.67821 265.116877 
L 400.67821 265.116877 
L 397.313518 263.550686 
L 393.948825 261.987323 
L 390.584133 260.42396 
L 387.219441 258.8948 
L 383.854748 257.446632 
L 380.490056 255.998464 
L 377.125364 254.550295 
L 373.760671 253.02789 
L 370.395979 251.479445 
L 367.031286 249.931 
L 363.666594 248.382556 
L 360.301902 246.796647 
L 356.937209 245.187809 
L 353.572517 243.578971 
L 350.207825 241.970133 
L 346.843132 240.361888 
L 343.47844 238.755742 
L 340.113747 237.168774 
L 336.749055 235.707083 
L 333.384363 234.248153 
L 330.01967 232.789223 
L 326.654978 231.330293 
L 323.290286 229.816254 
L 319.925593 228.270274 
L 316.560901 226.723069 
L 313.196208 225.173432 
L 309.831516 223.623795 
L 306.466824 222.07799 
L 303.102131 220.530658 
L 299.737439 219.049933 
L 296.372746 217.667748 
L 293.008054 216.230452 
L 289.643362 214.785122 
L 286.278669 213.311458 
L 282.913977 211.723564 
L 279.549285 210.135669 
L 276.184592 208.547774 
L 272.8199 206.95988 
L 269.455207 205.371985 
L 266.090515 203.787798 
L 262.725823 202.208386 
L 259.36113 200.619234 
L 255.996438 199.026831 
L 252.631746 197.441827 
L 249.267053 195.853305 
L 245.902361 194.266897 
L 242.537668 192.639906 
L 239.172976 191.012919 
L 235.808284 189.453582 
L 232.443591 187.9146 
L 229.078899 186.326076 
L 225.714207 184.741155 
L 222.349514 183.174939 
L 218.984822 181.575147 
L 215.620129 179.981363 
L 212.255437 178.405337 
L 208.890745 176.806038 
L 205.526052 175.218375 
L 202.16136 173.546823 
L 198.796668 171.922752 
L 195.431975 170.260484 
L 192.067283 168.589411 
L 188.70259 166.825402 
L 185.337898 165.131318 
L 181.973206 163.433966 
L 178.608513 161.761572 
L 175.243821 160.035226 
L 171.879129 158.398687 
L 168.514436 156.786887 
L 165.149744 155.052506 
L 161.785051 153.278815 
L 158.420359 151.596839 
L 155.055667 149.814649 
L 151.690974 148.096618 
L 148.326282 146.402201 
L 144.961589 144.708419 
L 141.596897 143.048798 
L 138.232205 141.233603 
L 134.867512 139.525964 
L 131.50282 137.752206 
L 128.138128 135.932211 
L 124.773435 134.154742 
L 121.408743 132.452842 
L 118.04405 130.58562 
L 114.679358 128.842275 
L 111.314666 126.978235 
L 107.949973 125.155854 
L 104.585281 123.356437 
L 101.220589 121.557006 
L 97.855896 119.807121 
L 94.491204 117.957641 
L 91.126511 116.142512 
L 87.761819 114.204731 
L 84.397127 112.339475 
L 81.032434 110.397836 
L 77.667742 108.395515 
L 74.30305 106.540319 
L 70.938357 104.590245 
L 67.573665 102.659979 
z
" clip-path="url(#pba7cae8772)" style="fill: #e5a09c; fill-opacity: 0.15"/>
   </g>
   <g id="PolyCollection_3">
    <path d="M 67.573665 38.776307 
L 67.573665 57.297125 
L 70.938357 60.162433 
L 74.30305 63.038636 
L 77.667742 65.903129 
L 81.032434 68.779359 
L 84.397127 71.676057 
L 87.761819 74.668215 
L 91.126511 77.563852 
L 94.491204 80.415856 
L 97.855896 83.337701 
L 101.220589 86.330158 
L 104.585281 89.225112 
L 107.949973 92.053467 
L 111.314666 94.940557 
L 114.679358 98.053036 
L 118.04405 101.0129 
L 121.408743 103.963319 
L 124.773435 106.949319 
L 128.138128 109.879646 
L 131.50282 112.730094 
L 134.867512 115.784719 
L 138.232205 118.860513 
L 141.596897 121.83794 
L 144.961589 124.784799 
L 148.326282 127.703032 
L 151.690974 130.682185 
L 155.055667 133.727714 
L 158.420359 136.807709 
L 161.785051 139.865746 
L 165.149744 142.883645 
L 168.514436 145.995417 
L 171.879129 149.032292 
L 175.243821 152.1661 
L 178.608513 155.264419 
L 181.973206 158.381258 
L 185.337898 161.434916 
L 188.70259 164.562349 
L 192.067283 167.64433 
L 195.431975 170.847764 
L 198.796668 174.033418 
L 202.16136 177.231643 
L 205.526052 180.326252 
L 208.890745 183.430902 
L 212.255437 186.695037 
L 215.620129 189.838009 
L 218.984822 193.024625 
L 222.349514 196.270153 
L 225.714207 199.489844 
L 229.078899 202.814143 
L 232.443591 206.078029 
L 235.808284 209.273996 
L 239.172976 212.435851 
L 242.537668 215.548317 
L 245.902361 218.605725 
L 249.267053 221.815303 
L 252.631746 225.023587 
L 255.996438 228.234326 
L 259.36113 231.446233 
L 262.725823 234.627888 
L 266.090515 237.756374 
L 269.455207 240.932718 
L 272.8199 244.174244 
L 276.184592 247.4147 
L 279.549285 250.656605 
L 282.913977 253.89516 
L 286.278669 257.131677 
L 289.643362 260.343248 
L 293.008054 263.554819 
L 296.372746 266.76639 
L 299.737439 270.001048 
L 303.102131 273.236714 
L 306.466824 276.494732 
L 309.831516 279.697199 
L 313.196208 282.894809 
L 316.560901 286.179422 
L 319.925593 289.480102 
L 323.290286 292.780781 
L 326.654978 296.032087 
L 330.01967 299.273937 
L 333.384363 302.514959 
L 336.749055 305.765705 
L 340.113747 308.997961 
L 343.47844 312.239302 
L 346.843132 315.580752 
L 350.207825 318.830769 
L 353.572517 322.080532 
L 356.937209 325.327426 
L 360.301902 328.574319 
L 363.666594 331.838264 
L 367.031286 335.118978 
L 370.395979 338.399691 
L 373.760671 341.680404 
L 377.125364 344.961118 
L 380.490056 348.278747 
L 383.854748 351.525332 
L 387.219441 354.830507 
L 390.584133 358.151846 
L 393.948825 361.375479 
L 397.313518 364.656883 
L 400.67821 367.939943 
L 400.67821 332.549404 
L 400.67821 332.549404 
L 397.313518 329.715452 
L 393.948825 326.881499 
L 390.584133 324.048125 
L 387.219441 321.215149 
L 383.854748 318.380485 
L 380.490056 315.547413 
L 377.125364 312.763083 
L 373.760671 309.983312 
L 370.395979 307.20354 
L 367.031286 304.424012 
L 363.666594 301.644763 
L 360.301902 298.68777 
L 356.937209 295.776805 
L 353.572517 292.962688 
L 350.207825 290.148571 
L 346.843132 287.269132 
L 343.47844 284.382737 
L 340.113747 281.495014 
L 336.749055 278.606746 
L 333.384363 275.718478 
L 330.01967 272.830211 
L 326.654978 269.941943 
L 323.290286 267.053675 
L 319.925593 264.166875 
L 316.560901 261.405928 
L 313.196208 258.727772 
L 309.831516 256.01441 
L 306.466824 253.181075 
L 303.102131 250.246104 
L 299.737439 247.290272 
L 296.372746 244.496969 
L 293.008054 241.704024 
L 289.643362 238.915873 
L 286.278669 236.017642 
L 282.913977 233.123198 
L 279.549285 230.271266 
L 276.184592 227.32579 
L 272.8199 224.416977 
L 269.455207 221.631154 
L 266.090515 218.784763 
L 262.725823 215.83906 
L 259.36113 212.920011 
L 255.996438 209.94948 
L 252.631746 207.087937 
L 249.267053 204.232388 
L 245.902361 201.245493 
L 242.537668 198.258597 
L 239.172976 195.361994 
L 235.808284 192.579224 
L 232.443591 189.668502 
L 229.078899 186.823817 
L 225.714207 183.797476 
L 222.349514 180.766047 
L 218.984822 177.881132 
L 215.620129 175.044731 
L 212.255437 172.063629 
L 208.890745 169.133697 
L 205.526052 166.277726 
L 202.16136 163.223925 
L 198.796668 160.209084 
L 195.431975 157.113492 
L 192.067283 154.163632 
L 188.70259 151.028092 
L 185.337898 147.982788 
L 181.973206 144.992936 
L 178.608513 141.964638 
L 175.243821 138.951142 
L 171.879129 135.884531 
L 168.514436 132.818278 
L 165.149744 129.782583 
L 161.785051 126.748979 
L 158.420359 123.717124 
L 155.055667 120.68295 
L 151.690974 117.694508 
L 148.326282 114.781995 
L 144.961589 111.615269 
L 141.596897 108.549231 
L 138.232205 105.477312 
L 134.867512 102.325866 
L 131.50282 99.113184 
L 128.138128 96.015497 
L 124.773435 92.883292 
L 121.408743 89.826789 
L 118.04405 86.7495 
L 114.679358 83.594932 
L 111.314666 80.314854 
L 107.949973 77.181575 
L 104.585281 74.01402 
L 101.220589 70.813028 
L 97.855896 67.712827 
L 94.491204 64.493093 
L 91.126511 61.236613 
L 87.761819 58.053485 
L 84.397127 54.882066 
L 81.032434 51.590423 
L 77.667742 48.386876 
L 74.30305 45.283157 
L 70.938357 42.040787 
L 67.573665 38.776307 
z
" clip-path="url(#pba7cae8772)" style="fill: #2e33a6; fill-opacity: 0.15"/>
   </g>
   <g id="PolyCollection_4">
    <path d="M 67.573665 129.027698 
L 67.573665 145.506277 
L 70.938357 146.78221 
L 74.30305 148.021938 
L 77.667742 149.147543 
L 81.032434 150.238101 
L 84.397127 151.386342 
L 87.761819 152.566814 
L 91.126511 153.896674 
L 94.491204 155.124106 
L 97.855896 156.35981 
L 101.220589 157.526961 
L 104.585281 158.695246 
L 107.949973 159.942066 
L 111.314666 161.189589 
L 114.679358 162.467469 
L 118.04405 163.681064 
L 121.408743 165.037554 
L 124.773435 166.304659 
L 128.138128 167.53748 
L 131.50282 168.836822 
L 134.867512 170.094042 
L 138.232205 171.409342 
L 141.596897 172.692521 
L 144.961589 173.983148 
L 148.326282 175.283031 
L 151.690974 176.594435 
L 155.055667 178.029232 
L 158.420359 179.198993 
L 161.785051 180.487629 
L 165.149744 181.815962 
L 168.514436 183.184954 
L 171.879129 184.561586 
L 175.243821 185.948951 
L 178.608513 187.334158 
L 181.973206 188.738369 
L 185.337898 190.218703 
L 188.70259 191.614328 
L 192.067283 193.056211 
L 195.431975 194.507673 
L 198.796668 195.958356 
L 202.16136 197.409431 
L 205.526052 198.860931 
L 208.890745 200.311946 
L 212.255437 201.762229 
L 215.620129 203.210795 
L 218.984822 204.521145 
L 222.349514 205.907528 
L 225.714207 207.297791 
L 229.078899 208.792795 
L 232.443591 210.273466 
L 235.808284 211.838218 
L 239.172976 213.351013 
L 242.537668 214.819128 
L 245.902361 216.271309 
L 249.267053 217.74569 
L 252.631746 219.296582 
L 255.996438 220.711722 
L 259.36113 222.0747 
L 262.725823 223.531963 
L 266.090515 225.008232 
L 269.455207 226.578731 
L 272.8199 228.080106 
L 276.184592 229.537533 
L 279.549285 230.994959 
L 282.913977 232.452038 
L 286.278669 233.943649 
L 289.643362 235.470393 
L 293.008054 236.996876 
L 296.372746 238.473998 
L 299.737439 240.002472 
L 303.102131 241.49258 
L 306.466824 243.064921 
L 309.831516 244.619901 
L 313.196208 246.158971 
L 316.560901 247.633455 
L 319.925593 249.180144 
L 323.290286 250.690512 
L 326.654978 252.166606 
L 330.01967 253.726929 
L 333.384363 255.28722 
L 336.749055 256.847511 
L 340.113747 258.405376 
L 343.47844 259.935453 
L 346.843132 261.467705 
L 350.207825 263.019388 
L 353.572517 264.575138 
L 356.937209 266.13197 
L 360.301902 267.674435 
L 363.666594 269.226117 
L 367.031286 270.776724 
L 370.395979 272.333067 
L 373.760671 273.881532 
L 377.125364 275.429267 
L 380.490056 276.932695 
L 383.854748 278.427814 
L 387.219441 279.934192 
L 390.584133 281.447023 
L 393.948825 282.994547 
L 397.313518 284.559914 
L 400.67821 286.066804 
L 400.67821 253.430178 
L 400.67821 253.430178 
L 397.313518 252.320138 
L 393.948825 251.210097 
L 390.584133 250.100057 
L 387.219441 248.990016 
L 383.854748 247.879975 
L 380.490056 246.769935 
L 377.125364 245.656214 
L 373.760671 244.468213 
L 370.395979 243.244637 
L 367.031286 242.029001 
L 363.666594 240.89785 
L 360.301902 239.767024 
L 356.937209 238.638453 
L 353.572517 237.509881 
L 350.207825 236.314198 
L 346.843132 235.197567 
L 343.47844 234.04187 
L 340.113747 232.880985 
L 336.749055 231.721975 
L 333.384363 230.557991 
L 330.01967 229.395279 
L 326.654978 228.232568 
L 323.290286 227.069856 
L 319.925593 225.907145 
L 316.560901 224.692796 
L 313.196208 223.531365 
L 309.831516 222.422077 
L 306.466824 221.261393 
L 303.102131 220.101045 
L 299.737439 218.938985 
L 296.372746 217.777661 
L 293.008054 216.615331 
L 289.643362 215.465525 
L 286.278669 214.303826 
L 282.913977 213.142126 
L 279.549285 211.967798 
L 276.184592 210.806224 
L 272.8199 209.649241 
L 269.455207 208.484208 
L 266.090515 207.300145 
L 262.725823 206.130799 
L 259.36113 204.99518 
L 255.996438 203.83255 
L 252.631746 202.66992 
L 249.267053 201.508155 
L 245.902361 200.348206 
L 242.537668 199.18735 
L 239.172976 197.98496 
L 235.808284 196.776252 
L 232.443591 195.583093 
L 229.078899 194.39167 
L 225.714207 193.156626 
L 222.349514 192.005347 
L 218.984822 190.807978 
L 215.620129 189.588141 
L 212.255437 188.301325 
L 208.890745 187.050143 
L 205.526052 185.847774 
L 202.16136 184.639761 
L 198.796668 183.40964 
L 195.431975 182.140968 
L 192.067283 180.845319 
L 188.70259 179.55841 
L 185.337898 178.348048 
L 181.973206 177.031575 
L 178.608513 175.671538 
L 175.243821 174.390595 
L 171.879129 173.088868 
L 168.514436 171.785092 
L 165.149744 170.376432 
L 161.785051 169.148569 
L 158.420359 167.806515 
L 155.055667 166.538103 
L 151.690974 165.056896 
L 148.326282 163.742493 
L 144.961589 162.352292 
L 141.596897 161.1356 
L 138.232205 159.740341 
L 134.867512 158.26314 
L 131.50282 156.800517 
L 128.138128 155.284036 
L 124.773435 153.860153 
L 121.408743 152.48996 
L 118.04405 150.987069 
L 114.679358 149.513987 
L 111.314666 148.145443 
L 107.949973 146.662443 
L 104.585281 145.319598 
L 101.220589 143.799962 
L 97.855896 142.278048 
L 94.491204 140.759385 
L 91.126511 139.335971 
L 87.761819 137.914162 
L 84.397127 136.388964 
L 81.032434 134.967401 
L 77.667742 133.478069 
L 74.30305 131.990163 
L 70.938357 130.502256 
L 67.573665 129.027698 
z
" clip-path="url(#pba7cae8772)" style="fill: #9fa0cc; fill-opacity: 0.15"/>
   </g>
   <g id="matplotlib.axis_1">
    <g id="xtick_1">
     <g id="line2d_1">
      <defs>
       <path id="m4f0253460b" d="M 0 0 
L 0 3.5 
" style="stroke: #000000; stroke-width: 0.8"/>
      </defs>
      <g>
       <use xlink:href="#m4f0253460b" x="51.210871" y="384.398125" style="stroke: #000000; stroke-width: 0.8"/>
      </g>
     </g>
     <g id="text_1">
      <text style="font: 10px 'DejaVu Sans', 'Bitstream Vera Sans', 'Computer Modern Sans Serif', 'Lucida Grande', 'Verdana', 'Geneva', 'Lucid', 'Arial', 'Helvetica', 'Avant Garde', sans-serif; text-anchor: middle" x="51.210871" y="398.996562" transform="rotate(-0 51.210871 398.996562)">0</text>
     </g>
    </g>
    <g id="xtick_2">
     <g id="line2d_2">
      <g>
       <use xlink:href="#m4f0253460b" x="92.953177" y="384.398125" style="stroke: #000000; stroke-width: 0.8"/>
      </g>
     </g>
     <g id="text_2">
      <text style="font: 10px 'DejaVu Sans', 'Bitstream Vera Sans', 'Computer Modern Sans Serif', 'Lucida Grande', 'Verdana', 'Geneva', 'Lucid', 'Arial', 'Helvetica', 'Avant Garde', sans-serif; text-anchor: middle" x="92.953177" y="398.996562" transform="rotate(-0 92.953177 398.996562)">500</text>
     </g>
    </g>
    <g id="xtick_3">
     <g id="line2d_3">
      <g>
       <use xlink:href="#m4f0253460b" x="134.695483" y="384.398125" style="stroke: #000000; stroke-width: 0.8"/>
      </g>
     </g>
     <g id="text_3">
      <text style="font: 10px 'DejaVu Sans', 'Bitstream Vera Sans', 'Computer Modern Sans Serif', 'Lucida Grande', 'Verdana', 'Geneva', 'Lucid', 'Arial', 'Helvetica', 'Avant Garde', sans-serif; text-anchor: middle" x="134.695483" y="398.996562" transform="rotate(-0 134.695483 398.996562)">1000</text>
     </g>
    </g>
    <g id="xtick_4">
     <g id="line2d_4">
      <g>
       <use xlink:href="#m4f0253460b" x="176.437789" y="384.398125" style="stroke: #000000; stroke-width: 0.8"/>
      </g>
     </g>
     <g id="text_4">
      <text style="font: 10px 'DejaVu Sans', 'Bitstream Vera Sans', 'Computer Modern Sans Serif', 'Lucida Grande', 'Verdana', 'Geneva', 'Lucid', 'Arial', 'Helvetica', 'Avant Garde', sans-serif; text-anchor: middle" x="176.437789" y="398.996562" transform="rotate(-0 176.437789 398.996562)">1500</text>
     </g>
    </g>
    <g id="xtick_5">
     <g id="line2d_5">
      <g>
       <use xlink:href="#m4f0253460b" x="218.180094" y="384.398125" style="stroke: #000000; stroke-width: 0.8"/>
      </g>
     </g>
     <g id="text_5">
      <text style="font: 10px 'DejaVu Sans', 'Bitstream Vera Sans', 'Computer Modern Sans Serif', 'Lucida Grande', 'Verdana', 'Geneva', 'Lucid', 'Arial', 'Helvetica', 'Avant Garde', sans-serif; text-anchor: middle" x="218.180094" y="398.996562" transform="rotate(-0 218.180094 398.996562)">2000</text>
     </g>
    </g>
    <g id="xtick_6">
     <g id="line2d_6">
      <g>
       <use xlink:href="#m4f0253460b" x="259.9224" y="384.398125" style="stroke: #000000; stroke-width: 0.8"/>
      </g>
     </g>
     <g id="text_6">
      <text style="font: 10px 'DejaVu Sans', 'Bitstream Vera Sans', 'Computer Modern Sans Serif', 'Lucida Grande', 'Verdana', 'Geneva', 'Lucid', 'Arial', 'Helvetica', 'Avant Garde', sans-serif; text-anchor: middle" x="259.9224" y="398.996562" transform="rotate(-0 259.9224 398.996562)">2500</text>
     </g>
    </g>
    <g id="xtick_7">
     <g id="line2d_7">
      <g>
       <use xlink:href="#m4f0253460b" x="301.664706" y="384.398125" style="stroke: #000000; stroke-width: 0.8"/>
      </g>
     </g>
     <g id="text_7">
      <text style="font: 10px 'DejaVu Sans', 'Bitstream Vera Sans', 'Computer Modern Sans Serif', 'Lucida Grande', 'Verdana', 'Geneva', 'Lucid', 'Arial', 'Helvetica', 'Avant Garde', sans-serif; text-anchor: middle" x="301.664706" y="398.996562" transform="rotate(-0 301.664706 398.996562)">3000</text>
     </g>
    </g>
    <g id="xtick_8">
     <g id="line2d_8">
      <g>
       <use xlink:href="#m4f0253460b" x="343.407012" y="384.398125" style="stroke: #000000; stroke-width: 0.8"/>
      </g>
     </g>
     <g id="text_8">
      <text style="font: 10px 'DejaVu Sans', 'Bitstream Vera Sans', 'Computer Modern Sans Serif', 'Lucida Grande', 'Verdana', 'Geneva', 'Lucid', 'Arial', 'Helvetica', 'Avant Garde', sans-serif; text-anchor: middle" x="343.407012" y="398.996562" transform="rotate(-0 343.407012 398.996562)">3500</text>
     </g>
    </g>
    <g id="xtick_9">
     <g id="line2d_9">
      <g>
       <use xlink:href="#m4f0253460b" x="385.149317" y="384.398125" style="stroke: #000000; stroke-width: 0.8"/>
      </g>
     </g>
     <g id="text_9">
      <text style="font: 10px 'DejaVu Sans', 'Bitstream Vera Sans', 'Computer Modern Sans Serif', 'Lucida Grande', 'Verdana', 'Geneva', 'Lucid', 'Arial', 'Helvetica', 'Avant Garde', sans-serif; text-anchor: middle" x="385.149317" y="398.996562" transform="rotate(-0 385.149317 398.996562)">4000</text>
     </g>
    </g>
    <g id="text_10">
     <text style="font: 12px 'DejaVu Sans', 'Bitstream Vera Sans', 'Computer Modern Sans Serif', 'Lucida Grande', 'Verdana', 'Geneva', 'Lucid', 'Arial', 'Helvetica', 'Avant Garde', sans-serif; text-anchor: middle" x="234.125937" y="414.194375" transform="rotate(-0 234.125937 414.194375)">Frequency (Hz)</text>
    </g>
   </g>
   <g id="matplotlib.axis_2">
    <g id="ytick_1">
     <g id="line2d_10">
      <defs>
       <path id="mae05846eb0" d="M 0 0 
L -3.5 0 
" style="stroke: #000000; stroke-width: 0.8"/>
      </defs>
      <g>
       <use xlink:href="#mae05846eb0" x="50.918438" y="377.943698" style="stroke: #000000; stroke-width: 0.8"/>
      </g>
     </g>
     <g id="text_11">
      <text style="font: 10px 'DejaVu Sans', 'Bitstream Vera Sans', 'Computer Modern Sans Serif', 'Lucida Grande', 'Verdana', 'Geneva', 'Lucid', 'Arial', 'Helvetica', 'Avant Garde', sans-serif; text-anchor: end" x="43.918438" y="381.742917" transform="rotate(-0 43.918438 381.742917)">−25</text>
     </g>
    </g>
    <g id="ytick_2">
     <g id="line2d_11">
      <g>
       <use xlink:href="#mae05846eb0" x="50.918438" y="312.961973" style="stroke: #000000; stroke-width: 0.8"/>
      </g>
     </g>
     <g id="text_12">
      <text style="font: 10px 'DejaVu Sans', 'Bitstream Vera Sans', 'Computer Modern Sans Serif', 'Lucida Grande', 'Verdana', 'Geneva', 'Lucid', 'Arial', 'Helvetica', 'Avant Garde', sans-serif; text-anchor: end" x="43.918438" y="316.761192" transform="rotate(-0 43.918438 316.761192)">−20</text>
     </g>
    </g>
    <g id="ytick_3">
     <g id="line2d_12">
      <g>
       <use xlink:href="#mae05846eb0" x="50.918438" y="247.980248" style="stroke: #000000; stroke-width: 0.8"/>
      </g>
     </g>
     <g id="text_13">
      <text style="font: 10px 'DejaVu Sans', 'Bitstream Vera Sans', 'Computer Modern Sans Serif', 'Lucida Grande', 'Verdana', 'Geneva', 'Lucid', 'Arial', 'Helvetica', 'Avant Garde', sans-serif; text-anchor: end" x="43.918438" y="251.779466" transform="rotate(-0 43.918438 251.779466)">−15</text>
     </g>
    </g>
    <g id="ytick_4">
     <g id="line2d_13">
      <g>
       <use xlink:href="#mae05846eb0" x="50.918438" y="182.998522" style="stroke: #000000; stroke-width: 0.8"/>
      </g>
     </g>
     <g id="text_14">
      <text style="font: 10px 'DejaVu Sans', 'Bitstream Vera Sans', 'Computer Modern Sans Serif', 'Lucida Grande', 'Verdana', 'Geneva', 'Lucid', 'Arial', 'Helvetica', 'Avant Garde', sans-serif; text-anchor: end" x="43.918438" y="186.797741" transform="rotate(-0 43.918438 186.797741)">−10</text>
     </g>
    </g>
    <g id="ytick_5">
     <g id="line2d_14">
      <g>
       <use xlink:href="#mae05846eb0" x="50.918438" y="118.016797" style="stroke: #000000; stroke-width: 0.8"/>
      </g>
     </g>
     <g id="text_15">
      <text style="font: 10px 'DejaVu Sans', 'Bitstream Vera Sans', 'Computer Modern Sans Serif', 'Lucida Grande', 'Verdana', 'Geneva', 'Lucid', 'Arial', 'Helvetica', 'Avant Garde', sans-serif; text-anchor: end" x="43.918438" y="121.816016" transform="rotate(-0 43.918438 121.816016)">−5</text>
     </g>
    </g>
    <g id="ytick_6">
     <g id="line2d_15">
      <g>
       <use xlink:href="#mae05846eb0" x="50.918438" y="53.035072" style="stroke: #000000; stroke-width: 0.8"/>
      </g>
     </g>
     <g id="text_16">
      <text style="font: 10px 'DejaVu Sans', 'Bitstream Vera Sans', 'Computer Modern Sans Serif', 'Lucida Grande', 'Verdana', 'Geneva', 'Lucid', 'Arial', 'Helvetica', 'Avant Garde', sans-serif; text-anchor: end" x="43.918438" y="56.834291" transform="rotate(-0 43.918438 56.834291)">0</text>
     </g>
    </g>
    <g id="text_17">
     <text style="font: 12px 'DejaVu Sans', 'Bitstream Vera Sans', 'Computer Modern Sans Serif', 'Lucida Grande', 'Verdana', 'Geneva', 'Lucid', 'Arial', 'Helvetica', 'Avant Garde', sans-serif; text-anchor: middle" x="16.318125" y="203.358125" transform="rotate(-90 16.318125 203.358125)">Predicted elevation − true elevation</text>
    </g>
   </g>
   <g id="line2d_16">
    <path d="M 67.573665 48.08548 
L 70.938357 50.409723 
L 74.30305 52.733966 
L 77.667742 55.058209 
L 81.032434 57.382452 
L 84.397127 59.706694 
L 87.761819 62.030937 
L 91.126511 64.35518 
L 94.491204 66.679423 
L 97.855896 69.003666 
L 101.220589 71.327909 
L 104.585281 73.652152 
L 107.949973 75.976394 
L 111.314666 78.300637 
L 114.679358 80.62488 
L 118.04405 82.949123 
L 121.408743 85.273366 
L 124.773435 87.597609 
L 128.138128 89.921851 
L 131.50282 92.246094 
L 134.867512 94.570337 
L 138.232205 96.89458 
L 141.596897 99.218823 
L 144.961589 101.543066 
L 148.326282 103.867309 
L 151.690974 106.191551 
L 155.055667 108.515794 
L 158.420359 110.840037 
L 161.785051 113.16428 
L 165.149744 115.488523 
L 168.514436 117.812766 
L 171.879129 120.137008 
L 175.243821 122.461251 
L 178.608513 124.785494 
L 181.973206 127.109737 
L 185.337898 129.43398 
L 188.70259 131.758223 
L 192.067283 134.082466 
L 195.431975 136.406708 
L 198.796668 138.730951 
L 202.16136 141.055194 
L 205.526052 143.379437 
L 208.890745 145.70368 
L 212.255437 148.027923 
L 215.620129 150.352165 
L 218.984822 152.676408 
L 222.349514 155.000651 
L 225.714207 157.324894 
L 229.078899 159.649137 
L 232.443591 161.97338 
L 235.808284 164.297623 
L 239.172976 166.621865 
L 242.537668 168.946108 
L 245.902361 171.270351 
L 249.267053 173.594594 
L 252.631746 175.918837 
L 255.996438 178.24308 
L 259.36113 180.567322 
L 262.725823 182.891565 
L 266.090515 185.215808 
L 269.455207 187.540051 
L 272.8199 189.864294 
L 276.184592 192.188537 
L 279.549285 194.51278 
L 282.913977 196.837022 
L 286.278669 199.161265 
L 289.643362 201.485508 
L 293.008054 203.809751 
L 296.372746 206.133994 
L 299.737439 208.458237 
L 303.102131 210.782479 
L 306.466824 213.106722 
L 309.831516 215.430965 
L 313.196208 217.755208 
L 316.560901 220.079451 
L 319.925593 222.403694 
L 323.290286 224.727937 
L 326.654978 227.052179 
L 330.01967 229.376422 
L 333.384363 231.700665 
L 336.749055 234.024908 
L 340.113747 236.349151 
L 343.47844 238.673394 
L 346.843132 240.997636 
L 350.207825 243.321879 
L 353.572517 245.646122 
L 356.937209 247.970365 
L 360.301902 250.294608 
L 363.666594 252.618851 
L 367.031286 254.943094 
L 370.395979 257.267336 
L 373.760671 259.591579 
L 377.125364 261.915822 
L 380.490056 264.240065 
L 383.854748 266.564308 
L 387.219441 268.888551 
L 390.584133 271.212793 
L 393.948825 273.537036 
L 397.313518 275.861279 
L 400.67821 278.185522 
" clip-path="url(#pba7cae8772)" style="fill: none; stroke: #e22c1f; stroke-width: 2.25; stroke-linecap: square"/>
   </g>
   <g id="line2d_17">
    <path d="M 67.573665 111.00584 
L 70.938357 112.733764 
L 74.30305 114.461688 
L 77.667742 116.189613 
L 81.032434 117.917537 
L 84.397127 119.645461 
L 87.761819 121.373386 
L 91.126511 123.10131 
L 94.491204 124.829234 
L 97.855896 126.557159 
L 101.220589 128.285083 
L 104.585281 130.013007 
L 107.949973 131.740932 
L 111.314666 133.468856 
L 114.679358 135.19678 
L 118.04405 136.924705 
L 121.408743 138.652629 
L 124.773435 140.380553 
L 128.138128 142.108478 
L 131.50282 143.836402 
L 134.867512 145.564326 
L 138.232205 147.292251 
L 141.596897 149.020175 
L 144.961589 150.748099 
L 148.326282 152.476023 
L 151.690974 154.203948 
L 155.055667 155.931872 
L 158.420359 157.659796 
L 161.785051 159.387721 
L 165.149744 161.115645 
L 168.514436 162.843569 
L 171.879129 164.571494 
L 175.243821 166.299418 
L 178.608513 168.027342 
L 181.973206 169.755267 
L 185.337898 171.483191 
L 188.70259 173.211115 
L 192.067283 174.93904 
L 195.431975 176.666964 
L 198.796668 178.394888 
L 202.16136 180.122813 
L 205.526052 181.850737 
L 208.890745 183.578661 
L 212.255437 185.306586 
L 215.620129 187.03451 
L 218.984822 188.762434 
L 222.349514 190.490358 
L 225.714207 192.218283 
L 229.078899 193.946207 
L 232.443591 195.674131 
L 235.808284 197.402056 
L 239.172976 199.12998 
L 242.537668 200.857904 
L 245.902361 202.585829 
L 249.267053 204.313753 
L 252.631746 206.041677 
L 255.996438 207.769602 
L 259.36113 209.497526 
L 262.725823 211.22545 
L 266.090515 212.953375 
L 269.455207 214.681299 
L 272.8199 216.409223 
L 276.184592 218.137148 
L 279.549285 219.865072 
L 282.913977 221.592996 
L 286.278669 223.320921 
L 289.643362 225.048845 
L 293.008054 226.776769 
L 296.372746 228.504693 
L 299.737439 230.232618 
L 303.102131 231.960542 
L 306.466824 233.688466 
L 309.831516 235.416391 
L 313.196208 237.144315 
L 316.560901 238.872239 
L 319.925593 240.600164 
L 323.290286 242.328088 
L 326.654978 244.056012 
L 330.01967 245.783937 
L 333.384363 247.511861 
L 336.749055 249.239785 
L 340.113747 250.96771 
L 343.47844 252.695634 
L 346.843132 254.423558 
L 350.207825 256.151483 
L 353.572517 257.879407 
L 356.937209 259.607331 
L 360.301902 261.335255 
L 363.666594 263.06318 
L 367.031286 264.791104 
L 370.395979 266.519028 
L 373.760671 268.246953 
L 377.125364 269.974877 
L 380.490056 271.702801 
L 383.854748 273.430726 
L 387.219441 275.15865 
L 390.584133 276.886574 
L 393.948825 278.614499 
L 397.313518 280.342423 
L 400.67821 282.070347 
" clip-path="url(#pba7cae8772)" style="fill: none; stroke: #e5a09c; stroke-width: 2.25; stroke-linecap: square"/>
   </g>
   <g id="line2d_18">
    <path d="M 67.573665 48.259178 
L 70.938357 51.306987 
L 74.30305 54.354796 
L 77.667742 57.402606 
L 81.032434 60.450415 
L 84.397127 63.498225 
L 87.761819 66.546034 
L 91.126511 69.593843 
L 94.491204 72.641653 
L 97.855896 75.689462 
L 101.220589 78.737271 
L 104.585281 81.785081 
L 107.949973 84.83289 
L 111.314666 87.880699 
L 114.679358 90.928509 
L 118.04405 93.976318 
L 121.408743 97.024128 
L 124.773435 100.071937 
L 128.138128 103.119746 
L 131.50282 106.167556 
L 134.867512 109.215365 
L 138.232205 112.263174 
L 141.596897 115.310984 
L 144.961589 118.358793 
L 148.326282 121.406602 
L 151.690974 124.454412 
L 155.055667 127.502221 
L 158.420359 130.55003 
L 161.785051 133.59784 
L 165.149744 136.645649 
L 168.514436 139.693459 
L 171.879129 142.741268 
L 175.243821 145.789077 
L 178.608513 148.836887 
L 181.973206 151.884696 
L 185.337898 154.932505 
L 188.70259 157.980315 
L 192.067283 161.028124 
L 195.431975 164.075933 
L 198.796668 167.123743 
L 202.16136 170.171552 
L 205.526052 173.219362 
L 208.890745 176.267171 
L 212.255437 179.31498 
L 215.620129 182.36279 
L 218.984822 185.410599 
L 222.349514 188.458408 
L 225.714207 191.506218 
L 229.078899 194.554027 
L 232.443591 197.601836 
L 235.808284 200.649646 
L 239.172976 203.697455 
L 242.537668 206.745265 
L 245.902361 209.793074 
L 249.267053 212.840883 
L 252.631746 215.888693 
L 255.996438 218.936502 
L 259.36113 221.984311 
L 262.725823 225.032121 
L 266.090515 228.07993 
L 269.455207 231.127739 
L 272.8199 234.175549 
L 276.184592 237.223358 
L 279.549285 240.271168 
L 282.913977 243.318977 
L 286.278669 246.366786 
L 289.643362 249.414596 
L 293.008054 252.462405 
L 296.372746 255.510214 
L 299.737439 258.558024 
L 303.102131 261.605833 
L 306.466824 264.653642 
L 309.831516 267.701452 
L 313.196208 270.749261 
L 316.560901 273.797071 
L 319.925593 276.84488 
L 323.290286 279.892689 
L 326.654978 282.940499 
L 330.01967 285.988308 
L 333.384363 289.036117 
L 336.749055 292.083927 
L 340.113747 295.131736 
L 343.47844 298.179545 
L 346.843132 301.227355 
L 350.207825 304.275164 
L 353.572517 307.322974 
L 356.937209 310.370783 
L 360.301902 313.418592 
L 363.666594 316.466402 
L 367.031286 319.514211 
L 370.395979 322.56202 
L 373.760671 325.60983 
L 377.125364 328.657639 
L 380.490056 331.705448 
L 383.854748 334.753258 
L 387.219441 337.801067 
L 390.584133 340.848877 
L 393.948825 343.896686 
L 397.313518 346.944495 
L 400.67821 349.992305 
" clip-path="url(#pba7cae8772)" style="fill: none; stroke: #2e33a6; stroke-width: 2.25; stroke-linecap: square"/>
   </g>
   <g id="line2d_19">
    <path d="M 67.573665 137.316945 
L 70.938357 138.65594 
L 74.30305 139.994935 
L 77.667742 141.33393 
L 81.032434 142.672925 
L 84.397127 144.01192 
L 87.761819 145.350915 
L 91.126511 146.68991 
L 94.491204 148.028905 
L 97.855896 149.3679 
L 101.220589 150.706895 
L 104.585281 152.04589 
L 107.949973 153.384885 
L 111.314666 154.72388 
L 114.679358 156.062875 
L 118.04405 157.40187 
L 121.408743 158.740865 
L 124.773435 160.07986 
L 128.138128 161.418855 
L 131.50282 162.75785 
L 134.867512 164.096845 
L 138.232205 165.43584 
L 141.596897 166.774835 
L 144.961589 168.11383 
L 148.326282 169.452825 
L 151.690974 170.79182 
L 155.055667 172.130815 
L 158.420359 173.46981 
L 161.785051 174.808805 
L 165.149744 176.1478 
L 168.514436 177.486795 
L 171.879129 178.82579 
L 175.243821 180.164785 
L 178.608513 181.50378 
L 181.973206 182.842775 
L 185.337898 184.18177 
L 188.70259 185.520765 
L 192.067283 186.85976 
L 195.431975 188.198755 
L 198.796668 189.53775 
L 202.16136 190.876745 
L 205.526052 192.21574 
L 208.890745 193.554735 
L 212.255437 194.89373 
L 215.620129 196.232725 
L 218.984822 197.57172 
L 222.349514 198.910715 
L 225.714207 200.24971 
L 229.078899 201.588705 
L 232.443591 202.9277 
L 235.808284 204.266695 
L 239.172976 205.60569 
L 242.537668 206.944685 
L 245.902361 208.28368 
L 249.267053 209.622675 
L 252.631746 210.96167 
L 255.996438 212.300665 
L 259.36113 213.63966 
L 262.725823 214.978655 
L 266.090515 216.31765 
L 269.455207 217.656645 
L 272.8199 218.99564 
L 276.184592 220.334635 
L 279.549285 221.67363 
L 282.913977 223.012625 
L 286.278669 224.35162 
L 289.643362 225.690615 
L 293.008054 227.02961 
L 296.372746 228.368605 
L 299.737439 229.7076 
L 303.102131 231.046595 
L 306.466824 232.38559 
L 309.831516 233.724585 
L 313.196208 235.06358 
L 316.560901 236.402575 
L 319.925593 237.74157 
L 323.290286 239.080565 
L 326.654978 240.41956 
L 330.01967 241.758555 
L 333.384363 243.09755 
L 336.749055 244.436545 
L 340.113747 245.77554 
L 343.47844 247.114535 
L 346.843132 248.45353 
L 350.207825 249.792525 
L 353.572517 251.13152 
L 356.937209 252.470515 
L 360.301902 253.80951 
L 363.666594 255.148505 
L 367.031286 256.4875 
L 370.395979 257.826495 
L 373.760671 259.16549 
L 377.125364 260.504485 
L 380.490056 261.84348 
L 383.854748 263.182475 
L 387.219441 264.52147 
L 390.584133 265.860465 
L 393.948825 267.19946 
L 397.313518 268.538455 
L 400.67821 269.87745 
" clip-path="url(#pba7cae8772)" style="fill: none; stroke: #9fa0cc; stroke-width: 2.25; stroke-linecap: square"/>
   </g>
   <g id="line2d_20">
    <path d="M 50.918438 53.035072 
L 417.333437 53.035072 
" clip-path="url(#pba7cae8772)" style="fill: none; stroke-dasharray: 2.96,1.28; stroke-dashoffset: 0; stroke: #000000; stroke-opacity: 0.6; stroke-width: 0.8"/>
   </g>
   <g id="patch_3">
    <path d="M 50.918438 384.398125 
L 50.918438 22.318125 
" style="fill: none; stroke: #000000; stroke-width: 0.8; stroke-linejoin: miter; stroke-linecap: square"/>
   </g>
   <g id="patch_4">
    <path d="M 417.333437 384.398125 
L 417.333437 22.318125 
" style="fill: none; stroke: #000000; stroke-width: 0.8; stroke-linejoin: miter; stroke-linecap: square"/>
   </g>
   <g id="patch_5">
    <path d="M 50.918438 384.398125 
L 417.333437 384.398125 
" style="fill: none; stroke: #000000; stroke-width: 0.8; stroke-linejoin: miter; stroke-linecap: square"/>
   </g>
   <g id="patch_6">
    <path d="M 50.918438 22.318125 
L 417.333437 22.318125 
" style="fill: none; stroke: #000000; stroke-width: 0.8; stroke-linejoin: miter; stroke-linecap: square"/>
   </g>
   <g id="text_18">
    <text style="font: 12px 'DejaVu Sans', 'Bitstream Vera Sans', 'Computer Modern Sans Serif', 'Lucida Grande', 'Verdana', 'Geneva', 'Lucid', 'Arial', 'Helvetica', 'Avant Garde', sans-serif; text-anchor: middle" x="234.125937" y="16.318125" transform="rotate(-0 234.125937 16.318125)">DNN elevation error vs. frequency (linear fit per condition)</text>
   </g>
   <g id="legend_1">
    <g id="patch_7">
     <path d="M 57.918438 379.398125 
L 179.174688 379.398125 
Q 181.174688 379.398125 181.174688 377.398125 
L 181.174688 304.729375 
Q 181.174688 302.729375 179.174688 302.729375 
L 57.918438 302.729375 
Q 55.918438 302.729375 55.918438 304.729375 
L 55.918438 377.398125 
Q 55.918438 379.398125 57.918438 379.398125 
z
" style="fill: #ffffff; opacity: 0.8; stroke: #cccccc; stroke-linejoin: miter"/>
    </g>
    <g id="text_19">
     <text style="font: 10px 'DejaVu Sans', 'Bitstream Vera Sans', 'Computer Modern Sans Serif', 'Lucida Grande', 'Verdana', 'Geneva', 'Lucid', 'Arial', 'Helvetica', 'Avant Garde', sans-serif; text-anchor: start" x="94.686406" y="314.327812" transform="rotate(-0 94.686406 314.327812)">Condition</text>
    </g>
    <g id="line2d_21">
     <path d="M 59.918438 325.505937 
L 69.918438 325.505937 
L 79.918438 325.505937 
" style="fill: none; stroke: #e22c1f; stroke-width: 2.25; stroke-linecap: square"/>
    </g>
    <g id="text_20">
     <text style="font: 10px 'DejaVu Sans', 'Bitstream Vera Sans', 'Computer Modern Sans Serif', 'Lucida Grande', 'Verdana', 'Geneva', 'Lucid', 'Arial', 'Helvetica', 'Avant Garde', sans-serif; text-anchor: start" x="87.918438" y="329.005937" transform="rotate(-0 87.918438 329.005937)">flute</text>
    </g>
    <g id="line2d_22">
     <path d="M 59.918438 340.184062 
L 69.918438 340.184062 
L 79.918438 340.184062 
" style="fill: none; stroke: #e5a09c; stroke-width: 2.25; stroke-linecap: square"/>
    </g>
    <g id="text_21">
     <text style="font: 10px 'DejaVu Sans', 'Bitstream Vera Sans', 'Computer Modern Sans Serif', 'Lucida Grande', 'Verdana', 'Geneva', 'Lucid', 'Arial', 'Helvetica', 'Avant Garde', sans-serif; text-anchor: start" x="87.918438" y="343.684062" transform="rotate(-0 87.918438 343.684062)">harmoniccomplex</text>
    </g>
    <g id="line2d_23">
     <path d="M 59.918438 354.862187 
L 69.918438 354.862187 
L 79.918438 354.862187 
" style="fill: none; stroke: #2e33a6; stroke-width: 2.25; stroke-linecap: square"/>
    </g>
    <g id="text_22">
     <text style="font: 10px 'DejaVu Sans', 'Bitstream Vera Sans', 'Computer Modern Sans Serif', 'Lucida Grande', 'Verdana', 'Geneva', 'Lucid', 'Arial', 'Helvetica', 'Avant Garde', sans-serif; text-anchor: start" x="87.918438" y="358.362187" transform="rotate(-0 87.918438 358.362187)">viola</text>
    </g>
    <g id="line2d_24">
     <path d="M 59.918438 369.540312 
L 69.918438 369.540312 
L 79.918438 369.540312 
" style="fill: none; stroke: #9fa0cc; stroke-width: 2.25; stroke-linecap: square"/>
    </g>
    <g id="text_23">
     <text style="font: 10px 'DejaVu Sans', 'Bitstream Vera Sans', 'Computer Modern Sans Serif', 'Lucida Grande', 'Verdana', 'Geneva', 'Lucid', 'Arial', 'Helvetica', 'Avant Garde', sans-serif; text-anchor: start" x="87.918438" y="373.040312" transform="rotate(-0 87.918438 373.040312)">viola_complex</text>
    </g>
   </g>
  </g>
 </g>
 <defs>
  <clipPath id="pba7cae8772">
   <rect x="50.918438" y="22.318125" width="366.415" height="362.08"/>
  </clipPath>
 </defs>
</svg>
