<?xml version="1.0" encoding="utf-8" standalone="no"?>
<!DOCTYPE svg PUBLIC "-//W3C//DTD SVG 1.1//EN"
  "http://www.w3.org/Graphics/SVG/1.1/DTD/svg11.dtd">
<svg xmlns:xlink="http://www.w3.org/1999/xlink" width="424.533437pt" height="423.89pt" viewBox="0 0 424.533437 423.89" xmlns="http://www.w3.org/2000/svg" version="1.1">
 <metadata>
  <rdf:RDF xmlns:dc="http://purl.org/dc/elements/1.1/" xmlns:cc="http://creativecommons.org/ns#" xmlns:rdf="http://www.w3.org/1999/02/22-rdf-syntax-ns#">
   <cc:Work>
    <dc:type rdf:resource="http://purl.org/dc/dcmitype/StillImage"/>
    <dc:date>2026-07-13T14:39:20.780206</dc:date>
    <dc:format>image/svg+xml</dc:format>
    <dc:creator>
     <cc:Agent>
      <dc:title>Matplotlib v3.9.0, https://matplotlib.org/</dc:title>
     </cc:Agent>
    </dc:creator>
   </cc:Work>
  </rdf:RDF>
 </metadata>
 <defs>
  <style type="text/css">*{stroke-linejoin: round; stroke-linecap: butt}</style>
 </defs>
 <g id="figure_1">
  <g id="patch_1">
   <path d="M -0 423.89 
L 424.533437 423.89 
L 424.533437 0 
L -0 0 
z
" style="fill: #ffffff"/>
  </g>
  <g id="axes_1">
   <g id="patch_2">
    <path d="M 50.918438 384.398125 
L 417.333437 384.398125 
L 417.333437 22.318125 
L 50.918438 22.318125 
z
" style="fill: #ffffff"/>
   </g>
   <g id="PolyCollection_1">
    <path d="M 67.573665 38.776307 
L 67.573665 70.663886 
L 70.938357 71.405751 
L 74.30305 72.179343 
L 77.667742 72.950509 
L 81.032434 73.63469 
L 84.397127 74.375767 
L 87.761819 74.935387 
L 91.126511 75.733488 
L 94.491204 76.59822 
L 97.855896 77.276183 
L 101.220589 78.053366 
L 104.585281 78.652464 
L 107.949973 79.392991 
L 111.314666 80.019281 
L 114.679358 80.653743 
L 118.04405 81.66356 
L 121.408743 82.482652 
L 124.773435 83.176017 
L 128.138128 84.023081 
L 131.50282 84.892684 
L 134.867512 85.723759 
L 138.232205 86.641931 
L 141.596897 87.661782 
L 144.961589 88.653466 
L 148.326282 89.428207 
L 151.690974 90.358609 
L 155.055667 91.352438 
L 158.420359 92.47133 
L 161.785051 93.416497 
L 165.149744 94.635811 
L 168.514436 95.676208 
L 171.879129 96.599947 
L 175.243821 97.58948 
L 178.608513 98.460229 
L 181.973206 99.564183 
L 185.337898 100.427642 
L 188.70259 101.553083 
L 192.067283 102.837324 
L 195.431975 104.120891 
L 198.796668 105.172912 
L 202.16136 106.411807 
L 205.526052 107.575085 
L 208.890745 108.476038 
L 212.255437 109.614313 
L 215.620129 111.028261 
L 218.984822 112.44221 
L 222.349514 113.780667 
L 225.714207 114.919657 
L 229.078899 116.310571 
L 232.443591 117.691231 
L 235.808284 119.130046 
L 239.172976 120.351752 
L 242.537668 121.511517 
L 245.902361 122.671282 
L 249.267053 123.826487 
L 252.631746 124.97862 
L 255.996438 126.385088 
L 259.36113 127.838958 
L 262.725823 128.97689 
L 266.090515 130.246028 
L 269.455207 131.499167 
L 272.8199 132.848036 
L 276.184592 134.285992 
L 279.549285 135.723949 
L 282.913977 137.123422 
L 286.278669 138.501163 
L 289.643362 139.878904 
L 293.008054 141.256645 
L 296.372746 142.633883 
L 299.737439 144.007953 
L 303.102131 145.382023 
L 306.466824 146.756092 
L 309.831516 148.121867 
L 313.196208 149.438645 
L 316.560901 150.682023 
L 319.925593 151.952887 
L 323.290286 153.294094 
L 326.654978 154.684781 
L 330.01967 155.91537 
L 333.384363 157.177117 
L 336.749055 158.673514 
L 340.113747 159.935089 
L 343.47844 161.274885 
L 346.843132 162.506315 
L 350.207825 163.733759 
L 353.572517 165.164407 
L 356.937209 166.60872 
L 360.301902 167.941156 
L 363.666594 169.224542 
L 367.031286 170.505416 
L 370.395979 171.843391 
L 373.760671 173.196163 
L 377.125364 174.548935 
L 380.490056 175.901706 
L 383.854748 177.254478 
L 387.219441 178.60725 
L 390.584133 179.968189 
L 393.948825 181.317229 
L 397.313518 182.6748 
L 400.67821 184.030398 
L 400.67821 115.632051 
L 400.67821 115.632051 
L 397.313518 114.924331 
L 393.948825 114.343353 
L 390.584133 113.841541 
L 387.219441 113.33973 
L 383.854748 112.840264 
L 380.490056 112.326264 
L 377.125364 111.64989 
L 373.760671 111.03404 
L 370.395979 110.320325 
L 367.031286 109.694239 
L 363.666594 109.195268 
L 360.301902 108.696296 
L 356.937209 108.081348 
L 353.572517 107.43134 
L 350.207825 106.781333 
L 346.843132 106.253589 
L 343.47844 105.77378 
L 340.113747 105.152662 
L 336.749055 104.531544 
L 333.384363 103.910426 
L 330.01967 103.290926 
L 326.654978 102.668841 
L 323.290286 102.041454 
L 319.925593 101.414068 
L 316.560901 100.814673 
L 313.196208 100.198121 
L 309.831516 99.523285 
L 306.466824 98.895549 
L 303.102131 98.33663 
L 299.737439 97.716132 
L 296.372746 97.095958 
L 293.008054 96.512699 
L 289.643362 96.004535 
L 286.278669 95.49637 
L 282.913977 94.988205 
L 279.549285 94.415164 
L 276.184592 93.742654 
L 272.8199 93.032072 
L 269.455207 92.267973 
L 266.090515 91.725122 
L 262.725823 91.052611 
L 259.36113 90.3404 
L 255.996438 89.726683 
L 252.631746 89.231737 
L 249.267053 88.713388 
L 245.902361 88.040278 
L 242.537668 87.17377 
L 239.172976 86.548273 
L 235.808284 85.930584 
L 232.443591 85.327486 
L 229.078899 84.784769 
L 225.714207 84.169784 
L 222.349514 83.452259 
L 218.984822 82.657738 
L 215.620129 81.90274 
L 212.255437 81.145717 
L 208.890745 80.412459 
L 205.526052 79.803818 
L 202.16136 79.053762 
L 198.796668 78.259418 
L 195.431975 77.57806 
L 192.067283 76.796846 
L 188.70259 75.858579 
L 185.337898 75.09839 
L 181.973206 74.422363 
L 178.608513 73.716531 
L 175.243821 72.832496 
L 171.879129 72.07655 
L 168.514436 71.15696 
L 165.149744 70.145993 
L 161.785051 69.257067 
L 158.420359 68.281345 
L 155.055667 67.284986 
L 151.690974 66.240921 
L 148.326282 65.363747 
L 144.961589 64.358462 
L 141.596897 63.559009 
L 138.232205 62.218617 
L 134.867512 61.423648 
L 131.50282 60.315838 
L 128.138128 59.295282 
L 124.773435 58.155999 
L 121.408743 57.016716 
L 118.04405 55.932914 
L 114.679358 54.76796 
L 111.314666 53.640981 
L 107.949973 52.583458 
L 104.585281 51.615657 
L 101.220589 50.496345 
L 97.855896 49.43688 
L 94.491204 48.280234 
L 91.126511 47.061678 
L 87.761819 45.981972 
L 84.397127 44.842851 
L 81.032434 43.628808 
L 77.667742 42.513227 
L 74.30305 41.321981 
L 70.938357 39.996978 
L 67.573665 38.776307 
z
" clip-path="url(#p02456320fd)" style="fill: #e22c1f; fill-opacity: 0.15"/>
   </g>
   <g id="PolyCollection_2">
    <path d="M 67.573665 125.334497 
L 67.573665 160.264393 
L 70.938357 162.128738 
L 74.30305 163.781918 
L 77.667742 165.490518 
L 81.032434 167.123549 
L 84.397127 168.82959 
L 87.761819 170.604161 
L 91.126511 172.375051 
L 94.491204 174.048926 
L 97.855896 175.679024 
L 101.220589 177.327188 
L 104.585281 179.146946 
L 107.949973 180.781639 
L 111.314666 182.416332 
L 114.679358 184.051024 
L 118.04405 185.851809 
L 121.408743 187.709236 
L 124.773435 189.464594 
L 128.138128 191.166793 
L 131.50282 193.07149 
L 134.867512 195.146151 
L 138.232205 196.653146 
L 141.596897 198.376164 
L 144.961589 200.161519 
L 148.326282 201.949165 
L 151.690974 203.771579 
L 155.055667 205.618503 
L 158.420359 207.590111 
L 161.785051 209.639252 
L 165.149744 211.746399 
L 168.514436 213.853856 
L 171.879129 215.957427 
L 175.243821 217.85873 
L 178.608513 219.756369 
L 181.973206 221.652514 
L 185.337898 223.558185 
L 188.70259 225.750469 
L 192.067283 227.774571 
L 195.431975 229.867038 
L 198.796668 231.859433 
L 202.16136 233.840643 
L 205.526052 235.732667 
L 208.890745 237.756647 
L 212.255437 239.917037 
L 215.620129 241.837427 
L 218.984822 243.594424 
L 222.349514 245.821086 
L 225.714207 247.900064 
L 229.078899 250.280318 
L 232.443591 252.534107 
L 235.808284 254.727077 
L 239.172976 257.061296 
L 242.537668 259.290721 
L 245.902361 261.514727 
L 249.267053 263.760374 
L 252.631746 266.000277 
L 255.996438 268.250413 
L 259.36113 270.521488 
L 262.725823 272.694858 
L 266.090515 274.931142 
L 269.455207 277.040782 
L 272.8199 279.378763 
L 276.184592 281.604411 
L 279.549285 283.75943 
L 282.913977 285.91635 
L 286.278669 288.223746 
L 289.643362 290.595431 
L 293.008054 292.874627 
L 296.372746 295.201187 
L 299.737439 297.476224 
L 303.102131 299.683947 
L 306.466824 301.916624 
L 309.831516 304.176082 
L 313.196208 306.529602 
L 316.560901 308.883123 
L 319.925593 311.247642 
L 323.290286 313.587104 
L 326.654978 315.940863 
L 330.01967 318.15121 
L 333.384363 320.432636 
L 336.749055 322.801355 
L 340.113747 325.215658 
L 343.47844 327.6925 
L 346.843132 330.064804 
L 350.207825 332.418324 
L 353.572517 334.75464 
L 356.937209 337.082056 
L 360.301902 339.409472 
L 363.666594 341.78023 
L 367.031286 344.158281 
L 370.395979 346.536331 
L 373.760671 348.897972 
L 377.125364 351.25279 
L 380.490056 353.607609 
L 383.854748 355.965682 
L 387.219441 358.335012 
L 390.584133 360.704342 
L 393.948825 363.073672 
L 397.313518 365.527303 
L 400.67821 367.939943 
L 400.67821 302.159808 
L 400.67821 302.159808 
L 397.313518 300.701528 
L 393.948825 298.959331 
L 390.584133 297.184342 
L 387.219441 295.657277 
L 383.854748 294.223778 
L 380.490056 292.792083 
L 377.125364 291.360389 
L 373.760671 289.928694 
L 370.395979 288.503358 
L 367.031286 286.950334 
L 363.666594 285.22647 
L 360.301902 283.518806 
L 356.937209 281.813933 
L 353.572517 280.313745 
L 350.207825 278.860529 
L 346.843132 277.166233 
L 343.47844 275.421507 
L 340.113747 273.678042 
L 336.749055 272.022062 
L 333.384363 270.586308 
L 330.01967 269.15515 
L 326.654978 267.723992 
L 323.290286 266.292834 
L 319.925593 264.714914 
L 316.560901 263.092183 
L 313.196208 261.551158 
L 309.831516 259.96538 
L 306.466824 258.528581 
L 303.102131 256.939972 
L 299.737439 255.341619 
L 296.372746 253.746081 
L 293.008054 252.110659 
L 289.643362 250.407185 
L 286.278669 248.624239 
L 282.913977 246.811849 
L 279.549285 245.185632 
L 276.184592 243.615405 
L 272.8199 241.92958 
L 269.455207 240.218996 
L 266.090515 238.570608 
L 262.725823 237.041179 
L 259.36113 235.446191 
L 255.996438 233.786881 
L 252.631746 232.155621 
L 249.267053 230.524361 
L 245.902361 228.861876 
L 242.537668 227.16207 
L 239.172976 225.33112 
L 235.808284 223.59892 
L 232.443591 222.006184 
L 229.078899 220.119398 
L 225.714207 218.499877 
L 222.349514 216.746723 
L 218.984822 214.994734 
L 215.620129 213.187538 
L 212.255437 211.383715 
L 208.890745 209.683773 
L 205.526052 207.867017 
L 202.16136 205.903923 
L 198.796668 204.080878 
L 195.431975 202.172127 
L 192.067283 200.378499 
L 188.70259 198.617069 
L 185.337898 196.798391 
L 181.973206 194.994288 
L 178.608513 193.153917 
L 175.243821 191.148777 
L 171.879129 189.292449 
L 168.514436 187.69014 
L 165.149744 185.859759 
L 161.785051 184.030724 
L 158.420359 182.027853 
L 155.055667 180.018408 
L 151.690974 178.012429 
L 148.326282 176.268716 
L 144.961589 174.239849 
L 141.596897 172.316096 
L 138.232205 170.588182 
L 134.867512 168.577982 
L 131.50282 166.308291 
L 128.138128 164.127685 
L 124.773435 161.975304 
L 121.408743 159.965216 
L 118.04405 157.918279 
L 114.679358 155.906786 
L 111.314666 153.848315 
L 107.949973 151.727885 
L 104.585281 149.652896 
L 101.220589 147.675725 
L 97.855896 145.698554 
L 94.491204 143.596941 
L 91.126511 141.381892 
L 87.761819 139.166842 
L 84.397127 136.872249 
L 81.032434 134.535974 
L 77.667742 132.108942 
L 74.30305 129.690315 
L 70.938357 127.568381 
L 67.573665 125.334497 
z
" clip-path="url(#p02456320fd)" style="fill: #2e33a6; fill-opacity: 0.15"/>
   </g>
   <g id="PolyCollection_3">
    <path d="M 67.573665 105.887141 
L 67.573665 140.998415 
L 70.938357 141.243544 
L 74.30305 141.506378 
L 77.667742 141.68557 
L 81.032434 141.626976 
L 84.397127 141.784187 
L 87.761819 141.955691 
L 91.126511 142.127195 
L 94.491204 142.423587 
L 97.855896 142.896933 
L 101.220589 143.073759 
L 104.585281 143.434694 
L 107.949973 143.402114 
L 111.314666 144.001623 
L 114.679358 144.312169 
L 118.04405 144.580509 
L 121.408743 144.657321 
L 124.773435 144.874154 
L 128.138128 145.441326 
L 131.50282 145.936983 
L 134.867512 146.182142 
L 138.232205 146.430623 
L 141.596897 146.672372 
L 144.961589 147.052376 
L 148.326282 147.287809 
L 151.690974 147.534416 
L 155.055667 147.981598 
L 158.420359 148.441803 
L 161.785051 148.897114 
L 165.149744 149.422246 
L 168.514436 149.745681 
L 171.879129 150.256516 
L 175.243821 150.737408 
L 178.608513 151.261348 
L 181.973206 151.82747 
L 185.337898 152.402093 
L 188.70259 153.112986 
L 192.067283 153.685663 
L 195.431975 154.340456 
L 198.796668 155.000852 
L 202.16136 155.71484 
L 205.526052 156.350189 
L 208.890745 156.905686 
L 212.255437 157.404913 
L 215.620129 157.90414 
L 218.984822 158.485411 
L 222.349514 159.333919 
L 225.714207 159.776065 
L 229.078899 160.19098 
L 232.443591 160.620936 
L 235.808284 161.468801 
L 239.172976 162.42605 
L 242.537668 163.35188 
L 245.902361 164.194069 
L 249.267053 164.849056 
L 252.631746 165.806832 
L 255.996438 166.521889 
L 259.36113 167.118103 
L 262.725823 167.811739 
L 266.090515 168.655455 
L 269.455207 169.228433 
L 272.8199 170.015535 
L 276.184592 170.737991 
L 279.549285 171.505789 
L 282.913977 172.348233 
L 286.278669 173.157814 
L 289.643362 173.960047 
L 293.008054 174.750421 
L 296.372746 175.539176 
L 299.737439 176.288906 
L 303.102131 177.138281 
L 306.466824 178.041374 
L 309.831516 178.944421 
L 313.196208 179.84459 
L 316.560901 180.744758 
L 319.925593 181.590135 
L 323.290286 182.434717 
L 326.654978 183.279299 
L 330.01967 184.123881 
L 333.384363 184.96571 
L 336.749055 185.767135 
L 340.113747 186.48349 
L 343.47844 187.43537 
L 346.843132 188.33502 
L 350.207825 189.180928 
L 353.572517 190.026836 
L 356.937209 190.870418 
L 360.301902 191.811642 
L 363.666594 192.615766 
L 367.031286 193.509654 
L 370.395979 194.400416 
L 373.760671 195.287665 
L 377.125364 196.174579 
L 380.490056 197.028211 
L 383.854748 197.794334 
L 387.219441 198.548682 
L 390.584133 199.305171 
L 393.948825 200.146693 
L 397.313518 200.988061 
L 400.67821 201.829428 
L 400.67821 133.339131 
L 400.67821 133.339131 
L 397.313518 133.35333 
L 393.948825 133.367528 
L 390.584133 133.231881 
L 387.219441 133.07265 
L 383.854748 132.926917 
L 380.490056 132.948271 
L 377.125364 132.969624 
L 373.760671 132.95515 
L 370.395979 132.858593 
L 367.031286 132.763642 
L 363.666594 132.852547 
L 360.301902 133.042956 
L 356.937209 133.026008 
L 353.572517 132.840752 
L 350.207825 132.705577 
L 346.843132 132.722221 
L 343.47844 132.738282 
L 340.113747 132.577111 
L 336.749055 132.673337 
L 333.384363 132.710707 
L 330.01967 132.547103 
L 326.654978 132.438748 
L 323.290286 132.519871 
L 319.925593 132.624632 
L 316.560901 132.636776 
L 313.196208 132.510184 
L 309.831516 132.41402 
L 306.466824 132.424935 
L 303.102131 132.366486 
L 299.737439 132.268815 
L 296.372746 132.08367 
L 293.008054 131.902479 
L 289.643362 131.721602 
L 286.278669 131.602959 
L 282.913977 131.608643 
L 279.549285 131.614327 
L 276.184592 131.610995 
L 272.8199 131.541619 
L 269.455207 131.499555 
L 266.090515 131.409449 
L 262.725823 131.319343 
L 259.36113 131.237058 
L 255.996438 131.158537 
L 252.631746 131.081322 
L 249.267053 130.981748 
L 245.902361 130.896549 
L 242.537668 130.87161 
L 239.172976 130.753484 
L 235.808284 130.625012 
L 232.443591 130.547114 
L 229.078899 130.334292 
L 225.714207 130.110706 
L 222.349514 129.624358 
L 218.984822 129.445739 
L 215.620129 129.083747 
L 212.255437 128.694442 
L 208.890745 128.354717 
L 205.526052 127.991644 
L 202.16136 127.852469 
L 198.796668 127.564592 
L 195.431975 127.460902 
L 192.067283 127.085272 
L 188.70259 126.957515 
L 185.337898 126.830072 
L 181.973206 126.592259 
L 178.608513 126.285349 
L 175.243821 125.70046 
L 171.879129 125.37578 
L 168.514436 124.958941 
L 165.149744 124.665294 
L 161.785051 124.080099 
L 158.420359 123.493408 
L 155.055667 123.128966 
L 151.690974 122.561733 
L 148.326282 121.780962 
L 144.961589 121.269188 
L 141.596897 120.792327 
L 138.232205 120.200215 
L 134.867512 119.414282 
L 131.50282 118.692594 
L 128.138128 118.321342 
L 124.773435 117.775529 
L 121.408743 117.216302 
L 118.04405 116.344424 
L 114.679358 115.473105 
L 111.314666 114.866537 
L 107.949973 114.289502 
L 104.585281 113.682976 
L 101.220589 112.849151 
L 97.855896 112.263259 
L 94.491204 111.677367 
L 91.126511 111.091475 
L 87.761819 110.216202 
L 84.397127 109.531722 
L 81.032434 108.881165 
L 77.667742 108.229364 
L 74.30305 107.683747 
L 70.938357 106.888522 
L 67.573665 105.887141 
z
" clip-path="url(#p02456320fd)" style="fill: #e5a09c; fill-opacity: 0.15"/>
   </g>
   <g id="matplotlib.axis_1">
    <g id="xtick_1">
     <g id="line2d_1">
      <defs>
       <path id="m6249dc822b" d="M 0 0 
L 0 3.5 
" style="stroke: #000000; stroke-width: 0.8"/>
      </defs>
      <g>
       <use xlink:href="#m6249dc822b" x="51.210871" y="384.398125" style="stroke: #000000; stroke-width: 0.8"/>
      </g>
     </g>
     <g id="text_1">
      <text style="font: 10px 'DejaVu Sans', 'Bitstream Vera Sans', 'Computer Modern Sans Serif', 'Lucida Grande', 'Verdana', 'Geneva', 'Lucid', 'Arial', 'Helvetica', 'Avant Garde', sans-serif; text-anchor: middle" x="51.210871" y="398.996562" transform="rotate(-0 51.210871 398.996562)">0</text>
     </g>
    </g>
    <g id="xtick_2">
     <g id="line2d_2">
      <g>
       <use xlink:href="#m6249dc822b" x="92.953177" y="384.398125" style="stroke: #000000; stroke-width: 0.8"/>
      </g>
     </g>
     <g id="text_2">
      <text style="font: 10px 'DejaVu Sans', 'Bitstream Vera Sans', 'Computer Modern Sans Serif', 'Lucida Grande', 'Verdana', 'Geneva', 'Lucid', 'Arial', 'Helvetica', 'Avant Garde', sans-serif; text-anchor: middle" x="92.953177" y="398.996562" transform="rotate(-0 92.953177 398.996562)">500</text>
     </g>
    </g>
    <g id="xtick_3">
     <g id="line2d_3">
      <g>
       <use xlink:href="#m6249dc822b" x="134.695483" y="384.398125" style="stroke: #000000; stroke-width: 0.8"/>
      </g>
     </g>
     <g id="text_3">
      <text style="font: 10px 'DejaVu Sans', 'Bitstream Vera Sans', 'Computer Modern Sans Serif', 'Lucida Grande', 'Verdana', 'Geneva', 'Lucid', 'Arial', 'Helvetica', 'Avant Garde', sans-serif; text-anchor: middle" x="134.695483" y="398.996562" transform="rotate(-0 134.695483 398.996562)">1000</text>
     </g>
    </g>
    <g id="xtick_4">
     <g id="line2d_4">
      <g>
       <use xlink:href="#m6249dc822b" x="176.437789" y="384.398125" style="stroke: #000000; stroke-width: 0.8"/>
      </g>
     </g>
     <g id="text_4">
      <text style="font: 10px 'DejaVu Sans', 'Bitstream Vera Sans', 'Computer Modern Sans Serif', 'Lucida Grande', 'Verdana', 'Geneva', 'Lucid', 'Arial', 'Helvetica', 'Avant Garde', sans-serif; text-anchor: middle" x="176.437789" y="398.996562" transform="rotate(-0 176.437789 398.996562)">1500</text>
     </g>
    </g>
    <g id="xtick_5">
     <g id="line2d_5">
      <g>
       <use xlink:href="#m6249dc822b" x="218.180094" y="384.398125" style="stroke: #000000; stroke-width: 0.8"/>
      </g>
     </g>
     <g id="text_5">
      <text style="font: 10px 'DejaVu Sans', 'Bitstream Vera Sans', 'Computer Modern Sans Serif', 'Lucida Grande', 'Verdana', 'Geneva', 'Lucid', 'Arial', 'Helvetica', 'Avant Garde', sans-serif; text-anchor: middle" x="218.180094" y="398.996562" transform="rotate(-0 218.180094 398.996562)">2000</text>
     </g>
    </g>
    <g id="xtick_6">
     <g id="line2d_6">
      <g>
       <use xlink:href="#m6249dc822b" x="259.9224" y="384.398125" style="stroke: #000000; stroke-width: 0.8"/>
      </g>
     </g>
     <g id="text_6">
      <text style="font: 10px 'DejaVu Sans', 'Bitstream Vera Sans', 'Computer Modern Sans Serif', 'Lucida Grande', 'Verdana', 'Geneva', 'Lucid', 'Arial', 'Helvetica', 'Avant Garde', sans-serif; text-anchor: middle" x="259.9224" y="398.996562" transform="rotate(-0 259.9224 398.996562)">2500</text>
     </g>
    </g>
    <g id="xtick_7">
     <g id="line2d_7">
      <g>
       <use xlink:href="#m6249dc822b" x="301.664706" y="384.398125" style="stroke: #000000; stroke-width: 0.8"/>
      </g>
     </g>
     <g id="text_7">
      <text style="font: 10px 'DejaVu Sans', 'Bitstream Vera Sans', 'Computer Modern Sans Serif', 'Lucida Grande', 'Verdana', 'Geneva', 'Lucid', 'Arial', 'Helvetica', 'Avant Garde', sans-serif; text-anchor: middle" x="301.664706" y="398.996562" transform="rotate(-0 301.664706 398.996562)">3000</text>
     </g>
    </g>
    <g id="xtick_8">
     <g id="line2d_8">
      <g>
       <use xlink:href="#m6249dc822b" x="343.407012" y="384.398125" style="stroke: #000000; stroke-width: 0.8"/>
      </g>
     </g>
     <g id="text_8">
      <text style="font: 10px 'DejaVu Sans', 'Bitstream Vera Sans', 'Computer Modern Sans Serif', 'Lucida Grande', 'Verdana', 'Geneva', 'Lucid', 'Arial', 'Helvetica', 'Avant Garde', sans-serif; text-anchor: middle" x="343.407012" y="398.996562" transform="rotate(-0 343.407012 398.996562)">3500</text>
     </g>
    </g>
    <g id="xtick_9">
     <g id="line2d_9">
      <g>
       <use xlink:href="#m6249dc822b" x="385.149317" y="384.398125" style="stroke: #000000; stroke-width: 0.8"/>
      </g>
     </g>
     <g id="text_9">
      <text style="font: 10px 'DejaVu Sans', 'Bitstream Vera Sans', 'Computer Modern Sans Serif', 'Lucida Grande', 'Verdana', 'Geneva', 'Lucid', 'Arial', 'Helvetica', 'Avant Garde', sans-serif; text-anchor: middle" x="385.149317" y="398.996562" transform="rotate(-0 385.149317 398.996562)">4000</text>
     </g>
    </g>
    <g id="text_10">
     <text style="font: 12px 'DejaVu Sans', 'Bitstream Vera Sans', 'Computer Modern Sans Serif', 'Lucida Grande', 'Verdana', 'Geneva', 'Lucid', 'Arial', 'Helvetica', 'Avant Garde', sans-serif; text-anchor: middle" x="234.125937" y="414.194375" transform="rotate(-0 234.125937 414.194375)">Frequency (Hz)</text>
    </g>
   </g>
   <g id="matplotlib.axis_2">
    <g id="ytick_1">
     <g id="line2d_10">
      <defs>
       <path id="mc3c195db59" d="M 0 0 
L -3.5 0 
" style="stroke: #000000; stroke-width: 0.8"/>
      </defs>
      <g>
       <use xlink:href="#mc3c195db59" x="50.918438" y="358.34132" style="stroke: #000000; stroke-width: 0.8"/>
      </g>
     </g>
     <g id="text_11">
      <text style="font: 10px 'DejaVu Sans', 'Bitstream Vera Sans', 'Computer Modern Sans Serif', 'Lucida Grande', 'Verdana', 'Geneva', 'Lucid', 'Arial', 'Helvetica', 'Avant Garde', sans-serif; text-anchor: end" x="43.918438" y="362.140539" transform="rotate(-0 43.918438 362.140539)">−12</text>
     </g>
    </g>
    <g id="ytick_2">
     <g id="line2d_11">
      <g>
       <use xlink:href="#mc3c195db59" x="50.918438" y="305.967683" style="stroke: #000000; stroke-width: 0.8"/>
      </g>
     </g>
     <g id="text_12">
      <text style="font: 10px 'DejaVu Sans', 'Bitstream Vera Sans', 'Computer Modern Sans Serif', 'Lucida Grande', 'Verdana', 'Geneva', 'Lucid', 'Arial', 'Helvetica', 'Avant Garde', sans-serif; text-anchor: end" x="43.918438" y="309.766901" transform="rotate(-0 43.918438 309.766901)">−10</text>
     </g>
    </g>
    <g id="ytick_3">
     <g id="line2d_12">
      <g>
       <use xlink:href="#mc3c195db59" x="50.918438" y="253.594045" style="stroke: #000000; stroke-width: 0.8"/>
      </g>
     </g>
     <g id="text_13">
      <text style="font: 10px 'DejaVu Sans', 'Bitstream Vera Sans', 'Computer Modern Sans Serif', 'Lucida Grande', 'Verdana', 'Geneva', 'Lucid', 'Arial', 'Helvetica', 'Avant Garde', sans-serif; text-anchor: end" x="43.918438" y="257.393264" transform="rotate(-0 43.918438 257.393264)">−8</text>
     </g>
    </g>
    <g id="ytick_4">
     <g id="line2d_13">
      <g>
       <use xlink:href="#mc3c195db59" x="50.918438" y="201.220408" style="stroke: #000000; stroke-width: 0.8"/>
      </g>
     </g>
     <g id="text_14">
      <text style="font: 10px 'DejaVu Sans', 'Bitstream Vera Sans', 'Computer Modern Sans Serif', 'Lucida Grande', 'Verdana', 'Geneva', 'Lucid', 'Arial', 'Helvetica', 'Avant Garde', sans-serif; text-anchor: end" x="43.918438" y="205.019627" transform="rotate(-0 43.918438 205.019627)">−6</text>
     </g>
    </g>
    <g id="ytick_5">
     <g id="line2d_14">
      <g>
       <use xlink:href="#mc3c195db59" x="50.918438" y="148.846771" style="stroke: #000000; stroke-width: 0.8"/>
      </g>
     </g>
     <g id="text_15">
      <text style="font: 10px 'DejaVu Sans', 'Bitstream Vera Sans', 'Computer Modern Sans Serif', 'Lucida Grande', 'Verdana', 'Geneva', 'Lucid', 'Arial', 'Helvetica', 'Avant Garde', sans-serif; text-anchor: end" x="43.918438" y="152.64599" transform="rotate(-0 43.918438 152.64599)">−4</text>
     </g>
    </g>
    <g id="ytick_6">
     <g id="line2d_15">
      <g>
       <use xlink:href="#mc3c195db59" x="50.918438" y="96.473134" style="stroke: #000000; stroke-width: 0.8"/>
      </g>
     </g>
     <g id="text_16">
      <text style="font: 10px 'DejaVu Sans', 'Bitstream Vera Sans', 'Computer Modern Sans Serif', 'Lucida Grande', 'Verdana', 'Geneva', 'Lucid', 'Arial', 'Helvetica', 'Avant Garde', sans-serif; text-anchor: end" x="43.918438" y="100.272353" transform="rotate(-0 43.918438 100.272353)">−2</text>
     </g>
    </g>
    <g id="ytick_7">
     <g id="line2d_16">
      <g>
       <use xlink:href="#mc3c195db59" x="50.918438" y="44.099497" style="stroke: #000000; stroke-width: 0.8"/>
      </g>
     </g>
     <g id="text_17">
      <text style="font: 10px 'DejaVu Sans', 'Bitstream Vera Sans', 'Computer Modern Sans Serif', 'Lucida Grande', 'Verdana', 'Geneva', 'Lucid', 'Arial', 'Helvetica', 'Avant Garde', sans-serif; text-anchor: end" x="43.918438" y="47.898715" transform="rotate(-0 43.918438 47.898715)">0</text>
     </g>
    </g>
    <g id="text_18">
     <text style="font: 12px 'DejaVu Sans', 'Bitstream Vera Sans', 'Computer Modern Sans Serif', 'Lucida Grande', 'Verdana', 'Geneva', 'Lucid', 'Arial', 'Helvetica', 'Avant Garde', sans-serif; text-anchor: middle" x="16.318125" y="203.358125" transform="rotate(-90 16.318125 203.358125)">Predicted elevation − true elevation</text>
    </g>
   </g>
   <g id="line2d_17">
    <path d="M 67.573665 54.915209 
L 70.938357 55.866509 
L 74.30305 56.817809 
L 77.667742 57.769109 
L 81.032434 58.720409 
L 84.397127 59.67171 
L 87.761819 60.62301 
L 91.126511 61.57431 
L 94.491204 62.52561 
L 97.855896 63.47691 
L 101.220589 64.42821 
L 104.585281 65.37951 
L 107.949973 66.33081 
L 111.314666 67.28211 
L 114.679358 68.233411 
L 118.04405 69.184711 
L 121.408743 70.136011 
L 124.773435 71.087311 
L 128.138128 72.038611 
L 131.50282 72.989911 
L 134.867512 73.941211 
L 138.232205 74.892511 
L 141.596897 75.843812 
L 144.961589 76.795112 
L 148.326282 77.746412 
L 151.690974 78.697712 
L 155.055667 79.649012 
L 158.420359 80.600312 
L 161.785051 81.551612 
L 165.149744 82.502912 
L 168.514436 83.454212 
L 171.879129 84.405513 
L 175.243821 85.356813 
L 178.608513 86.308113 
L 181.973206 87.259413 
L 185.337898 88.210713 
L 188.70259 89.162013 
L 192.067283 90.113313 
L 195.431975 91.064613 
L 198.796668 92.015913 
L 202.16136 92.967214 
L 205.526052 93.918514 
L 208.890745 94.869814 
L 212.255437 95.821114 
L 215.620129 96.772414 
L 218.984822 97.723714 
L 222.349514 98.675014 
L 225.714207 99.626314 
L 229.078899 100.577614 
L 232.443591 101.528915 
L 235.808284 102.480215 
L 239.172976 103.431515 
L 242.537668 104.382815 
L 245.902361 105.334115 
L 249.267053 106.285415 
L 252.631746 107.236715 
L 255.996438 108.188015 
L 259.36113 109.139315 
L 262.725823 110.090616 
L 266.090515 111.041916 
L 269.455207 111.993216 
L 272.8199 112.944516 
L 276.184592 113.895816 
L 279.549285 114.847116 
L 282.913977 115.798416 
L 286.278669 116.749716 
L 289.643362 117.701016 
L 293.008054 118.652317 
L 296.372746 119.603617 
L 299.737439 120.554917 
L 303.102131 121.506217 
L 306.466824 122.457517 
L 309.831516 123.408817 
L 313.196208 124.360117 
L 316.560901 125.311417 
L 319.925593 126.262717 
L 323.290286 127.214018 
L 326.654978 128.165318 
L 330.01967 129.116618 
L 333.384363 130.067918 
L 336.749055 131.019218 
L 340.113747 131.970518 
L 343.47844 132.921818 
L 346.843132 133.873118 
L 350.207825 134.824418 
L 353.572517 135.775719 
L 356.937209 136.727019 
L 360.301902 137.678319 
L 363.666594 138.629619 
L 367.031286 139.580919 
L 370.395979 140.532219 
L 373.760671 141.483519 
L 377.125364 142.434819 
L 380.490056 143.386119 
L 383.854748 144.33742 
L 387.219441 145.28872 
L 390.584133 146.24002 
L 393.948825 147.19132 
L 397.313518 148.14262 
L 400.67821 149.09392 
" clip-path="url(#p02456320fd)" style="fill: none; stroke: #e22c1f; stroke-width: 2.25; stroke-linecap: square"/>
   </g>
   <g id="line2d_18">
    <path d="M 67.573665 142.581704 
L 70.938357 144.516994 
L 74.30305 146.452284 
L 77.667742 148.387574 
L 81.032434 150.322865 
L 84.397127 152.258155 
L 87.761819 154.193445 
L 91.126511 156.128735 
L 94.491204 158.064025 
L 97.855896 159.999315 
L 101.220589 161.934605 
L 104.585281 163.869895 
L 107.949973 165.805185 
L 111.314666 167.740475 
L 114.679358 169.675765 
L 118.04405 171.611055 
L 121.408743 173.546345 
L 124.773435 175.481635 
L 128.138128 177.416925 
L 131.50282 179.352215 
L 134.867512 181.287505 
L 138.232205 183.222795 
L 141.596897 185.158085 
L 144.961589 187.093375 
L 148.326282 189.028665 
L 151.690974 190.963955 
L 155.055667 192.899245 
L 158.420359 194.834535 
L 161.785051 196.769825 
L 165.149744 198.705115 
L 168.514436 200.640405 
L 171.879129 202.575695 
L 175.243821 204.510985 
L 178.608513 206.446275 
L 181.973206 208.381565 
L 185.337898 210.316855 
L 188.70259 212.252145 
L 192.067283 214.187435 
L 195.431975 216.122725 
L 198.796668 218.058015 
L 202.16136 219.993305 
L 205.526052 221.928595 
L 208.890745 223.863885 
L 212.255437 225.799175 
L 215.620129 227.734465 
L 218.984822 229.669755 
L 222.349514 231.605045 
L 225.714207 233.540335 
L 229.078899 235.475625 
L 232.443591 237.410915 
L 235.808284 239.346205 
L 239.172976 241.281495 
L 242.537668 243.216785 
L 245.902361 245.152075 
L 249.267053 247.087365 
L 252.631746 249.022655 
L 255.996438 250.957945 
L 259.36113 252.893235 
L 262.725823 254.828525 
L 266.090515 256.763815 
L 269.455207 258.699105 
L 272.8199 260.634395 
L 276.184592 262.569685 
L 279.549285 264.504975 
L 282.913977 266.440266 
L 286.278669 268.375556 
L 289.643362 270.310846 
L 293.008054 272.246136 
L 296.372746 274.181426 
L 299.737439 276.116716 
L 303.102131 278.052006 
L 306.466824 279.987296 
L 309.831516 281.922586 
L 313.196208 283.857876 
L 316.560901 285.793166 
L 319.925593 287.728456 
L 323.290286 289.663746 
L 326.654978 291.599036 
L 330.01967 293.534326 
L 333.384363 295.469616 
L 336.749055 297.404906 
L 340.113747 299.340196 
L 343.47844 301.275486 
L 346.843132 303.210776 
L 350.207825 305.146066 
L 353.572517 307.081356 
L 356.937209 309.016646 
L 360.301902 310.951936 
L 363.666594 312.887226 
L 367.031286 314.822516 
L 370.395979 316.757806 
L 373.760671 318.693096 
L 377.125364 320.628386 
L 380.490056 322.563676 
L 383.854748 324.498966 
L 387.219441 326.434256 
L 390.584133 328.369546 
L 393.948825 330.304836 
L 397.313518 332.240126 
L 400.67821 334.175416 
" clip-path="url(#p02456320fd)" style="fill: none; stroke: #2e33a6; stroke-width: 2.25; stroke-linecap: square"/>
   </g>
   <g id="line2d_19">
    <path d="M 67.573665 124.209542 
L 70.938357 124.635997 
L 74.30305 125.062452 
L 77.667742 125.488907 
L 81.032434 125.915361 
L 84.397127 126.341816 
L 87.761819 126.768271 
L 91.126511 127.194726 
L 94.491204 127.621181 
L 97.855896 128.047636 
L 101.220589 128.474091 
L 104.585281 128.900546 
L 107.949973 129.327001 
L 111.314666 129.753455 
L 114.679358 130.17991 
L 118.04405 130.606365 
L 121.408743 131.03282 
L 124.773435 131.459275 
L 128.138128 131.88573 
L 131.50282 132.312185 
L 134.867512 132.73864 
L 138.232205 133.165095 
L 141.596897 133.59155 
L 144.961589 134.018004 
L 148.326282 134.444459 
L 151.690974 134.870914 
L 155.055667 135.297369 
L 158.420359 135.723824 
L 161.785051 136.150279 
L 165.149744 136.576734 
L 168.514436 137.003189 
L 171.879129 137.429644 
L 175.243821 137.856099 
L 178.608513 138.282553 
L 181.973206 138.709008 
L 185.337898 139.135463 
L 188.70259 139.561918 
L 192.067283 139.988373 
L 195.431975 140.414828 
L 198.796668 140.841283 
L 202.16136 141.267738 
L 205.526052 141.694193 
L 208.890745 142.120647 
L 212.255437 142.547102 
L 215.620129 142.973557 
L 218.984822 143.400012 
L 222.349514 143.826467 
L 225.714207 144.252922 
L 229.078899 144.679377 
L 232.443591 145.105832 
L 235.808284 145.532287 
L 239.172976 145.958742 
L 242.537668 146.385196 
L 245.902361 146.811651 
L 249.267053 147.238106 
L 252.631746 147.664561 
L 255.996438 148.091016 
L 259.36113 148.517471 
L 262.725823 148.943926 
L 266.090515 149.370381 
L 269.455207 149.796836 
L 272.8199 150.22329 
L 276.184592 150.649745 
L 279.549285 151.0762 
L 282.913977 151.502655 
L 286.278669 151.92911 
L 289.643362 152.355565 
L 293.008054 152.78202 
L 296.372746 153.208475 
L 299.737439 153.63493 
L 303.102131 154.061385 
L 306.466824 154.487839 
L 309.831516 154.914294 
L 313.196208 155.340749 
L 316.560901 155.767204 
L 319.925593 156.193659 
L 323.290286 156.620114 
L 326.654978 157.046569 
L 330.01967 157.473024 
L 333.384363 157.899479 
L 336.749055 158.325933 
L 340.113747 158.752388 
L 343.47844 159.178843 
L 346.843132 159.605298 
L 350.207825 160.031753 
L 353.572517 160.458208 
L 356.937209 160.884663 
L 360.301902 161.311118 
L 363.666594 161.737573 
L 367.031286 162.164028 
L 370.395979 162.590482 
L 373.760671 163.016937 
L 377.125364 163.443392 
L 380.490056 163.869847 
L 383.854748 164.296302 
L 387.219441 164.722757 
L 390.584133 165.149212 
L 393.948825 165.575667 
L 397.313518 166.002122 
L 400.67821 166.428576 
" clip-path="url(#p02456320fd)" style="fill: none; stroke: #e5a09c; stroke-width: 2.25; stroke-linecap: square"/>
   </g>
   <g id="line2d_20">
    <path d="M 50.918438 44.099497 
L 417.333437 44.099497 
" clip-path="url(#p02456320fd)" style="fill: none; stroke-dasharray: 2.96,1.28; stroke-dashoffset: 0; stroke: #000000; stroke-opacity: 0.6; stroke-width: 0.8"/>
   </g>
   <g id="patch_3">
    <path d="M 50.918438 384.398125 
L 50.918438 22.318125 
" style="fill: none; stroke: #000000; stroke-width: 0.8; stroke-linejoin: miter; stroke-linecap: square"/>
   </g>
   <g id="patch_4">
    <path d="M 417.333437 384.398125 
L 417.333437 22.318125 
" style="fill: none; stroke: #000000; stroke-width: 0.8; stroke-linejoin: miter; stroke-linecap: square"/>
   </g>
   <g id="patch_5">
    <path d="M 50.918438 384.398125 
L 417.333437 384.398125 
" style="fill: none; stroke: #000000; stroke-width: 0.8; stroke-linejoin: miter; stroke-linecap: square"/>
   </g>
   <g id="patch_6">
    <path d="M 50.918438 22.318125 
L 417.333437 22.318125 
" style="fill: none; stroke: #000000; stroke-width: 0.8; stroke-linejoin: miter; stroke-linecap: square"/>
   </g>
   <g id="text_19">
    <text style="font: 12px 'DejaVu Sans', 'Bitstream Vera Sans', 'Computer Modern Sans Serif', 'Lucida Grande', 'Verdana', 'Geneva', 'Lucid', 'Arial', 'Helvetica', 'Avant Garde', sans-serif; text-anchor: middle" x="234.125937" y="16.318125" transform="rotate(-0 234.125937 16.318125)">DNN elevation error vs. frequency (linear fit per condition)</text>
   </g>
   <g id="legend_1">
    <g id="patch_7">
     <path d="M 57.918438 379.398125 
L 117.629375 379.398125 
Q 119.629375 379.398125 119.629375 377.398125 
L 119.629375 319.685625 
Q 119.629375 317.685625 117.629375 317.685625 
L 57.918438 317.685625 
Q 55.918438 317.685625 55.918438 319.685625 
L 55.918438 377.398125 
Q 55.918438 379.398125 57.918438 379.398125 
z
" style="fill: #ffffff; opacity: 0.8; stroke: #cccccc; stroke-linejoin: miter"/>
    </g>
    <g id="text_20">
     <text style="font: 10px 'DejaVu Sans', 'Bitstream Vera Sans', 'Computer Modern Sans Serif', 'Lucida Grande', 'Verdana', 'Geneva', 'Lucid', 'Arial', 'Helvetica', 'Avant Garde', sans-serif; text-anchor: start" x="63.91375" y="329.284063" transform="rotate(-0 63.91375 329.284063)">Condition</text>
    </g>
    <g id="line2d_21">
     <path d="M 59.918438 340.462187 
L 69.918438 340.462187 
L 79.918438 340.462187 
" style="fill: none; stroke: #e22c1f; stroke-width: 2.25; stroke-linecap: square"/>
    </g>
    <g id="text_21">
     <text style="font: 10px 'DejaVu Sans', 'Bitstream Vera Sans', 'Computer Modern Sans Serif', 'Lucida Grande', 'Verdana', 'Geneva', 'Lucid', 'Arial', 'Helvetica', 'Avant Garde', sans-serif; text-anchor: start" x="87.918438" y="343.962187" transform="rotate(-0 87.918438 343.962187)">flute</text>
    </g>
    <g id="line2d_22">
     <path d="M 59.918438 355.140312 
L 69.918438 355.140312 
L 79.918438 355.140312 
" style="fill: none; stroke: #2e33a6; stroke-width: 2.25; stroke-linecap: square"/>
    </g>
    <g id="text_22">
     <text style="font: 10px 'DejaVu Sans', 'Bitstream Vera Sans', 'Computer Modern Sans Serif', 'Lucida Grande', 'Verdana', 'Geneva', 'Lucid', 'Arial', 'Helvetica', 'Avant Garde', sans-serif; text-anchor: start" x="87.918438" y="358.640312" transform="rotate(-0 87.918438 358.640312)">viola</text>
    </g>
    <g id="line2d_23">
     <path d="M 59.918438 369.818437 
L 69.918438 369.818437 
L 79.918438 369.818437 
" style="fill: none; stroke: #e5a09c; stroke-width: 2.25; stroke-linecap: square"/>
    </g>
    <g id="text_23">
     <text style="font: 10px 'DejaVu Sans', 'Bitstream Vera Sans', 'Computer Modern Sans Serif', 'Lucida Grande', 'Verdana', 'Geneva', 'Lucid', 'Arial', 'Helvetica', 'Avant Garde', sans-serif; text-anchor: start" x="87.918438" y="373.318437" transform="rotate(-0 87.918438 373.318437)">piano</text>
    </g>
   </g>
  </g>
 </g>
 <defs>
  <clipPath id="p02456320fd">
   <rect x="50.918438" y="22.318125" width="366.415" height="362.08"/>
  </clipPath>
 </defs>
</svg>
