<?xml version="1.0" encoding="utf-8" standalone="no"?>
<!DOCTYPE svg PUBLIC "-//W3C//DTD SVG 1.1//EN"
  "http://www.w3.org/Graphics/SVG/1.1/DTD/svg11.dtd">
<svg xmlns:xlink="http://www.w3.org/1999/xlink" width="504pt" height="288pt" viewBox="0 0 504 288" xmlns="http://www.w3.org/2000/svg" version="1.1">
 <metadata>
  <rdf:RDF xmlns:dc="http://purl.org/dc/elements/1.1/" xmlns:cc="http://creativecommons.org/ns#" xmlns:rdf="http://www.w3.org/1999/02/22-rdf-syntax-ns#">
   <cc:Work>
    <dc:type rdf:resource="http://purl.org/dc/dcmitype/StillImage"/>
    <dc:date>2026-07-09T13:39:08.831929</dc:date>
    <dc:format>image/svg+xml</dc:format>
    <dc:creator>
     <cc:Agent>
      <dc:title>Matplotlib v3.9.4, https://matplotlib.org/</dc:title>
     </cc:Agent>
    </dc:creator>
   </cc:Work>
  </rdf:RDF>
 </metadata>
 <defs>
  <style type="text/css">*{stroke-linejoin: round; stroke-linecap: butt}</style>
 </defs>
 <g id="figure_1">
  <g id="patch_1">
   <path d="M 0 288 
L 504 288 
L 504 0 
L 0 0 
z
" style="fill: #ffffff"/>
  </g>
  <g id="axes_1">
   <g id="patch_2">
    <path d="M 44.66 246.04 
L 488.010393 246.04 
L 488.010393 26.16 
L 44.66 26.16 
z
" style="fill: #ffffff"/>
   </g>
   <g id="patch_3">
    <path d="M 64.812291 246.04 
L 84.964581 246.04 
L 84.964581 176.236825 
L 64.812291 176.236825 
z
" clip-path="url(#p12bd5aaf7c)" style="fill: #87ceeb; fill-opacity: 0.5; stroke: #000000; stroke-linejoin: miter"/>
   </g>
   <g id="patch_4">
    <path d="M 84.964581 246.04 
L 105.116872 246.04 
L 105.116872 141.335238 
L 84.964581 141.335238 
z
" clip-path="url(#p12bd5aaf7c)" style="fill: #87ceeb; fill-opacity: 0.5; stroke: #000000; stroke-linejoin: miter"/>
   </g>
   <g id="patch_5">
    <path d="M 105.116872 246.04 
L 125.269162 246.04 
L 125.269162 106.433651 
L 105.116872 106.433651 
z
" clip-path="url(#p12bd5aaf7c)" style="fill: #87ceeb; fill-opacity: 0.5; stroke: #000000; stroke-linejoin: miter"/>
   </g>
   <g id="patch_6">
    <path d="M 125.269162 246.04 
L 145.421453 246.04 
L 145.421453 36.630476 
L 125.269162 36.630476 
z
" clip-path="url(#p12bd5aaf7c)" style="fill: #87ceeb; fill-opacity: 0.5; stroke: #000000; stroke-linejoin: miter"/>
   </g>
   <g id="patch_7">
    <path d="M 145.421453 246.04 
L 165.573744 246.04 
L 165.573744 123.884444 
L 145.421453 123.884444 
z
" clip-path="url(#p12bd5aaf7c)" style="fill: #87ceeb; fill-opacity: 0.5; stroke: #000000; stroke-linejoin: miter"/>
   </g>
   <g id="patch_8">
    <path d="M 165.573744 246.04 
L 185.726034 246.04 
L 185.726034 164.602963 
L 165.573744 164.602963 
z
" clip-path="url(#p12bd5aaf7c)" style="fill: #87ceeb; fill-opacity: 0.5; stroke: #000000; stroke-linejoin: miter"/>
   </g>
   <g id="patch_9">
    <path d="M 185.726034 246.04 
L 205.878325 246.04 
L 205.878325 199.50455 
L 185.726034 199.50455 
z
" clip-path="url(#p12bd5aaf7c)" style="fill: #87ceeb; fill-opacity: 0.5; stroke: #000000; stroke-linejoin: miter"/>
   </g>
   <g id="patch_10">
    <path d="M 205.878325 246.04 
L 226.030615 246.04 
L 226.030615 216.955344 
L 205.878325 216.955344 
z
" clip-path="url(#p12bd5aaf7c)" style="fill: #87ceeb; fill-opacity: 0.5; stroke: #000000; stroke-linejoin: miter"/>
   </g>
   <g id="patch_11">
    <path d="M 226.030615 246.04 
L 246.182906 246.04 
L 246.182906 240.223069 
L 226.030615 240.223069 
z
" clip-path="url(#p12bd5aaf7c)" style="fill: #87ceeb; fill-opacity: 0.5; stroke: #000000; stroke-linejoin: miter"/>
   </g>
   <g id="patch_12">
    <path d="M 246.182906 246.04 
L 266.335196 246.04 
L 266.335196 199.50455 
L 246.182906 199.50455 
z
" clip-path="url(#p12bd5aaf7c)" style="fill: #87ceeb; fill-opacity: 0.5; stroke: #000000; stroke-linejoin: miter"/>
   </g>
   <g id="patch_13">
    <path d="M 266.335196 246.04 
L 286.487487 246.04 
L 286.487487 228.589206 
L 266.335196 228.589206 
z
" clip-path="url(#p12bd5aaf7c)" style="fill: #87ceeb; fill-opacity: 0.5; stroke: #000000; stroke-linejoin: miter"/>
   </g>
   <g id="patch_14">
    <path d="M 286.487487 246.04 
L 306.639778 246.04 
L 306.639778 228.589206 
L 286.487487 228.589206 
z
" clip-path="url(#p12bd5aaf7c)" style="fill: #87ceeb; fill-opacity: 0.5; stroke: #000000; stroke-linejoin: miter"/>
   </g>
   <g id="patch_15">
    <path d="M 306.639778 246.04 
L 326.792068 246.04 
L 326.792068 222.772275 
L 306.639778 222.772275 
z
" clip-path="url(#p12bd5aaf7c)" style="fill: #87ceeb; fill-opacity: 0.5; stroke: #000000; stroke-linejoin: miter"/>
   </g>
   <g id="patch_16">
    <path d="M 326.792068 246.04 
L 346.944359 246.04 
L 346.944359 222.772275 
L 326.792068 222.772275 
z
" clip-path="url(#p12bd5aaf7c)" style="fill: #87ceeb; fill-opacity: 0.5; stroke: #000000; stroke-linejoin: miter"/>
   </g>
   <g id="patch_17">
    <path d="M 346.944359 246.04 
L 367.096649 246.04 
L 367.096649 234.406138 
L 346.944359 234.406138 
z
" clip-path="url(#p12bd5aaf7c)" style="fill: #87ceeb; fill-opacity: 0.5; stroke: #000000; stroke-linejoin: miter"/>
   </g>
   <g id="patch_18">
    <path d="M 367.096649 246.04 
L 387.24894 246.04 
L 387.24894 246.04 
L 367.096649 246.04 
z
" clip-path="url(#p12bd5aaf7c)" style="fill: #87ceeb; fill-opacity: 0.5; stroke: #000000; stroke-linejoin: miter"/>
   </g>
   <g id="patch_19">
    <path d="M 387.24894 246.04 
L 407.401231 246.04 
L 407.401231 246.04 
L 387.24894 246.04 
z
" clip-path="url(#p12bd5aaf7c)" style="fill: #87ceeb; fill-opacity: 0.5; stroke: #000000; stroke-linejoin: miter"/>
   </g>
   <g id="patch_20">
    <path d="M 407.401231 246.04 
L 427.553521 246.04 
L 427.553521 240.223069 
L 407.401231 240.223069 
z
" clip-path="url(#p12bd5aaf7c)" style="fill: #87ceeb; fill-opacity: 0.5; stroke: #000000; stroke-linejoin: miter"/>
   </g>
   <g id="patch_21">
    <path d="M 427.553521 246.04 
L 447.705812 246.04 
L 447.705812 246.04 
L 427.553521 246.04 
z
" clip-path="url(#p12bd5aaf7c)" style="fill: #87ceeb; fill-opacity: 0.5; stroke: #000000; stroke-linejoin: miter"/>
   </g>
   <g id="patch_22">
    <path d="M 447.705812 246.04 
L 467.858102 246.04 
L 467.858102 240.223069 
L 447.705812 240.223069 
z
" clip-path="url(#p12bd5aaf7c)" style="fill: #87ceeb; fill-opacity: 0.5; stroke: #000000; stroke-linejoin: miter"/>
   </g>
   <g id="matplotlib.axis_1">
    <g id="xtick_1">
     <g id="line2d_1">
      <defs>
       <path id="mbb31549a0e" d="M 0 0 
L 0 3.5 
" style="stroke: #000000; stroke-width: 0.8"/>
      </defs>
      <g>
       <use xlink:href="#mbb31549a0e" x="112.622812" y="246.04" style="stroke: #000000; stroke-width: 0.8"/>
      </g>
     </g>
     <g id="text_1">
      <text style="font: 10px 'DejaVu Sans', 'Bitstream Vera Sans', 'Computer Modern Sans Serif', 'Lucida Grande', 'Verdana', 'Geneva', 'Lucid', 'Arial', 'Helvetica', 'Avant Garde', sans-serif; text-anchor: middle" x="112.622812" y="260.638438" transform="rotate(-0 112.622812 260.638438)">2000</text>
     </g>
    </g>
    <g id="xtick_2">
     <g id="line2d_2">
      <g>
       <use xlink:href="#mbb31549a0e" x="185.262152" y="246.04" style="stroke: #000000; stroke-width: 0.8"/>
      </g>
     </g>
     <g id="text_2">
      <text style="font: 10px 'DejaVu Sans', 'Bitstream Vera Sans', 'Computer Modern Sans Serif', 'Lucida Grande', 'Verdana', 'Geneva', 'Lucid', 'Arial', 'Helvetica', 'Avant Garde', sans-serif; text-anchor: middle" x="185.262152" y="260.638438" transform="rotate(-0 185.262152 260.638438)">4000</text>
     </g>
    </g>
    <g id="xtick_3">
     <g id="line2d_3">
      <g>
       <use xlink:href="#mbb31549a0e" x="257.901493" y="246.04" style="stroke: #000000; stroke-width: 0.8"/>
      </g>
     </g>
     <g id="text_3">
      <text style="font: 10px 'DejaVu Sans', 'Bitstream Vera Sans', 'Computer Modern Sans Serif', 'Lucida Grande', 'Verdana', 'Geneva', 'Lucid', 'Arial', 'Helvetica', 'Avant Garde', sans-serif; text-anchor: middle" x="257.901493" y="260.638438" transform="rotate(-0 257.901493 260.638438)">6000</text>
     </g>
    </g>
    <g id="xtick_4">
     <g id="line2d_4">
      <g>
       <use xlink:href="#mbb31549a0e" x="330.540833" y="246.04" style="stroke: #000000; stroke-width: 0.8"/>
      </g>
     </g>
     <g id="text_4">
      <text style="font: 10px 'DejaVu Sans', 'Bitstream Vera Sans', 'Computer Modern Sans Serif', 'Lucida Grande', 'Verdana', 'Geneva', 'Lucid', 'Arial', 'Helvetica', 'Avant Garde', sans-serif; text-anchor: middle" x="330.540833" y="260.638438" transform="rotate(-0 330.540833 260.638438)">8000</text>
     </g>
    </g>
    <g id="xtick_5">
     <g id="line2d_5">
      <g>
       <use xlink:href="#mbb31549a0e" x="403.180173" y="246.04" style="stroke: #000000; stroke-width: 0.8"/>
      </g>
     </g>
     <g id="text_5">
      <text style="font: 10px 'DejaVu Sans', 'Bitstream Vera Sans', 'Computer Modern Sans Serif', 'Lucida Grande', 'Verdana', 'Geneva', 'Lucid', 'Arial', 'Helvetica', 'Avant Garde', sans-serif; text-anchor: middle" x="403.180173" y="260.638438" transform="rotate(-0 403.180173 260.638438)">10000</text>
     </g>
    </g>
    <g id="xtick_6">
     <g id="line2d_6">
      <g>
       <use xlink:href="#mbb31549a0e" x="475.819514" y="246.04" style="stroke: #000000; stroke-width: 0.8"/>
      </g>
     </g>
     <g id="text_6">
      <text style="font: 10px 'DejaVu Sans', 'Bitstream Vera Sans', 'Computer Modern Sans Serif', 'Lucida Grande', 'Verdana', 'Geneva', 'Lucid', 'Arial', 'Helvetica', 'Avant Garde', sans-serif; text-anchor: middle" x="475.819514" y="260.638438" transform="rotate(-0 475.819514 260.638438)">12000</text>
     </g>
    </g>
    <g id="text_7">
     <text style="font: 10px 'DejaVu Sans', 'Bitstream Vera Sans', 'Computer Modern Sans Serif', 'Lucida Grande', 'Verdana', 'Geneva', 'Lucid', 'Arial', 'Helvetica', 'Avant Garde', sans-serif; text-anchor: middle" x="266.335196" y="274.316562" transform="rotate(-0 266.335196 274.316562)">Spectral centroid (Hz)</text>
    </g>
   </g>
   <g id="matplotlib.axis_2">
    <g id="ytick_1">
     <g id="line2d_7">
      <defs>
       <path id="mee780eb2ca" d="M 0 0 
L -3.5 0 
" style="stroke: #000000; stroke-width: 0.8"/>
      </defs>
      <g>
       <use xlink:href="#mee780eb2ca" x="44.66" y="246.04" style="stroke: #000000; stroke-width: 0.8"/>
      </g>
     </g>
     <g id="text_8">
      <text style="font: 10px 'DejaVu Sans', 'Bitstream Vera Sans', 'Computer Modern Sans Serif', 'Lucida Grande', 'Verdana', 'Geneva', 'Lucid', 'Arial', 'Helvetica', 'Avant Garde', sans-serif; text-anchor: end" x="37.66" y="249.839219" transform="rotate(-0 37.66 249.839219)">0</text>
     </g>
    </g>
    <g id="ytick_2">
     <g id="line2d_8">
      <g>
       <use xlink:href="#mee780eb2ca" x="44.66" y="216.955344" style="stroke: #000000; stroke-width: 0.8"/>
      </g>
     </g>
     <g id="text_9">
      <text style="font: 10px 'DejaVu Sans', 'Bitstream Vera Sans', 'Computer Modern Sans Serif', 'Lucida Grande', 'Verdana', 'Geneva', 'Lucid', 'Arial', 'Helvetica', 'Avant Garde', sans-serif; text-anchor: end" x="37.66" y="220.754563" transform="rotate(-0 37.66 220.754563)">5</text>
     </g>
    </g>
    <g id="ytick_3">
     <g id="line2d_9">
      <g>
       <use xlink:href="#mee780eb2ca" x="44.66" y="187.870688" style="stroke: #000000; stroke-width: 0.8"/>
      </g>
     </g>
     <g id="text_10">
      <text style="font: 10px 'DejaVu Sans', 'Bitstream Vera Sans', 'Computer Modern Sans Serif', 'Lucida Grande', 'Verdana', 'Geneva', 'Lucid', 'Arial', 'Helvetica', 'Avant Garde', sans-serif; text-anchor: end" x="37.66" y="191.669907" transform="rotate(-0 37.66 191.669907)">10</text>
     </g>
    </g>
    <g id="ytick_4">
     <g id="line2d_10">
      <g>
       <use xlink:href="#mee780eb2ca" x="44.66" y="158.786032" style="stroke: #000000; stroke-width: 0.8"/>
      </g>
     </g>
     <g id="text_11">
      <text style="font: 10px 'DejaVu Sans', 'Bitstream Vera Sans', 'Computer Modern Sans Serif', 'Lucida Grande', 'Verdana', 'Geneva', 'Lucid', 'Arial', 'Helvetica', 'Avant Garde', sans-serif; text-anchor: end" x="37.66" y="162.58525" transform="rotate(-0 37.66 162.58525)">15</text>
     </g>
    </g>
    <g id="ytick_5">
     <g id="line2d_11">
      <g>
       <use xlink:href="#mee780eb2ca" x="44.66" y="129.701376" style="stroke: #000000; stroke-width: 0.8"/>
      </g>
     </g>
     <g id="text_12">
      <text style="font: 10px 'DejaVu Sans', 'Bitstream Vera Sans', 'Computer Modern Sans Serif', 'Lucida Grande', 'Verdana', 'Geneva', 'Lucid', 'Arial', 'Helvetica', 'Avant Garde', sans-serif; text-anchor: end" x="37.66" y="133.500594" transform="rotate(-0 37.66 133.500594)">20</text>
     </g>
    </g>
    <g id="ytick_6">
     <g id="line2d_12">
      <g>
       <use xlink:href="#mee780eb2ca" x="44.66" y="100.61672" style="stroke: #000000; stroke-width: 0.8"/>
      </g>
     </g>
     <g id="text_13">
      <text style="font: 10px 'DejaVu Sans', 'Bitstream Vera Sans', 'Computer Modern Sans Serif', 'Lucida Grande', 'Verdana', 'Geneva', 'Lucid', 'Arial', 'Helvetica', 'Avant Garde', sans-serif; text-anchor: end" x="37.66" y="104.415938" transform="rotate(-0 37.66 104.415938)">25</text>
     </g>
    </g>
    <g id="ytick_7">
     <g id="line2d_13">
      <g>
       <use xlink:href="#mee780eb2ca" x="44.66" y="71.532063" style="stroke: #000000; stroke-width: 0.8"/>
      </g>
     </g>
     <g id="text_14">
      <text style="font: 10px 'DejaVu Sans', 'Bitstream Vera Sans', 'Computer Modern Sans Serif', 'Lucida Grande', 'Verdana', 'Geneva', 'Lucid', 'Arial', 'Helvetica', 'Avant Garde', sans-serif; text-anchor: end" x="37.66" y="75.331282" transform="rotate(-0 37.66 75.331282)">30</text>
     </g>
    </g>
    <g id="ytick_8">
     <g id="line2d_14">
      <g>
       <use xlink:href="#mee780eb2ca" x="44.66" y="42.447407" style="stroke: #000000; stroke-width: 0.8"/>
      </g>
     </g>
     <g id="text_15">
      <text style="font: 10px 'DejaVu Sans', 'Bitstream Vera Sans', 'Computer Modern Sans Serif', 'Lucida Grande', 'Verdana', 'Geneva', 'Lucid', 'Arial', 'Helvetica', 'Avant Garde', sans-serif; text-anchor: end" x="37.66" y="46.246626" transform="rotate(-0 37.66 46.246626)">35</text>
     </g>
    </g>
    <g id="text_16">
     <text style="font: 10px 'DejaVu Sans', 'Bitstream Vera Sans', 'Computer Modern Sans Serif', 'Lucida Grande', 'Verdana', 'Geneva', 'Lucid', 'Arial', 'Helvetica', 'Avant Garde', sans-serif; text-anchor: middle" x="18.855313" y="136.1" transform="rotate(-90 18.855313 136.1)">Number of training tones</text>
    </g>
   </g>
   <g id="line2d_15">
    <path d="M 64.812291 201.726197 
L 68.863002 195.192951 
L 72.913714 188.261045 
L 76.964426 180.973238 
L 83.040493 169.490672 
L 91.141916 153.535074 
L 99.24334 137.618223 
L 103.294052 130.035562 
L 107.344763 122.940007 
L 111.395475 116.526126 
L 113.420831 113.636294 
L 115.446187 110.989674 
L 117.471542 108.608726 
L 119.496898 106.514256 
L 121.522254 104.724962 
L 123.54761 103.257028 
L 125.572966 102.123738 
L 127.598322 101.335159 
L 129.623677 100.89788 
L 131.649033 100.81483 
L 133.674389 101.085177 
L 135.699745 101.704316 
L 137.725101 102.663938 
L 139.750457 103.9522 
L 141.775812 105.553956 
L 143.801168 107.451083 
L 145.826524 109.622855 
L 147.85188 112.046381 
L 149.877236 114.697068 
L 153.927947 120.576026 
L 157.978659 127.047796 
L 164.054727 137.415957 
L 174.181506 155.00437 
L 180.257573 165.053262 
L 184.308285 171.3854 
L 188.358997 177.378569 
L 192.409708 183.010888 
L 196.46042 188.268079 
L 200.511132 193.13811 
L 204.561843 197.607913 
L 208.612555 201.66244 
L 212.663267 205.285928 
L 216.713978 208.464914 
L 220.76469 211.192222 
L 224.815402 213.471038 
L 228.866113 215.318178 
L 232.916825 216.765786 
L 236.967537 217.861013 
L 241.018248 218.663538 
L 245.06896 219.241222 
L 251.145028 219.839394 
L 267.347874 221.191092 
L 277.474654 222.379636 
L 291.652144 224.104845 
L 299.753568 224.847836 
L 311.905703 225.655348 
L 320.007126 226.256575 
L 326.083194 226.911054 
L 332.159261 227.830913 
L 338.235329 229.054673 
L 344.311396 230.570202 
L 350.387464 232.315993 
L 370.641022 238.411972 
L 376.71709 239.903018 
L 382.793157 241.113875 
L 388.869225 242.035248 
L 394.945292 242.693299 
L 401.02136 243.138073 
L 409.122783 243.501307 
L 421.274918 243.787938 
L 439.503121 243.968393 
L 467.858102 244.082492 
L 467.858102 244.082492 
" clip-path="url(#p12bd5aaf7c)" style="fill: none; stroke: #87ceeb; stroke-width: 1.5; stroke-linecap: square"/>
   </g>
   <g id="patch_23">
    <path d="M 44.66 246.04 
L 44.66 26.16 
" style="fill: none; stroke: #000000; stroke-width: 0.8; stroke-linejoin: miter; stroke-linecap: square"/>
   </g>
   <g id="patch_24">
    <path d="M 488.010393 246.04 
L 488.010393 26.16 
" style="fill: none; stroke: #000000; stroke-width: 0.8; stroke-linejoin: miter; stroke-linecap: square"/>
   </g>
   <g id="patch_25">
    <path d="M 44.66 246.04 
L 488.010393 246.04 
" style="fill: none; stroke: #000000; stroke-width: 0.8; stroke-linejoin: miter; stroke-linecap: square"/>
   </g>
   <g id="patch_26">
    <path d="M 44.66 26.16 
L 488.010393 26.16 
" style="fill: none; stroke: #000000; stroke-width: 0.8; stroke-linejoin: miter; stroke-linecap: square"/>
   </g>
   <g id="text_17">
    <text style="font: 12px 'DejaVu Sans', 'Bitstream Vera Sans', 'Computer Modern Sans Serif', 'Lucida Grande', 'Verdana', 'Geneva', 'Lucid', 'Arial', 'Helvetica', 'Avant Garde', sans-serif; text-anchor: middle" x="266.335196" y="20.16" transform="rotate(-0 266.335196 20.16)">Distribution of average spectral centroid of training tones</text>
   </g>
  </g>
 </g>
 <defs>
  <clipPath id="p12bd5aaf7c">
   <rect x="44.66" y="26.16" width="443.350393" height="219.88"/>
  </clipPath>
 </defs>
</svg>
