<?xml version="1.0" encoding="utf-8" standalone="no"?>
<!DOCTYPE svg PUBLIC "-//W3C//DTD SVG 1.1//EN"
  "http://www.w3.org/Graphics/SVG/1.1/DTD/svg11.dtd">
<svg xmlns:xlink="http://www.w3.org/1999/xlink" width="504pt" height="288pt" viewBox="0 0 504 288" xmlns="http://www.w3.org/2000/svg" version="1.1">
 <metadata>
  <rdf:RDF xmlns:dc="http://purl.org/dc/elements/1.1/" xmlns:cc="http://creativecommons.org/ns#" xmlns:rdf="http://www.w3.org/1999/02/22-rdf-syntax-ns#">
   <cc:Work>
    <dc:type rdf:resource="http://purl.org/dc/dcmitype/StillImage"/>
    <dc:date>2026-06-09T16:34:52.486286</dc:date>
    <dc:format>image/svg+xml</dc:format>
    <dc:creator>
     <cc:Agent>
      <dc:title>Matplotlib v3.8.0, https://matplotlib.org/</dc:title>
     </cc:Agent>
    </dc:creator>
   </cc:Work>
  </rdf:RDF>
 </metadata>
 <defs>
  <style type="text/css">*{stroke-linejoin: round; stroke-linecap: butt}</style>
 </defs>
 <g id="figure_1">
  <g id="patch_1">
   <path d="M 0 288 
L 504 288 
L 504 0 
L 0 0 
z
" style="fill: #ffffff"/>
  </g>
  <g id="axes_1">
   <g id="patch_2">
    <path d="M 47.72 246.04 
L 493.2 246.04 
L 493.2 26.88 
L 47.72 26.88 
z
" style="fill: #ffffff"/>
   </g>
   <g id="patch_3">
    <path d="M 67.969091 246.04 
L 88.218182 246.04 
L 88.218182 106.890794 
L 67.969091 106.890794 
z
" clip-path="url(#p38062b22c4)" style="fill: #87ceeb; fill-opacity: 0.5; stroke: #000000; stroke-linejoin: miter"/>
   </g>
   <g id="patch_4">
    <path d="M 88.218182 246.04 
L 108.467273 246.04 
L 108.467273 246.04 
L 88.218182 246.04 
z
" clip-path="url(#p38062b22c4)" style="fill: #87ceeb; fill-opacity: 0.5; stroke: #000000; stroke-linejoin: miter"/>
   </g>
   <g id="patch_5">
    <path d="M 108.467273 246.04 
L 128.716364 246.04 
L 128.716364 246.04 
L 108.467273 246.04 
z
" clip-path="url(#p38062b22c4)" style="fill: #87ceeb; fill-opacity: 0.5; stroke: #000000; stroke-linejoin: miter"/>
   </g>
   <g id="patch_6">
    <path d="M 128.716364 246.04 
L 148.965455 246.04 
L 148.965455 106.890794 
L 128.716364 106.890794 
z
" clip-path="url(#p38062b22c4)" style="fill: #87ceeb; fill-opacity: 0.5; stroke: #000000; stroke-linejoin: miter"/>
   </g>
   <g id="patch_7">
    <path d="M 148.965455 246.04 
L 169.214545 246.04 
L 169.214545 37.31619 
L 148.965455 37.31619 
z
" clip-path="url(#p38062b22c4)" style="fill: #87ceeb; fill-opacity: 0.5; stroke: #000000; stroke-linejoin: miter"/>
   </g>
   <g id="patch_8">
    <path d="M 169.214545 246.04 
L 189.463636 246.04 
L 189.463636 176.465397 
L 169.214545 176.465397 
z
" clip-path="url(#p38062b22c4)" style="fill: #87ceeb; fill-opacity: 0.5; stroke: #000000; stroke-linejoin: miter"/>
   </g>
   <g id="patch_9">
    <path d="M 189.463636 246.04 
L 209.712727 246.04 
L 209.712727 106.890794 
L 189.463636 106.890794 
z
" clip-path="url(#p38062b22c4)" style="fill: #87ceeb; fill-opacity: 0.5; stroke: #000000; stroke-linejoin: miter"/>
   </g>
   <g id="patch_10">
    <path d="M 209.712727 246.04 
L 229.961818 246.04 
L 229.961818 176.465397 
L 209.712727 176.465397 
z
" clip-path="url(#p38062b22c4)" style="fill: #87ceeb; fill-opacity: 0.5; stroke: #000000; stroke-linejoin: miter"/>
   </g>
   <g id="patch_11">
    <path d="M 229.961818 246.04 
L 250.210909 246.04 
L 250.210909 176.465397 
L 229.961818 176.465397 
z
" clip-path="url(#p38062b22c4)" style="fill: #87ceeb; fill-opacity: 0.5; stroke: #000000; stroke-linejoin: miter"/>
   </g>
   <g id="patch_12">
    <path d="M 250.210909 246.04 
L 270.46 246.04 
L 270.46 246.04 
L 250.210909 246.04 
z
" clip-path="url(#p38062b22c4)" style="fill: #87ceeb; fill-opacity: 0.5; stroke: #000000; stroke-linejoin: miter"/>
   </g>
   <g id="patch_13">
    <path d="M 270.46 246.04 
L 290.709091 246.04 
L 290.709091 246.04 
L 270.46 246.04 
z
" clip-path="url(#p38062b22c4)" style="fill: #87ceeb; fill-opacity: 0.5; stroke: #000000; stroke-linejoin: miter"/>
   </g>
   <g id="patch_14">
    <path d="M 290.709091 246.04 
L 310.958182 246.04 
L 310.958182 246.04 
L 290.709091 246.04 
z
" clip-path="url(#p38062b22c4)" style="fill: #87ceeb; fill-opacity: 0.5; stroke: #000000; stroke-linejoin: miter"/>
   </g>
   <g id="patch_15">
    <path d="M 310.958182 246.04 
L 331.207273 246.04 
L 331.207273 246.04 
L 310.958182 246.04 
z
" clip-path="url(#p38062b22c4)" style="fill: #87ceeb; fill-opacity: 0.5; stroke: #000000; stroke-linejoin: miter"/>
   </g>
   <g id="patch_16">
    <path d="M 331.207273 246.04 
L 351.456364 246.04 
L 351.456364 246.04 
L 331.207273 246.04 
z
" clip-path="url(#p38062b22c4)" style="fill: #87ceeb; fill-opacity: 0.5; stroke: #000000; stroke-linejoin: miter"/>
   </g>
   <g id="patch_17">
    <path d="M 351.456364 246.04 
L 371.705455 246.04 
L 371.705455 246.04 
L 351.456364 246.04 
z
" clip-path="url(#p38062b22c4)" style="fill: #87ceeb; fill-opacity: 0.5; stroke: #000000; stroke-linejoin: miter"/>
   </g>
   <g id="patch_18">
    <path d="M 371.705455 246.04 
L 391.954545 246.04 
L 391.954545 246.04 
L 371.705455 246.04 
z
" clip-path="url(#p38062b22c4)" style="fill: #87ceeb; fill-opacity: 0.5; stroke: #000000; stroke-linejoin: miter"/>
   </g>
   <g id="patch_19">
    <path d="M 391.954545 246.04 
L 412.203636 246.04 
L 412.203636 246.04 
L 391.954545 246.04 
z
" clip-path="url(#p38062b22c4)" style="fill: #87ceeb; fill-opacity: 0.5; stroke: #000000; stroke-linejoin: miter"/>
   </g>
   <g id="patch_20">
    <path d="M 412.203636 246.04 
L 432.452727 246.04 
L 432.452727 246.04 
L 412.203636 246.04 
z
" clip-path="url(#p38062b22c4)" style="fill: #87ceeb; fill-opacity: 0.5; stroke: #000000; stroke-linejoin: miter"/>
   </g>
   <g id="patch_21">
    <path d="M 432.452727 246.04 
L 452.701818 246.04 
L 452.701818 246.04 
L 432.452727 246.04 
z
" clip-path="url(#p38062b22c4)" style="fill: #87ceeb; fill-opacity: 0.5; stroke: #000000; stroke-linejoin: miter"/>
   </g>
   <g id="patch_22">
    <path d="M 452.701818 246.04 
L 472.950909 246.04 
L 472.950909 176.465397 
L 452.701818 176.465397 
z
" clip-path="url(#p38062b22c4)" style="fill: #87ceeb; fill-opacity: 0.5; stroke: #000000; stroke-linejoin: miter"/>
   </g>
   <g id="matplotlib.axis_1">
    <g id="xtick_1">
     <g id="line2d_1">
      <defs>
       <path id="mafe14d8b28" d="M 0 0 
L 0 3.5 
" style="stroke: #000000; stroke-width: 0.8"/>
      </defs>
      <g>
       <use xlink:href="#mafe14d8b28" x="81.812809" y="246.04" style="stroke: #000000; stroke-width: 0.8"/>
      </g>
     </g>
     <g id="text_1">
      <text style="font: 10px 'DejaVu Sans', 'Bitstream Vera Sans', 'Computer Modern Sans Serif', 'Lucida Grande', 'Verdana', 'Geneva', 'Lucid', 'Arial', 'Helvetica', 'Avant Garde', sans-serif; text-anchor: middle" x="81.812809" y="260.638438" transform="rotate(-0 81.812809 260.638438)">1000</text>
     </g>
    </g>
    <g id="xtick_2">
     <g id="line2d_2">
      <g>
       <use xlink:href="#mafe14d8b28" x="155.659542" y="246.04" style="stroke: #000000; stroke-width: 0.8"/>
      </g>
     </g>
     <g id="text_2">
      <text style="font: 10px 'DejaVu Sans', 'Bitstream Vera Sans', 'Computer Modern Sans Serif', 'Lucida Grande', 'Verdana', 'Geneva', 'Lucid', 'Arial', 'Helvetica', 'Avant Garde', sans-serif; text-anchor: middle" x="155.659542" y="260.638438" transform="rotate(-0 155.659542 260.638438)">2000</text>
     </g>
    </g>
    <g id="xtick_3">
     <g id="line2d_3">
      <g>
       <use xlink:href="#mafe14d8b28" x="229.506276" y="246.04" style="stroke: #000000; stroke-width: 0.8"/>
      </g>
     </g>
     <g id="text_3">
      <text style="font: 10px 'DejaVu Sans', 'Bitstream Vera Sans', 'Computer Modern Sans Serif', 'Lucida Grande', 'Verdana', 'Geneva', 'Lucid', 'Arial', 'Helvetica', 'Avant Garde', sans-serif; text-anchor: middle" x="229.506276" y="260.638438" transform="rotate(-0 229.506276 260.638438)">3000</text>
     </g>
    </g>
    <g id="xtick_4">
     <g id="line2d_4">
      <g>
       <use xlink:href="#mafe14d8b28" x="303.35301" y="246.04" style="stroke: #000000; stroke-width: 0.8"/>
      </g>
     </g>
     <g id="text_4">
      <text style="font: 10px 'DejaVu Sans', 'Bitstream Vera Sans', 'Computer Modern Sans Serif', 'Lucida Grande', 'Verdana', 'Geneva', 'Lucid', 'Arial', 'Helvetica', 'Avant Garde', sans-serif; text-anchor: middle" x="303.35301" y="260.638438" transform="rotate(-0 303.35301 260.638438)">4000</text>
     </g>
    </g>
    <g id="xtick_5">
     <g id="line2d_5">
      <g>
       <use xlink:href="#mafe14d8b28" x="377.199744" y="246.04" style="stroke: #000000; stroke-width: 0.8"/>
      </g>
     </g>
     <g id="text_5">
      <text style="font: 10px 'DejaVu Sans', 'Bitstream Vera Sans', 'Computer Modern Sans Serif', 'Lucida Grande', 'Verdana', 'Geneva', 'Lucid', 'Arial', 'Helvetica', 'Avant Garde', sans-serif; text-anchor: middle" x="377.199744" y="260.638438" transform="rotate(-0 377.199744 260.638438)">5000</text>
     </g>
    </g>
    <g id="xtick_6">
     <g id="line2d_6">
      <g>
       <use xlink:href="#mafe14d8b28" x="451.046477" y="246.04" style="stroke: #000000; stroke-width: 0.8"/>
      </g>
     </g>
     <g id="text_6">
      <text style="font: 10px 'DejaVu Sans', 'Bitstream Vera Sans', 'Computer Modern Sans Serif', 'Lucida Grande', 'Verdana', 'Geneva', 'Lucid', 'Arial', 'Helvetica', 'Avant Garde', sans-serif; text-anchor: middle" x="451.046477" y="260.638438" transform="rotate(-0 451.046477 260.638438)">6000</text>
     </g>
    </g>
    <g id="text_7">
     <text style="font: 10px 'DejaVu Sans', 'Bitstream Vera Sans', 'Computer Modern Sans Serif', 'Lucida Grande', 'Verdana', 'Geneva', 'Lucid', 'Arial', 'Helvetica', 'Avant Garde', sans-serif; text-anchor: middle" x="270.46" y="274.316562" transform="rotate(-0 270.46 274.316562)">Spectral centroid (Hz)</text>
    </g>
   </g>
   <g id="matplotlib.axis_2">
    <g id="ytick_1">
     <g id="line2d_7">
      <defs>
       <path id="mb365b6fd11" d="M 0 0 
L -3.5 0 
" style="stroke: #000000; stroke-width: 0.8"/>
      </defs>
      <g>
       <use xlink:href="#mb365b6fd11" x="47.72" y="246.04" style="stroke: #000000; stroke-width: 0.8"/>
      </g>
     </g>
     <g id="text_8">
      <text style="font: 10px 'DejaVu Sans', 'Bitstream Vera Sans', 'Computer Modern Sans Serif', 'Lucida Grande', 'Verdana', 'Geneva', 'Lucid', 'Arial', 'Helvetica', 'Avant Garde', sans-serif; text-anchor: end" x="40.72" y="249.839219" transform="rotate(-0 40.72 249.839219)">0.0</text>
     </g>
    </g>
    <g id="ytick_2">
     <g id="line2d_8">
      <g>
       <use xlink:href="#mb365b6fd11" x="47.72" y="211.252698" style="stroke: #000000; stroke-width: 0.8"/>
      </g>
     </g>
     <g id="text_9">
      <text style="font: 10px 'DejaVu Sans', 'Bitstream Vera Sans', 'Computer Modern Sans Serif', 'Lucida Grande', 'Verdana', 'Geneva', 'Lucid', 'Arial', 'Helvetica', 'Avant Garde', sans-serif; text-anchor: end" x="40.72" y="215.051917" transform="rotate(-0 40.72 215.051917)">0.5</text>
     </g>
    </g>
    <g id="ytick_3">
     <g id="line2d_9">
      <g>
       <use xlink:href="#mb365b6fd11" x="47.72" y="176.465397" style="stroke: #000000; stroke-width: 0.8"/>
      </g>
     </g>
     <g id="text_10">
      <text style="font: 10px 'DejaVu Sans', 'Bitstream Vera Sans', 'Computer Modern Sans Serif', 'Lucida Grande', 'Verdana', 'Geneva', 'Lucid', 'Arial', 'Helvetica', 'Avant Garde', sans-serif; text-anchor: end" x="40.72" y="180.264616" transform="rotate(-0 40.72 180.264616)">1.0</text>
     </g>
    </g>
    <g id="ytick_4">
     <g id="line2d_10">
      <g>
       <use xlink:href="#mb365b6fd11" x="47.72" y="141.678095" style="stroke: #000000; stroke-width: 0.8"/>
      </g>
     </g>
     <g id="text_11">
      <text style="font: 10px 'DejaVu Sans', 'Bitstream Vera Sans', 'Computer Modern Sans Serif', 'Lucida Grande', 'Verdana', 'Geneva', 'Lucid', 'Arial', 'Helvetica', 'Avant Garde', sans-serif; text-anchor: end" x="40.72" y="145.477314" transform="rotate(-0 40.72 145.477314)">1.5</text>
     </g>
    </g>
    <g id="ytick_5">
     <g id="line2d_11">
      <g>
       <use xlink:href="#mb365b6fd11" x="47.72" y="106.890794" style="stroke: #000000; stroke-width: 0.8"/>
      </g>
     </g>
     <g id="text_12">
      <text style="font: 10px 'DejaVu Sans', 'Bitstream Vera Sans', 'Computer Modern Sans Serif', 'Lucida Grande', 'Verdana', 'Geneva', 'Lucid', 'Arial', 'Helvetica', 'Avant Garde', sans-serif; text-anchor: end" x="40.72" y="110.690012" transform="rotate(-0 40.72 110.690012)">2.0</text>
     </g>
    </g>
    <g id="ytick_6">
     <g id="line2d_12">
      <g>
       <use xlink:href="#mb365b6fd11" x="47.72" y="72.103492" style="stroke: #000000; stroke-width: 0.8"/>
      </g>
     </g>
     <g id="text_13">
      <text style="font: 10px 'DejaVu Sans', 'Bitstream Vera Sans', 'Computer Modern Sans Serif', 'Lucida Grande', 'Verdana', 'Geneva', 'Lucid', 'Arial', 'Helvetica', 'Avant Garde', sans-serif; text-anchor: end" x="40.72" y="75.902711" transform="rotate(-0 40.72 75.902711)">2.5</text>
     </g>
    </g>
    <g id="ytick_7">
     <g id="line2d_13">
      <g>
       <use xlink:href="#mb365b6fd11" x="47.72" y="37.31619" style="stroke: #000000; stroke-width: 0.8"/>
      </g>
     </g>
     <g id="text_14">
      <text style="font: 10px 'DejaVu Sans', 'Bitstream Vera Sans', 'Computer Modern Sans Serif', 'Lucida Grande', 'Verdana', 'Geneva', 'Lucid', 'Arial', 'Helvetica', 'Avant Garde', sans-serif; text-anchor: end" x="40.72" y="41.115409" transform="rotate(-0 40.72 41.115409)">3.0</text>
     </g>
    </g>
    <g id="text_15">
     <text style="font: 10px 'DejaVu Sans', 'Bitstream Vera Sans', 'Computer Modern Sans Serif', 'Lucida Grande', 'Verdana', 'Geneva', 'Lucid', 'Arial', 'Helvetica', 'Avant Garde', sans-serif; text-anchor: middle" x="18.737188" y="136.46" transform="rotate(-90 18.737188 136.46)">Number of training tones</text>
    </g>
   </g>
   <g id="line2d_14">
    <path d="M 67.969091 207.066628 
L 78.144513 201.394448 
L 90.355021 194.312846 
L 112.74095 181.256499 
L 120.881288 176.780806 
L 126.986542 173.62793 
L 133.091795 170.707144 
L 139.197049 168.070877 
L 145.302302 165.77055 
L 149.372471 164.447806 
L 153.44264 163.309393 
L 157.51281 162.367482 
L 161.582979 161.63287 
L 165.653148 161.114774 
L 169.723317 160.820658 
L 173.793486 160.756079 
L 177.863655 160.924575 
L 181.933824 161.327579 
L 186.003993 161.964377 
L 190.074162 162.8321 
L 194.144331 163.92575 
L 198.2145 165.238265 
L 202.284669 166.760617 
L 206.354838 168.481936 
L 210.425007 170.38967 
L 216.53026 173.569671 
L 222.635514 177.084384 
L 228.740767 180.876028 
L 236.881106 186.256505 
L 247.056528 193.295575 
L 265.372289 206.002098 
L 273.512627 211.35633 
L 279.61788 215.162752 
L 285.723134 218.752533 
L 291.828387 222.09958 
L 297.933641 225.184629 
L 304.038894 227.994957 
L 310.144148 230.523912 
L 316.249402 232.7703 
L 322.354655 234.737671 
L 328.459909 236.433544 
L 334.565162 237.868626 
L 340.670416 239.056056 
L 346.775669 240.010728 
L 352.880923 240.748695 
L 358.986176 241.286706 
L 365.09143 241.641862 
L 373.231768 241.860752 
L 381.372106 241.826127 
L 389.512444 241.579023 
L 399.687867 241.034533 
L 411.898374 240.144865 
L 446.49481 237.455282 
L 456.670233 236.939089 
L 466.845656 236.655976 
L 472.950909 236.611128 
L 472.950909 236.611128 
" clip-path="url(#p38062b22c4)" style="fill: none; stroke: #87ceeb; stroke-width: 1.5; stroke-linecap: square"/>
   </g>
   <g id="patch_23">
    <path d="M 47.72 246.04 
L 47.72 26.88 
" style="fill: none; stroke: #000000; stroke-width: 0.8; stroke-linejoin: miter; stroke-linecap: square"/>
   </g>
   <g id="patch_24">
    <path d="M 493.2 246.04 
L 493.2 26.88 
" style="fill: none; stroke: #000000; stroke-width: 0.8; stroke-linejoin: miter; stroke-linecap: square"/>
   </g>
   <g id="patch_25">
    <path d="M 47.72 246.04 
L 493.2 246.04 
" style="fill: none; stroke: #000000; stroke-width: 0.8; stroke-linejoin: miter; stroke-linecap: square"/>
   </g>
   <g id="patch_26">
    <path d="M 47.72 26.88 
L 493.2 26.88 
" style="fill: none; stroke: #000000; stroke-width: 0.8; stroke-linejoin: miter; stroke-linecap: square"/>
   </g>
   <g id="text_16">
    <text style="font: 12px 'DejaVu Sans', 'Bitstream Vera Sans', 'Computer Modern Sans Serif', 'Lucida Grande', 'Verdana', 'Geneva', 'Lucid', 'Arial', 'Helvetica', 'Avant Garde', sans-serif; text-anchor: middle" x="270.46" y="20.88" transform="rotate(-0 270.46 20.88)">Distribution of average spectral centroid of training tones</text>
   </g>
  </g>
 </g>
 <defs>
  <clipPath id="p38062b22c4">
   <rect x="47.72" y="26.88" width="445.48" height="219.16"/>
  </clipPath>
 </defs>
</svg>
