<?xml version="1.0" encoding="utf-8" standalone="no"?>
<!DOCTYPE svg PUBLIC "-//W3C//DTD SVG 1.1//EN"
  "http://www.w3.org/Graphics/SVG/1.1/DTD/svg11.dtd">
<svg xmlns:xlink="http://www.w3.org/1999/xlink" width="504pt" height="324pt" viewBox="0 0 504 324" xmlns="http://www.w3.org/2000/svg" version="1.1">
 <metadata>
  <rdf:RDF xmlns:dc="http://purl.org/dc/elements/1.1/" xmlns:cc="http://creativecommons.org/ns#" xmlns:rdf="http://www.w3.org/1999/02/22-rdf-syntax-ns#">
   <cc:Work>
    <dc:type rdf:resource="http://purl.org/dc/dcmitype/StillImage"/>
    <dc:date>2026-07-10T10:57:01.013655</dc:date>
    <dc:format>image/svg+xml</dc:format>
    <dc:creator>
     <cc:Agent>
      <dc:title>Matplotlib v3.9.4, https://matplotlib.org/</dc:title>
     </cc:Agent>
    </dc:creator>
   </cc:Work>
  </rdf:RDF>
 </metadata>
 <defs>
  <style type="text/css">*{stroke-linejoin: round; stroke-linecap: butt}</style>
 </defs>
 <g id="figure_1">
  <g id="patch_1">
   <path d="M 0 324 
L 504 324 
L 504 0 
L 0 0 
z
" style="fill: #ffffff"/>
  </g>
  <g id="axes_1">
   <g id="patch_2">
    <path d="M 52.94 278.728 
L 493.2 278.728 
L 493.2 26.88 
L 52.94 26.88 
z
" style="fill: #ffffff"/>
   </g>
   <g id="matplotlib.axis_1">
    <g id="xtick_1">
     <g id="line2d_1">
      <defs>
       <path id="mb103812475" d="M 0 0 
L 0 3.5 
" style="stroke: #000000; stroke-width: 0.8"/>
      </defs>
      <g>
       <use xlink:href="#mb103812475" x="203.611641" y="278.728" style="stroke: #000000; stroke-width: 0.8"/>
      </g>
     </g>
     <g id="text_1">
      <!-- $\mathdefault{10^{3}}$ -->
      <g transform="translate(194.811641 293.326437)">
       <text>
        <tspan style="font: 10px 'DejaVu Sans'" x="0 6.362305" y="-0.9765625">10</tspan>
        <tspan style="font: 7px 'DejaVu Sans'" x="12.820312" y="-4.8046875">3</tspan>
       </text>
      </g>
     </g>
    </g>
    <g id="xtick_2">
     <g id="line2d_2">
      <g>
       <use xlink:href="#mb103812475" x="419.174025" y="278.728" style="stroke: #000000; stroke-width: 0.8"/>
      </g>
     </g>
     <g id="text_2">
      <!-- $\mathdefault{10^{4}}$ -->
      <g transform="translate(410.374025 293.326437)">
       <text>
        <tspan style="font: 10px 'DejaVu Sans'" x="0 6.362305" y="-0.06406250000000036">10</tspan>
        <tspan style="font: 7px 'DejaVu Sans'" x="12.820312" y="-3.8921875000000004">4</tspan>
       </text>
      </g>
     </g>
    </g>
    <g id="xtick_3">
     <g id="line2d_3">
      <defs>
       <path id="ma5616c5d48" d="M 0 0 
L 0 2 
" style="stroke: #000000; stroke-width: 0.6"/>
      </defs>
      <g>
       <use xlink:href="#ma5616c5d48" x="52.94" y="278.728" style="stroke: #000000; stroke-width: 0.6"/>
      </g>
     </g>
    </g>
    <g id="xtick_4">
     <g id="line2d_4">
      <g>
       <use xlink:href="#ma5616c5d48" x="90.898652" y="278.728" style="stroke: #000000; stroke-width: 0.6"/>
      </g>
     </g>
    </g>
    <g id="xtick_5">
     <g id="line2d_5">
      <g>
       <use xlink:href="#ma5616c5d48" x="117.830744" y="278.728" style="stroke: #000000; stroke-width: 0.6"/>
      </g>
     </g>
    </g>
    <g id="xtick_6">
     <g id="line2d_6">
      <g>
       <use xlink:href="#ma5616c5d48" x="138.720897" y="278.728" style="stroke: #000000; stroke-width: 0.6"/>
      </g>
     </g>
    </g>
    <g id="xtick_7">
     <g id="line2d_7">
      <g>
       <use xlink:href="#ma5616c5d48" x="155.789395" y="278.728" style="stroke: #000000; stroke-width: 0.6"/>
      </g>
     </g>
    </g>
    <g id="xtick_8">
     <g id="line2d_8">
      <g>
       <use xlink:href="#ma5616c5d48" x="170.220605" y="278.728" style="stroke: #000000; stroke-width: 0.6"/>
      </g>
     </g>
    </g>
    <g id="xtick_9">
     <g id="line2d_9">
      <g>
       <use xlink:href="#ma5616c5d48" x="182.721487" y="278.728" style="stroke: #000000; stroke-width: 0.6"/>
      </g>
     </g>
    </g>
    <g id="xtick_10">
     <g id="line2d_10">
      <g>
       <use xlink:href="#ma5616c5d48" x="193.748047" y="278.728" style="stroke: #000000; stroke-width: 0.6"/>
      </g>
     </g>
    </g>
    <g id="xtick_11">
     <g id="line2d_11">
      <g>
       <use xlink:href="#ma5616c5d48" x="268.502384" y="278.728" style="stroke: #000000; stroke-width: 0.6"/>
      </g>
     </g>
    </g>
    <g id="xtick_12">
     <g id="line2d_12">
      <g>
       <use xlink:href="#ma5616c5d48" x="306.461036" y="278.728" style="stroke: #000000; stroke-width: 0.6"/>
      </g>
     </g>
    </g>
    <g id="xtick_13">
     <g id="line2d_13">
      <g>
       <use xlink:href="#ma5616c5d48" x="333.393128" y="278.728" style="stroke: #000000; stroke-width: 0.6"/>
      </g>
     </g>
    </g>
    <g id="xtick_14">
     <g id="line2d_14">
      <g>
       <use xlink:href="#ma5616c5d48" x="354.283281" y="278.728" style="stroke: #000000; stroke-width: 0.6"/>
      </g>
     </g>
    </g>
    <g id="xtick_15">
     <g id="line2d_15">
      <g>
       <use xlink:href="#ma5616c5d48" x="371.351779" y="278.728" style="stroke: #000000; stroke-width: 0.6"/>
      </g>
     </g>
    </g>
    <g id="xtick_16">
     <g id="line2d_16">
      <g>
       <use xlink:href="#ma5616c5d48" x="385.782989" y="278.728" style="stroke: #000000; stroke-width: 0.6"/>
      </g>
     </g>
    </g>
    <g id="xtick_17">
     <g id="line2d_17">
      <g>
       <use xlink:href="#ma5616c5d48" x="398.283871" y="278.728" style="stroke: #000000; stroke-width: 0.6"/>
      </g>
     </g>
    </g>
    <g id="xtick_18">
     <g id="line2d_18">
      <g>
       <use xlink:href="#ma5616c5d48" x="409.310431" y="278.728" style="stroke: #000000; stroke-width: 0.6"/>
      </g>
     </g>
    </g>
    <g id="xtick_19">
     <g id="line2d_19">
      <g>
       <use xlink:href="#ma5616c5d48" x="484.064768" y="278.728" style="stroke: #000000; stroke-width: 0.6"/>
      </g>
     </g>
    </g>
    <g id="text_3">
     <text style="font: 10px 'DejaVu Sans', 'Bitstream Vera Sans', 'Computer Modern Sans Serif', 'Lucida Grande', 'Verdana', 'Geneva', 'Lucid', 'Arial', 'Helvetica', 'Avant Garde', sans-serif; text-anchor: middle" x="273.07" y="307.004563" transform="rotate(-0 273.07 307.004563)">Frequency (Hz)</text>
    </g>
   </g>
   <g id="matplotlib.axis_2">
    <g id="ytick_1">
     <g id="line2d_20">
      <defs>
       <path id="m5fbb9fc6cd" d="M 0 0 
L -3.5 0 
" style="stroke: #000000; stroke-width: 0.8"/>
      </defs>
      <g>
       <use xlink:href="#m5fbb9fc6cd" x="52.94" y="264.736444" style="stroke: #000000; stroke-width: 0.8"/>
      </g>
     </g>
     <g id="text_4">
      <text style="font: 10px 'DejaVu Sans', 'Bitstream Vera Sans', 'Computer Modern Sans Serif', 'Lucida Grande', 'Verdana', 'Geneva', 'Lucid', 'Arial', 'Helvetica', 'Avant Garde', sans-serif; text-anchor: end" x="45.94" y="268.535663" transform="rotate(-0 45.94 268.535663)">−40</text>
     </g>
    </g>
    <g id="ytick_2">
     <g id="line2d_21">
      <g>
       <use xlink:href="#m5fbb9fc6cd" x="52.94" y="236.753333" style="stroke: #000000; stroke-width: 0.8"/>
      </g>
     </g>
     <g id="text_5">
      <text style="font: 10px 'DejaVu Sans', 'Bitstream Vera Sans', 'Computer Modern Sans Serif', 'Lucida Grande', 'Verdana', 'Geneva', 'Lucid', 'Arial', 'Helvetica', 'Avant Garde', sans-serif; text-anchor: end" x="45.94" y="240.552552" transform="rotate(-0 45.94 240.552552)">−30</text>
     </g>
    </g>
    <g id="ytick_3">
     <g id="line2d_22">
      <g>
       <use xlink:href="#m5fbb9fc6cd" x="52.94" y="208.770222" style="stroke: #000000; stroke-width: 0.8"/>
      </g>
     </g>
     <g id="text_6">
      <text style="font: 10px 'DejaVu Sans', 'Bitstream Vera Sans', 'Computer Modern Sans Serif', 'Lucida Grande', 'Verdana', 'Geneva', 'Lucid', 'Arial', 'Helvetica', 'Avant Garde', sans-serif; text-anchor: end" x="45.94" y="212.569441" transform="rotate(-0 45.94 212.569441)">−20</text>
     </g>
    </g>
    <g id="ytick_4">
     <g id="line2d_23">
      <g>
       <use xlink:href="#m5fbb9fc6cd" x="52.94" y="180.787111" style="stroke: #000000; stroke-width: 0.8"/>
      </g>
     </g>
     <g id="text_7">
      <text style="font: 10px 'DejaVu Sans', 'Bitstream Vera Sans', 'Computer Modern Sans Serif', 'Lucida Grande', 'Verdana', 'Geneva', 'Lucid', 'Arial', 'Helvetica', 'Avant Garde', sans-serif; text-anchor: end" x="45.94" y="184.58633" transform="rotate(-0 45.94 184.58633)">−10</text>
     </g>
    </g>
    <g id="ytick_5">
     <g id="line2d_24">
      <g>
       <use xlink:href="#m5fbb9fc6cd" x="52.94" y="152.804" style="stroke: #000000; stroke-width: 0.8"/>
      </g>
     </g>
     <g id="text_8">
      <text style="font: 10px 'DejaVu Sans', 'Bitstream Vera Sans', 'Computer Modern Sans Serif', 'Lucida Grande', 'Verdana', 'Geneva', 'Lucid', 'Arial', 'Helvetica', 'Avant Garde', sans-serif; text-anchor: end" x="45.94" y="156.603219" transform="rotate(-0 45.94 156.603219)">0</text>
     </g>
    </g>
    <g id="ytick_6">
     <g id="line2d_25">
      <g>
       <use xlink:href="#m5fbb9fc6cd" x="52.94" y="124.820889" style="stroke: #000000; stroke-width: 0.8"/>
      </g>
     </g>
     <g id="text_9">
      <text style="font: 10px 'DejaVu Sans', 'Bitstream Vera Sans', 'Computer Modern Sans Serif', 'Lucida Grande', 'Verdana', 'Geneva', 'Lucid', 'Arial', 'Helvetica', 'Avant Garde', sans-serif; text-anchor: end" x="45.94" y="128.620108" transform="rotate(-0 45.94 128.620108)">10</text>
     </g>
    </g>
    <g id="ytick_7">
     <g id="line2d_26">
      <g>
       <use xlink:href="#m5fbb9fc6cd" x="52.94" y="96.837778" style="stroke: #000000; stroke-width: 0.8"/>
      </g>
     </g>
     <g id="text_10">
      <text style="font: 10px 'DejaVu Sans', 'Bitstream Vera Sans', 'Computer Modern Sans Serif', 'Lucida Grande', 'Verdana', 'Geneva', 'Lucid', 'Arial', 'Helvetica', 'Avant Garde', sans-serif; text-anchor: end" x="45.94" y="100.636997" transform="rotate(-0 45.94 100.636997)">20</text>
     </g>
    </g>
    <g id="ytick_8">
     <g id="line2d_27">
      <g>
       <use xlink:href="#m5fbb9fc6cd" x="52.94" y="68.854667" style="stroke: #000000; stroke-width: 0.8"/>
      </g>
     </g>
     <g id="text_11">
      <text style="font: 10px 'DejaVu Sans', 'Bitstream Vera Sans', 'Computer Modern Sans Serif', 'Lucida Grande', 'Verdana', 'Geneva', 'Lucid', 'Arial', 'Helvetica', 'Avant Garde', sans-serif; text-anchor: end" x="45.94" y="72.653885" transform="rotate(-0 45.94 72.653885)">30</text>
     </g>
    </g>
    <g id="ytick_9">
     <g id="line2d_28">
      <g>
       <use xlink:href="#m5fbb9fc6cd" x="52.94" y="40.871556" style="stroke: #000000; stroke-width: 0.8"/>
      </g>
     </g>
     <g id="text_12">
      <text style="font: 10px 'DejaVu Sans', 'Bitstream Vera Sans', 'Computer Modern Sans Serif', 'Lucida Grande', 'Verdana', 'Geneva', 'Lucid', 'Arial', 'Helvetica', 'Avant Garde', sans-serif; text-anchor: end" x="45.94" y="44.670774" transform="rotate(-0 45.94 44.670774)">40</text>
     </g>
    </g>
    <g id="text_13">
     <text style="font: 10px 'DejaVu Sans', 'Bitstream Vera Sans', 'Computer Modern Sans Serif', 'Lucida Grande', 'Verdana', 'Geneva', 'Lucid', 'Arial', 'Helvetica', 'Avant Garde', sans-serif; text-anchor: middle" x="18.755625" y="152.804" transform="rotate(-90 18.755625 152.804)">Elevation of maximum HRTF gain (°)</text>
    </g>
   </g>
   <g id="line2d_29">
    <path d="M -1 90.616388 
L 12.032703 80.047911 
L 38.964795 222.761778 
L 59.854948 80.047911 
L 76.923447 80.047911 
L 91.354656 136.014133 
L 103.855539 166.795556 
L 114.882098 80.047911 
L 124.745692 166.795556 
L 133.668398 191.980356 
L 141.81419 191.980356 
L 149.307593 222.761778 
L 156.2454 222.761778 
L 162.704344 218.564311 
L 168.746282 250.744889 
L 184.834483 250.744889 
L 189.636436 222.761778 
L 194.204051 264.736444 
L 198.559141 250.744889 
L 206.704934 250.744889 
L 210.526589 264.736444 
L 214.198336 222.761778 
L 217.731493 222.761778 
L 221.136143 263.337289 
L 224.421307 264.736444 
L 227.595087 250.744889 
L 230.66479 80.047911 
L 233.637026 250.744889 
L 236.517793 250.744889 
L 239.312555 110.829333 
L 242.026297 80.047911 
L 244.663585 263.337289 
L 247.22861 264.736444 
L 249.725226 264.736444 
L 252.156988 110.829333 
L 254.527179 264.736444 
L 256.838841 263.337289 
L 259.094795 264.736444 
L 261.297663 136.014133 
L 263.449885 264.736444 
L 265.553739 166.795556 
L 271.595677 166.795556 
L 273.526005 191.980356 
L 292.485831 191.980356 
L 294.033264 222.761778 
L 317.047731 222.761778 
L 318.240328 136.014133 
L 319.417923 136.014133 
L 320.580889 250.744889 
L 322.864357 250.744889 
L 323.985539 110.829333 
L 325.093452 80.047911 
L 326.188406 80.047911 
L 327.270702 250.744889 
L 328.340629 250.744889 
L 329.398465 110.829333 
L 330.444482 110.829333 
L 331.478941 250.744889 
L 333.514185 250.744889 
L 334.515452 136.014133 
L 335.506123 110.829333 
L 338.416748 110.829333 
L 339.367188 136.014133 
L 340.308076 52.0648 
L 341.239602 250.744889 
L 345.763069 250.744889 
L 346.642113 52.0648 
L 348.375821 52.0648 
L 349.230782 222.761778 
L 350.078006 52.0648 
L 416.640536 52.0648 
L 417.053859 191.980356 
L 417.875071 191.980356 
L 418.282991 166.795556 
L 421.089723 166.795556 
L 421.483903 136.014133 
L 434.328336 136.014133 
L 434.670631 191.980356 
L 448.906397 191.980356 
L 449.19941 166.795556 
L 449.491509 191.980356 
L 449.782699 191.980356 
L 450.072986 166.795556 
L 450.362376 166.795556 
L 450.650874 191.980356 
L 457.052189 191.980356 
L 457.320819 166.795556 
L 457.588681 191.980356 
L 457.855778 166.795556 
L 460.485658 166.795556 
L 460.744628 136.014133 
L 465.040924 136.014133 
L 465.287611 222.761778 
L 466.996453 222.761778 
L 467.238047 250.744889 
L 467.479019 222.761778 
L 468.436751 222.761778 
L 468.674662 191.980356 
L 469.855226 191.980356 
L 470.089563 218.564311 
L 470.323315 191.980356 
L 471.021089 191.980356 
L 471.252529 222.761778 
L 471.483399 218.564311 
L 471.7137 222.761778 
L 471.943437 218.564311 
L 472.172611 191.980356 
L 472.401225 222.761778 
L 473.761311 222.761778 
L 473.986083 218.564311 
L 474.210316 191.980356 
L 474.434014 222.761778 
L 474.657179 222.761778 
L 474.879813 191.980356 
L 479.436839 191.980356 
L 479.648405 52.0648 
L 479.859493 191.980356 
L 480.070106 52.0648 
L 480.280246 52.0648 
L 480.489916 191.980356 
L 480.699118 52.0648 
L 481.116123 52.0648 
L 481.323931 191.980356 
L 481.531279 52.0648 
L 481.738169 222.761778 
L 481.944602 52.0648 
L 482.150582 191.980356 
L 482.356109 52.0648 
L 482.561186 222.761778 
L 482.765814 191.980356 
L 482.969997 191.980356 
L 483.173735 218.564311 
L 483.37703 52.0648 
L 483.579885 191.980356 
L 483.782301 52.0648 
L 483.984281 191.980356 
L 484.185826 52.0648 
L 484.386938 191.980356 
L 484.587619 52.0648 
L 488.1282 52.0648 
L 488.321027 80.047911 
L 488.513458 52.0648 
L 488.705494 80.047911 
L 488.897137 52.0648 
L 489.088389 80.047911 
L 489.27925 52.0648 
L 489.469724 80.047911 
L 489.65981 80.047911 
L 489.849511 52.0648 
L 490.038829 80.047911 
L 490.227765 52.0648 
L 490.41632 80.047911 
L 490.604496 52.0648 
L 490.792294 80.047911 
L 490.979717 52.0648 
L 491.166765 80.047911 
L 491.35344 52.0648 
L 491.539744 80.047911 
L 491.725677 80.047911 
L 491.911242 52.0648 
L 492.09644 80.047911 
L 492.281273 52.0648 
L 492.465741 80.047911 
L 492.649846 52.0648 
L 492.83359 80.047911 
L 493.016974 52.0648 
L 493.016974 52.0648 
" clip-path="url(#p8e4d6a1135)" style="fill: none; stroke-dasharray: 4.44,1.92; stroke-dashoffset: 0; stroke: #737373; stroke-width: 1.2"/>
   </g>
   <g id="LineCollection_1">
    <path d="M 114.882098 211.215875 
L 114.882098 122.522515 
" clip-path="url(#p8e4d6a1135)" style="fill: none; stroke: #000000; stroke-width: 2"/>
    <path d="M 208.179256 269.437815 
L 208.179256 203.469213 
" clip-path="url(#p8e4d6a1135)" style="fill: none; stroke: #000000; stroke-width: 2"/>
    <path d="M 262.211699 234.401106 
L 262.211699 159.891831 
" clip-path="url(#p8e4d6a1135)" style="fill: none; stroke: #000000; stroke-width: 2"/>
    <path d="M 316.686181 236.361597 
L 316.686181 152.100745 
" clip-path="url(#p8e4d6a1135)" style="fill: none; stroke: #000000; stroke-width: 2"/>
    <path d="M 371.159969 84.506011 
L 371.159969 33.649692 
" clip-path="url(#p8e4d6a1135)" style="fill: none; stroke: #000000; stroke-width: 2"/>
    <path d="M 445.650423 187.057131 
L 445.650423 99.177286 
" clip-path="url(#p8e4d6a1135)" style="fill: none; stroke: #000000; stroke-width: 2"/>
   </g>
   <g id="line2d_30">
    <defs>
     <path id="m0f5836bc67" d="M 4 0 
L -4 -0 
" style="stroke: #000000"/>
    </defs>
    <g clip-path="url(#p8e4d6a1135)">
     <use xlink:href="#m0f5836bc67" x="114.882098" y="211.215875" style="stroke: #000000"/>
     <use xlink:href="#m0f5836bc67" x="208.179256" y="269.437815" style="stroke: #000000"/>
     <use xlink:href="#m0f5836bc67" x="262.211699" y="234.401106" style="stroke: #000000"/>
     <use xlink:href="#m0f5836bc67" x="316.686181" y="236.361597" style="stroke: #000000"/>
     <use xlink:href="#m0f5836bc67" x="371.159969" y="84.506011" style="stroke: #000000"/>
     <use xlink:href="#m0f5836bc67" x="445.650423" y="187.057131" style="stroke: #000000"/>
    </g>
   </g>
   <g id="line2d_31">
    <g clip-path="url(#p8e4d6a1135)">
     <use xlink:href="#m0f5836bc67" x="114.882098" y="122.522515" style="stroke: #000000"/>
     <use xlink:href="#m0f5836bc67" x="208.179256" y="203.469213" style="stroke: #000000"/>
     <use xlink:href="#m0f5836bc67" x="262.211699" y="159.891831" style="stroke: #000000"/>
     <use xlink:href="#m0f5836bc67" x="316.686181" y="152.100745" style="stroke: #000000"/>
     <use xlink:href="#m0f5836bc67" x="371.159969" y="33.649692" style="stroke: #000000"/>
     <use xlink:href="#m0f5836bc67" x="445.650423" y="99.177286" style="stroke: #000000"/>
    </g>
   </g>
   <g id="line2d_32">
    <path d="M 52.94 152.804 
L 493.2 152.804 
" clip-path="url(#p8e4d6a1135)" style="fill: none; stroke: #d9d9d9; stroke-width: 0.8; stroke-linecap: square"/>
   </g>
   <g id="line2d_33">
    <path d="M 114.882098 166.869195 
L 208.179256 236.453514 
L 262.211699 197.146468 
L 316.686181 194.231171 
L 371.159969 59.077851 
L 445.650423 143.117208 
" clip-path="url(#p8e4d6a1135)" style="fill: none; stroke: #000000; stroke-width: 2; stroke-linecap: square"/>
    <defs>
     <path id="mb890054af8" d="M 0 3.5 
C 0.928211 3.5 1.81853 3.131218 2.474874 2.474874 
C 3.131218 1.81853 3.5 0.928211 3.5 0 
C 3.5 -0.928211 3.131218 -1.81853 2.474874 -2.474874 
C 1.81853 -3.131218 0.928211 -3.5 0 -3.5 
C -0.928211 -3.5 -1.81853 -3.131218 -2.474874 -2.474874 
C -3.131218 -1.81853 -3.5 -0.928211 -3.5 0 
C -3.5 0.928211 -3.131218 1.81853 -2.474874 2.474874 
C -1.81853 3.131218 -0.928211 3.5 0 3.5 
z
" style="stroke: #000000"/>
    </defs>
    <g clip-path="url(#p8e4d6a1135)">
     <use xlink:href="#mb890054af8" x="114.882098" y="166.869195" style="stroke: #000000"/>
     <use xlink:href="#mb890054af8" x="208.179256" y="236.453514" style="stroke: #000000"/>
     <use xlink:href="#mb890054af8" x="262.211699" y="197.146468" style="stroke: #000000"/>
     <use xlink:href="#mb890054af8" x="316.686181" y="194.231171" style="stroke: #000000"/>
     <use xlink:href="#mb890054af8" x="371.159969" y="59.077851" style="stroke: #000000"/>
     <use xlink:href="#mb890054af8" x="445.650423" y="143.117208" style="stroke: #000000"/>
    </g>
   </g>
   <g id="patch_3">
    <path d="M 52.94 278.728 
L 52.94 26.88 
" style="fill: none; stroke: #000000; stroke-width: 0.8; stroke-linejoin: miter; stroke-linecap: square"/>
   </g>
   <g id="patch_4">
    <path d="M 493.2 278.728 
L 493.2 26.88 
" style="fill: none; stroke: #000000; stroke-width: 0.8; stroke-linejoin: miter; stroke-linecap: square"/>
   </g>
   <g id="patch_5">
    <path d="M 52.94 278.728 
L 493.2 278.728 
" style="fill: none; stroke: #000000; stroke-width: 0.8; stroke-linejoin: miter; stroke-linecap: square"/>
   </g>
   <g id="patch_6">
    <path d="M 52.94 26.88 
L 493.2 26.88 
" style="fill: none; stroke: #000000; stroke-width: 0.8; stroke-linejoin: miter; stroke-linecap: square"/>
   </g>
   <g id="text_14">
    <text style="font: 12px 'DejaVu Sans', 'Bitstream Vera Sans', 'Computer Modern Sans Serif', 'Lucida Grande', 'Verdana', 'Geneva', 'Lucid', 'Arial', 'Helvetica', 'Avant Garde', sans-serif; text-anchor: middle" x="273.07" y="20.88" transform="rotate(-0 273.07 20.88)">KEMAR HRTF proximal statistics (midsagittal plane, azimuth 0°)</text>
   </g>
   <g id="legend_1">
    <g id="line2d_34">
     <path d="M 61.94 39.978437 
L 71.94 39.978437 
L 81.94 39.978437 
" style="fill: none; stroke-dasharray: 4.44,1.92; stroke-dashoffset: 0; stroke: #737373; stroke-width: 1.2"/>
    </g>
    <g id="text_15">
     <text style="font: 10px 'DejaVu Sans', 'Bitstream Vera Sans', 'Computer Modern Sans Serif', 'Lucida Grande', 'Verdana', 'Geneva', 'Lucid', 'Arial', 'Helvetica', 'Avant Garde', sans-serif; text-anchor: start" x="89.94" y="43.478437" transform="rotate(-0 89.94 43.478437)">Per frequency channel</text>
    </g>
    <g id="LineCollection_2">
     <path d="M 71.94 59.656563 
L 71.94 49.656563 
" style="fill: none; stroke: #000000; stroke-width: 2"/>
    </g>
    <g id="line2d_35">
     <g>
      <use xlink:href="#m0f5836bc67" x="71.94" y="59.656563" style="stroke: #000000"/>
     </g>
    </g>
    <g id="line2d_36">
     <g>
      <use xlink:href="#m0f5836bc67" x="71.94" y="49.656563" style="stroke: #000000"/>
     </g>
    </g>
    <g id="line2d_37">
     <path d="M 61.94 54.656563 
L 81.94 54.656563 
" style="fill: none; stroke: #000000; stroke-width: 2; stroke-linecap: square"/>
    </g>
    <g id="line2d_38">
     <g>
      <use xlink:href="#mb890054af8" x="71.94" y="54.656563" style="stroke: #000000"/>
     </g>
    </g>
    <g id="text_16">
     <text style="font: 10px 'DejaVu Sans', 'Bitstream Vera Sans', 'Computer Modern Sans Serif', 'Lucida Grande', 'Verdana', 'Geneva', 'Lucid', 'Arial', 'Helvetica', 'Avant Garde', sans-serif; text-anchor: start" x="89.94" y="58.156563" transform="rotate(-0 89.94 58.156563)">Binned bands (mean ± SEM, L/R ears)</text>
    </g>
   </g>
  </g>
 </g>
 <defs>
  <clipPath id="p8e4d6a1135">
   <rect x="52.94" y="26.88" width="440.26" height="251.848"/>
  </clipPath>
 </defs>
</svg>
